<?xml version="1.0" encoding="UTF-8" standalone="no"?>
<svg
   width="34.46162"
   height="30.52117"
   viewBox="0 0 34.46162 30.52117"
   fill="none"
   version="1.1"
   id="svg15"
   sodipodi:docname="restate-logo (copy).svg"
   inkscape:version="1.1.2 (0a00cf5339, 2022-02-04)"
   xmlns:inkscape="http://www.inkscape.org/namespaces/inkscape"
   xmlns:sodipodi="http://sodipodi.sourceforge.net/DTD/sodipodi-0.dtd"
   xmlns="http://www.w3.org/2000/svg"
   xmlns:svg="http://www.w3.org/2000/svg">
  <defs
     id="defs19" />
  <sodipodi:namedview
     id="namedview17"
     pagecolor="#ffffff"
     bordercolor="#666666"
     borderopacity="1.0"
     inkscape:pageshadow="2"
     inkscape:pageopacity="0.0"
     inkscape:pagecheckerboard="0"
     showgrid="false"
     inkscape:zoom="9.9850746"
     inkscape:cx="67.050075"
     inkscape:cy="11.266816"
     inkscape:window-width="1880"
     inkscape:window-height="1136"
     inkscape:window-x="40"
     inkscape:window-y="27"
     inkscape:window-maximized="1"
     inkscape:current-layer="svg15" />
  <path
     fill-rule="evenodd"
     clip-rule="evenodd"
     d="m 15.897279,4.8160412 c -0.5489,0.7763 -0.3695,1.85 0.402,2.4056 l 9.3448,6.7302998 c 0.2264,0.1631 0.2321,0.4982 0.0112,0.6688 l -7.8076,6.0313 c -0.7441,0.5748 -0.8946,1.6377 -0.3394,2.3964 0.5744,0.785 1.6819,0.9441 2.4541,0.3526 l 8.7877,-6.7322 c 0.7416,-0.5681 1.1764,-1.4491 1.1764,-2.3833 0,-0.9667 -0.4655,-1.8743 -1.2506,-2.4383 l -10.3537,-7.4378998 c -0.781,-0.5611 -1.8696,-0.3785 -2.4249,0.4067 z"
     fill="#222452"
     id="path2" />
  <path
     fill-rule="evenodd"
     clip-rule="evenodd"
     d="m 4.8889391,5.4648412 c -0.32471,0.4776 -0.49835,1.0417 -0.49835,1.6192 V 23.450941 c 0,0.5558 0.62744,0.8798 1.08062,0.558 l 1.65271,-1.1734 c 0.45727,-0.3246 0.72894,-0.8507 0.72894,-1.4115 V 9.2385412 c 0,-0.3381 0.38118,-0.5359 0.65763,-0.3411 l 7.3306899,5.1647998 c 0.2386,0.1681 0.2353,0.5229 -0.0063,0.6866 l -2.344,1.5879 c -0.7984,0.5409 -0.9968,1.632 -0.4401,2.4193 0.5455,0.7714 1.6108,0.9591 2.387,0.4206 l 3.5679,-2.4753 c 0.7645,-0.5303 1.2205,-1.4017 1.2205,-2.3321 0,-0.9123 -0.4385,-1.769 -1.1786,-2.3024 L 8.4800491,4.4489412 c -1.14744,-0.701 -2.64312,-0.3782 -3.39923,0.7338 z"
     fill="#222452"
     id="path4" />
  <mask
     id="path-3-outside-1_681_78634"
     maskUnits="userSpaceOnUse"
     x="39.24"
     y="11.064"
     width="95"
     height="22"
     fill="#000000">
    <rect
       fill="#ffffff"
       x="39.240002"
       y="11.064"
       width="95"
       height="22"
       id="rect6" />
    <path
       d="M 39.6194,32.064 V 16.6289 h 3.1622 v 1.8159 h 0.5009 c 0.501,-1.2837 1.5968,-1.8786 3.2561,-1.8786 h 1.8472 v 2.9117 h -1.9724 c -2.0977,0 -3.5692,1.1271 -3.5692,3.5066 v 9.0795 z m 16.7545,0.4383 c -4.6963,0 -7.8271,-3.1622 -7.8271,-7.9524 v -0.3757 c 0,-4.8215 3.1621,-7.9837 7.7019,-7.9837 4.4458,0 7.4514,3.1309 7.4514,7.8272 v 1.221 H 51.8342 c 0.0939,2.7238 2.0037,4.4458 4.6023,4.4458 2.4421,0 3.5066,-1.2523 4.164,-2.6925 l 2.6926,1.3776 c -0.9393,1.7845 -2.7552,4.1327 -6.9192,4.1327 z m -4.5084,-9.737 h 8.5785 c -0.1878,-2.3168 -1.8159,-3.7257 -4.2266,-3.7257 -2.4421,0 -4.0388,1.4089 -4.3519,3.7257 z m 20.1622,9.737 c -3.9449,0 -6.7001,-1.7533 -7.2636,-5.2912 l 3.0056,-0.7201 c 0.4383,2.5987 2.1916,3.4127 4.258,3.4127 2.035,0 3.1934,-0.8454 3.1934,-2.129 0,-1.2523 -1.0645,-1.722 -3.0682,-2.0977 l -1.0958,-0.1878 c -3.1308,-0.5636 -5.6355,-1.7846 -5.6355,-4.6963 0,-2.9117 2.3481,-4.6024 5.9486,-4.6024 3.4752,0 5.7921,1.6594 6.4495,4.3519 l -3.0056,0.8454 c -0.3444,-1.8786 -1.628,-2.5673 -3.4439,-2.5673 -1.7846,0 -2.8178,0.6887 -2.8178,1.8472 0,1.2523 1.0332,1.7219 2.7239,2.035 l 1.0958,0.1879 c 3.35,0.5948 6.0112,1.5967 6.0112,4.7276 0,3.0995 -2.5047,4.8841 -6.3556,4.8841 z M 85.7298,32.064 c -1.9098,0 -3.0682,-1.1898 -3.0682,-3.0996 v -9.6117 h -4.258 v -2.7238 h 4.258 v -5.1033 h 3.2247 v 5.1033 h 4.6024 v 2.7238 h -4.6024 v 9.0482 c 0,0.6261 0.2818,0.9392 0.8767,0.9392 h 3.2247 v 2.7239 z m 11.4286,0.4383 c -3.2874,0 -5.7921,-1.7533 -5.7921,-4.8841 0,-3.1309 2.5047,-4.7589 5.886,-4.7589 h 4.6967 v -1.0019 c 0,-1.7846 -1.065,-2.9743 -3.3191,-2.9743 -2.2229,0 -3.3187,1.1584 -3.6944,2.8177 l -3.0056,-0.9705 c 0.7514,-2.4421 2.7864,-4.5398 6.7313,-4.5398 4.0078,0 6.4498,2.129 6.4498,5.886 v 6.3557 c 0,0.6261 0.313,0.9392 0.876,0.9392 h 1.315 v 2.6926 h -2.41 c -1.441,0 -2.442,-0.8141 -2.442,-2.0977 v -0.0939 h -0.501 c -0.47,1.0018 -1.597,2.6299 -4.7906,2.6299 z m 0.4696,-2.6612 c 2.567,0 4.321,-1.5655 4.321,-4.1641 v -0.3131 h -4.5088 c -1.722,0 -2.8491,0.7514 -2.8491,2.1603 0,1.4089 1.1271,2.3169 3.0369,2.3169 z m 15.653,2.2229 c -1.91,0 -3.068,-1.1898 -3.068,-3.0996 v -9.6117 h -4.258 v -2.7238 h 4.258 v -5.1033 h 3.225 v 5.1033 h 4.602 v 2.7238 h -4.602 v 9.0482 c 0,0.6261 0.282,0.9392 0.876,0.9392 h 3.225 v 2.7239 z m 13.195,0.4383 c -4.697,0 -7.828,-3.1622 -7.828,-7.9524 v -0.3757 c 0,-4.8215 3.163,-7.9837 7.702,-7.9837 4.446,0 7.452,3.1309 7.452,7.8272 v 1.221 h -11.866 c 0.094,2.7238 2.004,4.4458 4.602,4.4458 2.442,0 3.507,-1.2523 4.164,-2.6925 l 2.693,1.3776 c -0.939,1.7845 -2.755,4.1327 -6.919,4.1327 z m -4.509,-9.737 h 8.579 c -0.188,-2.3168 -1.816,-3.7257 -4.227,-3.7257 -2.442,0 -4.039,1.4089 -4.352,3.7257 z"
       id="path8" />
  </mask>
  <path
     d="M 39.755779,24.381941 V 8.9468412 h 3.1622 v 1.8158998 h 0.5009 c 0.501,-1.2836998 1.5968,-1.8785998 3.2561,-1.8785998 h 1.8472 v 2.9116998 h -1.9724 c -2.0977,0 -3.5692,1.1271 -3.5692,3.5066 v 9.0795 z m 16.7545,0.4383 c -4.6963,0 -7.8271,-3.1622 -7.8271,-7.9524 v -0.3757 c 0,-4.8215 3.1621,-7.9836998 7.7019,-7.9836998 4.4458,0 7.4514,3.1308998 7.4514,7.8271998 v 1.221 h -11.8659 c 0.0939,2.7238 2.0037,4.4458 4.6023,4.4458 2.4421,0 3.5066,-1.2523 4.164,-2.6925 l 2.6926,1.3776 c -0.9393,1.7845 -2.7552,4.1327 -6.9192,4.1327 z m -4.5084,-9.737 h 8.5785 c -0.1878,-2.3168 -1.8159,-3.7257 -4.2266,-3.7257 -2.4421,0 -4.0388,1.4089 -4.3519,3.7257 z m 20.1622,9.737 c -3.9449,0 -6.7001,-1.7533 -7.2636,-5.2912 l 3.0056,-0.7201 c 0.4383,2.5987 2.1916,3.4127 4.258,3.4127 2.035,0 3.1934,-0.8454 3.1934,-2.129 0,-1.2523 -1.0645,-1.722 -3.0682,-2.0977 l -1.0958,-0.1878 c -3.1308,-0.5636 -5.6355,-1.7846 -5.6355,-4.6963 0,-2.9117 2.3481,-4.6023998 5.9486,-4.6023998 3.4752,0 5.7921,1.6593998 6.4495,4.3518998 l -3.0056,0.8454 c -0.3444,-1.8786 -1.628,-2.5673 -3.4439,-2.5673 -1.7846,0 -2.8178,0.6887 -2.8178,1.8472 0,1.2523 1.0332,1.7219 2.7239,2.035 l 1.0958,0.1879 c 3.35,0.5948 6.0112,1.5967 6.0112,4.7276 0,3.0995 -2.5047,4.8841 -6.3556,4.8841 z m 13.7021,-0.4383 c -1.9098,0 -3.0682,-1.1898 -3.0682,-3.0996 v -9.6117 h -4.258 V 8.9468412 h 4.258 v -5.1033 h 3.2247 v 5.1033 h 4.6024 v 2.7237998 h -4.6024 v 9.0482 c 0,0.6261 0.2818,0.9392 0.8767,0.9392 h 3.2247 v 2.7239 z m 11.4286,0.4383 c -3.2874,0 -5.7921,-1.7533 -5.7921,-4.8841 0,-3.1309 2.5047,-4.7589 5.886,-4.7589 h 4.696701 v -1.0019 c 0,-1.7846 -1.065,-2.9743 -3.319101,-2.9743 -2.2229,0 -3.3187,1.1584 -3.6944,2.8177 l -3.0056,-0.9705 c 0.7514,-2.4421 2.7864,-4.5397998 6.7313,-4.5397998 4.007801,0 6.449801,2.1289998 6.449801,5.8859998 v 6.3557 c 0,0.6261 0.313,0.9392 0.876,0.9392 h 1.315 v 2.6926 h -2.41 c -1.441,0 -2.442,-0.8141 -2.442,-2.0977 v -0.0939 h -0.501 c -0.47,1.0018 -1.597,2.6299 -4.790601,2.6299 z m 0.4696,-2.6612 c 2.567001,0 4.321001,-1.5655 4.321001,-4.1641 v -0.3131 h -4.508801 c -1.722,0 -2.8491,0.7514 -2.8491,2.1603 0,1.4089 1.1271,2.3169 3.0369,2.3169 z m 15.653001,2.2229 c -1.91,0 -3.068,-1.1898 -3.068,-3.0996 v -9.6117 h -4.258 V 8.9468412 h 4.258 v -5.1033 h 3.225 v 5.1033 h 4.602 v 2.7237998 h -4.602 v 9.0482 c 0,0.6261 0.282,0.9392 0.876,0.9392 h 3.225 v 2.7239 z m 13.195,0.4383 c -4.697,0 -7.828,-3.1622 -7.828,-7.9524 v -0.3757 c 0,-4.8215 3.163,-7.9836998 7.702,-7.9836998 4.446,0 7.452,3.1308998 7.452,7.8271998 v 1.221 h -11.866 c 0.094,2.7238 2.004,4.4458 4.602,4.4458 2.442,0 3.507,-1.2523 4.164,-2.6925 l 2.693,1.3776 c -0.939,1.7845 -2.755,4.1327 -6.919,4.1327 z m -4.509,-9.737 h 8.579 c -0.188,-2.3168 -1.816,-3.7257 -4.227,-3.7257 -2.442,0 -4.039,1.4089 -4.352,3.7257 z"
     fill="#222452"
     id="path11" />
  <path
     d="m 39.6194,32.064 h -0.1 v 0.1 h 0.1 z m 0,-15.4351 v -0.1 h -0.1 v 0.1 z m 3.1622,0 h 0.1 v -0.1 h -0.1 z m 0,1.8159 h -0.1 v 0.1 h 0.1 z m 0.5009,0 v 0.1 h 0.0684 l 0.0248,-0.0637 z m 5.1033,-1.8786 h 0.1 v -0.1 h -0.1 z m 0,2.9117 v 0.1 h 0.1 v -0.1 z M 42.8442,32.064 v 0.1 h 0.1 v -0.1 z m -3.1248,0 V 16.6289 h -0.2 V 32.064 Z m -0.1,-15.3351 h 3.1622 v -0.2 h -3.1622 z m 3.0622,-0.1 v 1.8159 h 0.2 v -1.8159 z m 0.1,1.9159 h 0.5009 v -0.2 h -0.5009 z m 0.5941,-0.0637 c 0.2428,-0.6221 0.6274,-1.0731 1.1499,-1.37 0.5243,-0.298 1.1945,-0.4449 2.013,-0.4449 v -0.2 c -0.8408,0 -1.5482,0.1507 -2.1118,0.471 -0.5655,0.3214 -0.9793,0.8097 -1.2374,1.4712 z m 3.1629,-1.8149 h 1.8472 v -0.2 h -1.8472 z m 1.7472,-0.1 v 2.9117 h 0.2 v -2.9117 z m 0.1,2.8117 h -1.9724 v 0.2 h 1.9724 z m -1.9724,0 c -1.0658,0 -1.9852,0.2865 -2.6389,0.8874 -0.6551,0.6022 -1.0303,1.5082 -1.0303,2.7192 h 0.2 c 0,-1.1684 0.3606,-2.0158 0.9656,-2.572 0.6065,-0.5574 1.4717,-0.8346 2.5036,-0.8346 z m -3.6692,3.6066 v 9.0795 h 0.2 v -9.0795 z m 0.1,8.9795 h -3.2248 v 0.2 h 3.2248 z m 20.8559,-6.7253 v 0.1 h 0.1 v -0.1 z m -11.8659,0 v -0.1 h -0.1035 l 0.0035,0.1035 z m 8.7663,1.7533 0.0456,-0.089 -0.0931,-0.0477 -0.0434,0.0952 z m 2.6926,1.3776 0.0885,0.0465 0.0471,-0.0895 -0.0901,-0.0461 z M 51.8655,22.7653 51.7664,22.7519 51.751,22.8653 h 0.1145 z m 8.5785,0 v 0.1 h 0.1084 l -0.0087,-0.108 z m -4.0701,9.637 c -2.3251,0 -4.255,-0.7823 -5.6035,-2.1501 -1.3486,-1.3679 -2.1236,-3.3293 -2.1236,-5.7023 h -0.2 c 0,2.4173 0.7903,4.432 2.1812,5.8427 1.391,1.4109 3.3747,2.2097 5.7459,2.2097 z m -7.7271,-7.8524 v -0.3757 h -0.2 v 0.3757 z m 0,-0.3757 c 0,-2.3885 0.7828,-4.3581 2.1201,-5.7301 1.3372,-1.3718 3.2358,-2.1536 5.4818,-2.1536 v -0.2 c -2.2938,0 -4.2461,0.7994 -5.625,2.214 -1.3787,1.4145 -2.1769,3.4367 -2.1769,5.8697 z m 7.6019,-7.8837 c 2.1985,0 4.0342,0.7736 5.3205,2.1215 1.2867,1.3484 2.0309,3.2791 2.0309,5.6057 h 0.2 c 0,-2.3697 -0.7586,-4.3526 -2.0862,-5.7437 -1.328,-1.3916 -3.218,-2.1835 -5.4652,-2.1835 z m 7.3514,7.7272 v 1.221 h 0.2 v -1.221 z m 0.1,1.121 H 51.8342 v 0.2 h 11.8659 z m -11.9659,0.1035 c 0.0478,1.3853 0.558,2.5225 1.3931,3.3135 0.8348,0.7906 1.9875,1.2288 3.3092,1.2288 v -0.2 c -1.2769,0 -2.3784,-0.4227 -3.1717,-1.1741 -0.7929,-0.751 -1.2845,-1.8366 -1.3307,-3.1751 z m 4.7023,4.5423 c 1.2393,0 2.138,-0.3182 2.8115,-0.8263 0.672,-0.507 1.1112,-1.1967 1.4435,-1.9247 l -0.1819,-0.083 c -0.3251,0.7121 -0.7469,1.3688 -1.3821,1.848 -0.6336,0.4781 -1.4882,0.786 -2.691,0.786 z m 4.1185,-2.7035 2.6925,1.3776 0.0911,-0.1781 -2.6925,-1.3775 z m 2.6496,1.242 c -0.4659,0.8852 -1.1461,1.904 -2.2214,2.7018 -1.0738,0.7967 -2.5476,1.3775 -4.6093,1.3775 v 0.2 c 2.1024,0 3.6185,-0.5933 4.7285,-1.4168 1.1084,-0.8225 1.8058,-1.87 2.2792,-2.7694 z M 51.8655,22.8653 h 8.5785 v -0.2 h -8.5785 z m 8.6782,-0.108 c -0.0958,-1.1808 -0.5596,-2.1377 -1.3135,-2.7988 -0.7534,-0.6607 -1.788,-1.0189 -3.0128,-1.0189 v 0.2 c 1.1858,0 2.1706,0.3463 2.8809,0.9693 0.7098,0.6224 1.1539,1.5285 1.246,2.6645 z m -4.3263,-3.8177 c -1.2406,0 -2.2748,0.3582 -3.0397,1.0184 -0.7649,0.6602 -1.2521,1.6154 -1.4113,2.7939 l 0.1982,0.0268 c 0.1538,-1.1383 0.6216,-2.046 1.3438,-2.6693 0.7223,-0.6235 1.7074,-0.9698 2.909,-0.9698 z m 8.5467,8.2715 -0.0233,-0.0972 -0.09,0.0216 0.0145,0.0914 z m 3.0056,-0.7201 0.0986,-0.0166 -0.0178,-0.1055 -0.1041,0.0249 z m 4.3832,-0.814 0.0184,-0.0983 -0.0015,-2e-4 z m -1.0958,-0.1878 -0.0177,0.0984 8e-4,1e-4 z m 6.7626,-4.9468 0.0271,0.0963 0.093,-0.0262 -0.0229,-0.0938 z m -3.0056,0.8454 -0.0983,0.018 0.0198,0.1079 0.1056,-0.0297 z m -3.5378,1.3149 -0.0182,0.0984 0.0013,2e-4 z m 1.0958,0.1879 0.0174,-0.0985 -5e-4,-10e-5 z m -0.3444,9.5117 c -1.9587,0 -3.6116,-0.4354 -4.8423,-1.3007 -1.2285,-0.8637 -2.0447,-2.1617 -2.3226,-3.9062 l -0.1975,0.0315 c 0.2857,1.7934 1.1288,3.141 2.4051,4.0383 1.274,0.8958 2.971,1.3371 4.9573,1.3371 z m -7.2403,-5.0939 3.0056,-0.7201 -0.0466,-0.1945 -3.0056,0.7201 z m 2.8837,-0.8007 c 0.2228,1.3207 0.7825,2.1996 1.5596,2.7459 0.7743,0.5445 1.7521,0.7501 2.797,0.7501 v -0.2 c -1.0216,0 -1.9535,-0.2014 -2.682,-0.7137 -0.7258,-0.5103 -1.2618,-1.3377 -1.4774,-2.6156 z m 4.3566,3.496 c 1.0295,0 1.8501,-0.2136 2.4163,-0.6006 0.57,-0.3896 0.8771,-0.9521 0.8771,-1.6284 h -0.2 c 0,0.6073 -0.272,1.1093 -0.79,1.4633 -0.5217,0.3566 -1.298,0.5657 -2.3034,0.5657 z m 3.2934,-2.229 c 0,-0.3278 -0.0698,-0.6099 -0.2111,-0.8534 -0.1411,-0.2433 -0.3499,-0.4421 -0.6188,-0.6091 -0.534,-0.3317 -1.3177,-0.5456 -2.3199,-0.7335 l -0.0368,0.1966 c 1.0016,0.1878 1.752,0.3967 2.2512,0.7068 0.2477,0.1539 0.4302,0.3307 0.5513,0.5395 0.1209,0.2085 0.1841,0.4547 0.1841,0.7531 z m -3.1513,-2.1962 -1.0958,-0.1879 -0.0338,0.1971 1.0958,0.1879 z m -1.095,-0.1877 c -1.5602,-0.2809 -2.9514,-0.7237 -3.9507,-1.4501 -0.9939,-0.7225 -1.6025,-1.7266 -1.6025,-3.1478 h -0.2 c 0,1.4905 0.6437,2.5527 1.6849,3.3096 1.0357,0.7529 2.4622,1.2024 4.0329,1.4851 z m -5.5532,-4.5979 c 0,-1.4258 0.5733,-2.5464 1.5845,-3.3134 1.0145,-0.7694 2.478,-1.189 4.2641,-1.189 v -0.2 c -1.8144,0 -3.3252,0.4259 -4.3849,1.2297 -1.063,0.8062 -1.6637,1.9868 -1.6637,3.4727 z m 5.8486,-4.5024 c 1.722,0 3.1491,0.4111 4.2249,1.1488 1.0747,0.7369 1.8044,1.8036 2.1275,3.1269 l 0.1943,-0.0475 c -0.3344,-1.3693 -1.0919,-2.4785 -2.2087,-3.2444 -1.1159,-0.7651 -2.5848,-1.1838 -4.338,-1.1838 z m 6.4225,4.1557 -3.0057,0.8453 0.0542,0.1925 3.0056,-0.8453 z m -2.8802,0.9235 c -0.1761,-0.9603 -0.5951,-1.6276 -1.2118,-2.0524 -0.6139,-0.4228 -1.4115,-0.5968 -2.3305,-0.5968 v 0.2 c 0.8968,0 1.649,0.1703 2.217,0.5615 0.5652,0.3893 0.9602,1.0056 1.1286,1.9238 z m -3.5423,-2.6492 c -0.903,0 -1.6294,0.1739 -2.1331,0.5056 -0.5085,0.3349 -0.7847,0.8276 -0.7847,1.4416 h 0.2 c 0,-0.5445 0.2405,-0.9754 0.6947,-1.2745 0.459,-0.3023 1.1415,-0.4727 2.0231,-0.4727 z m -2.9178,1.9472 c 0,0.661 0.2763,1.1221 0.7725,1.4529 0.4878,0.3252 1.1863,0.5236 2.0332,0.6804 l 0.0364,-0.1966 c -0.8438,-0.1563 -1.5072,-0.3492 -1.9587,-0.6502 -0.443,-0.2954 -0.6834,-0.6953 -0.6834,-1.2865 z m 2.807,2.1336 1.0958,0.1878 0.0338,-0.1971 -1.0958,-0.1878 z m 1.0952,0.1877 c 1.6734,0.2972 3.1585,0.6938 4.2242,1.3978 1.0578,0.6988 1.7045,1.7015 1.7045,3.2314 h 0.2 c 0,-1.6011 -0.6839,-2.6647 -1.7942,-3.3983 -1.1025,-0.7283 -2.623,-1.1301 -4.2996,-1.4278 z m 5.9287,4.6292 c 0,1.5195 -0.6124,2.7105 -1.6938,3.5245 -1.0849,0.8165 -2.6503,1.2596 -4.5618,1.2596 v 0.2 c 1.9393,0 3.5518,-0.4492 4.682,-1.2999 1.1336,-0.8531 1.7736,-2.1043 1.7736,-3.6842 z m 4.3783,-8.2655 h 0.1 v -0.1 h -0.1 z m -4.258,0 h -0.1 v 0.1 h 0.1 z m 0,-2.7238 v -0.1 h -0.1 v 0.1 z m 4.258,0 v 0.1 h 0.1 v -0.1 z m 0,-5.1033 v -0.1 h -0.1 v 0.1 z m 3.2247,0 h 0.1 v -0.1 h -0.1 z m 0,5.1033 h -0.1 v 0.1 h 0.1 z m 4.6024,0 h 0.1 v -0.1 h -0.1 z m 0,2.7238 v 0.1 h 0.1 v -0.1 z m -4.6024,0 v -0.1 h -0.1 v 0.1 z m 4.1014,9.9874 h 0.1 v -0.1 h -0.1 z m 0,2.7239 v 0.1 h 0.1 v -0.1 z m -4.2579,-0.1 c -0.9338,0 -1.6732,-0.2904 -2.1791,-0.8038 -0.5061,-0.5136 -0.7891,-1.2611 -0.7891,-2.1958 h -0.2 c 0,0.9752 0.2961,1.7774 0.8467,2.3362 0.5507,0.5589 1.3455,0.8634 2.3215,0.8634 z m -2.9682,-2.9996 v -9.6117 h -0.2 v 9.6117 z m -0.1,-9.7117 h -4.258 v 0.2 h 4.258 z m -4.158,0.1 v -2.7238 h -0.2 v 2.7238 z m -0.1,-2.6238 h 4.258 v -0.2 h -4.258 z m 4.358,-0.1 v -5.1033 h -0.2 v 5.1033 z m -0.1,-5.0033 h 3.2247 v -0.2 h -3.2247 z m 3.1247,-0.1 v 5.1033 h 0.2 v -5.1033 z m 0.1,5.2033 h 4.6024 v -0.2 h -4.6024 z m 4.5024,-0.1 v 2.7238 h 0.2 v -2.7238 z m 0.1,2.6238 h -4.6024 v 0.2 h 4.6024 z m -4.7024,0.1 v 9.0482 h 0.2 v -9.0482 z m 0,9.0482 c 0,0.326 0.0732,0.5899 0.2419,0.7723 0.1701,0.1839 0.4205,0.2669 0.7348,0.2669 v -0.2 c -0.2807,0 -0.4685,-0.0735 -0.588,-0.2027 -0.1209,-0.1307 -0.1887,-0.3364 -0.1887,-0.6365 z m 0.9767,1.0392 h 3.2247 v -0.2 H 86.763 Z m 3.1247,-0.1 v 2.7239 h 0.2 v -2.7239 z m 0.1,2.6239 h -4.2579 v 0.2 h 4.2579 z m 11.9613,-9.1047 v 0.1 h 0.1 v -0.1 z m -7.0135,-1.1585 -0.0308,0.0952 0.1041,0.0336 0.0242,-0.1067 z m -3.0056,-0.9705 -0.0956,-0.0294 -0.029,0.0942 0.0938,0.0303 z m 15.3721,8.6411 h 0.1 v -0.1 h -0.1 z m 0,2.6926 v 0.1 h 0.1 v -0.1 z m -4.852,-2.1916 h 0.1 v -0.1 h -0.1 z m -0.501,0 v -0.1 h -0.064 l -0.027,0.0575 z m 0,-4.5085 h 0.1 v -0.1 h -0.1 z m -4.7906,7.0384 c -1.6271,0 -3.0512,-0.434 -4.0664,-1.2461 -1.0127,-0.8101 -1.6257,-2.0021 -1.6257,-3.538 h -0.2 c 0,1.5949 0.6393,2.845 1.7008,3.6942 1.059,0.8472 2.5309,1.2899 4.1913,1.2899 z m -5.6921,-4.7841 c 0,-1.5355 0.6126,-2.6953 1.6356,-3.474 1.0263,-0.7812 2.4743,-1.1849 4.1504,-1.1849 v -0.2 c -1.7052,0 -3.2002,0.4103 -4.2716,1.2258 -1.0746,0.818 -1.7144,2.0377 -1.7144,3.6331 z m 5.786,-4.6589 h 4.6967 v -0.2 h -4.6967 z m 4.7967,-0.1 v -1.0019 h -0.2 v 1.0019 z m 0,-1.0019 c 0,-0.9122 -0.273,-1.6849 -0.846,-2.2289 -0.572,-0.5434 -1.4292,-0.8454 -2.5731,-0.8454 v 0.2 c 1.1102,0 1.9121,0.2928 2.4361,0.7904 0.523,0.497 0.783,1.2115 0.783,2.0839 z m -3.4191,-3.0743 c -1.1293,0 -1.9832,0.2945 -2.6038,0.8097 -0.6201,0.5146 -0.9968,1.241 -1.1882,2.086 l 0.1951,0.0441 c 0.1844,-0.8143 0.5433,-1.4969 1.1208,-1.9762 0.577,-0.479 1.3824,-0.7636 2.4761,-0.7636 z m -3.6637,2.8226 -3.0056,-0.9706 -0.0615,0.1903 3.0056,0.9706 z m -2.9408,-0.846 c 0.3706,-1.2045 1.0566,-2.3204 2.1329,-3.1353 1.0759,-0.8146 2.5488,-1.3339 4.5029,-1.3339 v -0.2 c -1.9908,0 -3.5079,0.5297 -4.6236,1.3744 -1.1152,0.8444 -1.8225,1.9984 -2.2033,3.236 z m 6.6358,-4.4692 c 1.9868,0 3.5728,0.5277 4.6608,1.5084 1.086,0.9794 1.689,2.4217 1.689,4.2776 h 0.2 c 0,-1.9011 -0.619,-3.4018 -1.755,-4.4261 -1.135,-1.0231 -2.774,-1.5599 -4.7948,-1.5599 z m 6.3498,5.786 v 6.3557 h 0.2 v -6.3557 z m 0,6.3557 c 0,0.3285 0.082,0.5919 0.254,0.7733 0.173,0.1822 0.422,0.2659 0.722,0.2659 v -0.2 c -0.263,0 -0.452,-0.0728 -0.577,-0.2037 -0.125,-0.1316 -0.199,-0.3379 -0.199,-0.6355 z m 0.976,1.0392 h 1.315 v -0.2 h -1.315 z m 1.215,-0.1 v 2.6926 h 0.2 v -2.6926 z m 0.1,2.5926 h -2.41 v 0.2 h 2.41 z m -2.41,0 c -0.702,0 -1.288,-0.1984 -1.697,-0.5439 -0.407,-0.3441 -0.645,-0.8401 -0.645,-1.4538 h -0.2 c 0,0.6699 0.262,1.2228 0.716,1.6066 0.452,0.3824 1.087,0.5911 1.826,0.5911 z m -2.342,-1.9977 v -0.0939 h -0.2 v 0.0939 z m -0.1,-0.1939 h -0.501 v 0.2 h 0.501 z m -0.592,0.0575 c -0.23,0.4918 -0.62,1.133 -1.341,1.652 -0.7208,0.5183 -1.7798,0.9204 -3.3586,0.9204 v 0.2 c 1.6146,0 2.7159,-0.412 3.4746,-0.9581 0.759,-0.5456 1.167,-1.2193 1.406,-1.7294 z m -4.23,0.1112 c 1.3038,0 2.41,-0.3978 3.192,-1.1348 0.782,-0.7378 1.229,-1.8065 1.229,-3.1293 h -0.2 c 0,1.2759 -0.43,2.2891 -1.167,2.9838 -0.7367,0.6953 -1.7905,1.0803 -3.054,1.0803 z m 4.421,-4.2641 v -0.3131 h -0.2 v 0.3131 z m -0.1,-0.4131 h -4.5088 v 0.2 h 4.5088 z m -4.5088,0 c -0.8737,0 -1.6094,0.1904 -2.1294,0.5712 -0.524,0.3837 -0.8197,0.9544 -0.8197,1.6891 h 0.2 c 0,-0.6742 0.2678,-1.1836 0.7379,-1.5278 0.474,-0.3471 1.1629,-0.5325 2.0112,-0.5325 z m -2.9491,2.2603 c 0,0.734 0.2949,1.3429 0.841,1.7658 0.5433,0.4208 1.3265,0.6511 2.2959,0.6511 v -0.2 c -0.9404,0 -1.6757,-0.2237 -2.1734,-0.6092 -0.4949,-0.3833 -0.7635,-0.9327 -0.7635,-1.6077 z m 15.7219,-8.1715 h 0.1 v -0.1 h -0.1 z m -4.258,0 h -0.1 v 0.1 h 0.1 z m 0,-2.7238 v -0.1 h -0.1 v 0.1 z m 4.258,0 v 0.1 h 0.1 v -0.1 z m 0,-5.1033 v -0.1 h -0.1 v 0.1 z m 3.225,0 h 0.1 v -0.1 h -0.1 z m 0,5.1033 h -0.1 v 0.1 h 0.1 z m 4.602,0 h 0.1 v -0.1 h -0.1 z m 0,2.7238 v 0.1 h 0.1 v -0.1 z m -4.602,0 v -0.1 h -0.1 v 0.1 z m 4.101,9.9874 h 0.1 v -0.1 h -0.1 z m 0,2.7239 v 0.1 h 0.1 v -0.1 z m -4.258,-0.1 c -0.934,0 -1.673,-0.2904 -2.179,-0.8038 -0.506,-0.5136 -0.789,-1.2611 -0.789,-2.1958 h -0.2 c 0,0.9752 0.296,1.7774 0.847,2.3362 0.551,0.5589 1.345,0.8634 2.321,0.8634 z m -2.968,-2.9996 v -9.6117 h -0.2 v 9.6117 z m -0.1,-9.7117 h -4.258 v 0.2 h 4.258 z m -4.158,0.1 v -2.7238 h -0.2 v 2.7238 z m -0.1,-2.6238 h 4.258 v -0.2 h -4.258 z m 4.358,-0.1 v -5.1033 h -0.2 v 5.1033 z m -0.1,-5.0033 h 3.225 v -0.2 h -3.225 z m 3.125,-0.1 v 5.1033 h 0.2 v -5.1033 z m 0.1,5.2033 h 4.602 v -0.2 h -4.602 z m 4.502,-0.1 v 2.7238 h 0.2 v -2.7238 z m 0.1,2.6238 h -4.602 v 0.2 h 4.602 z m -4.702,0.1 v 9.0482 h 0.2 v -9.0482 z m 0,9.0482 c 0,0.326 0.073,0.5899 0.242,0.7723 0.17,0.1839 0.42,0.2669 0.734,0.2669 v -0.2 c -0.28,0 -0.468,-0.0735 -0.588,-0.2027 -0.12,-0.1307 -0.188,-0.3364 -0.188,-0.6365 z m 0.976,1.0392 h 3.225 v -0.2 h -3.225 z m 3.125,-0.1 v 2.7239 h 0.2 v -2.7239 z m 0.1,2.6239 h -4.258 v 0.2 h 4.258 z m 16.263,-6.7253 v 0.1 h 0.1 v -0.1 z m -11.866,0 v -0.1 h -0.104 l 0.004,0.1035 z m 8.766,1.7533 0.046,-0.089 -0.093,-0.0477 -0.044,0.0952 z m 2.693,1.3776 0.088,0.0465 0.047,-0.0895 -0.09,-0.0461 z m -11.428,-5.6043 -0.099,-0.0134 -0.015,0.1134 h 0.114 z m 8.579,0 v 0.1 h 0.108 l -0.009,-0.108 z m -4.07,9.637 c -2.325,0 -4.255,-0.7823 -5.604,-2.1501 -1.348,-1.3679 -2.124,-3.3293 -2.124,-5.7023 h -0.2 c 0,2.4173 0.791,4.432 2.182,5.8427 1.391,1.4109 3.374,2.2097 5.746,2.2097 z m -7.728,-7.8524 v -0.3757 h -0.2 v 0.3757 z m 0,-0.3757 c 0,-2.3885 0.783,-4.3581 2.121,-5.7301 1.337,-1.3718 3.235,-2.1536 5.481,-2.1536 v -0.2 c -2.293,0 -4.246,0.7994 -5.625,2.214 -1.378,1.4145 -2.177,3.4367 -2.177,5.8697 z m 7.602,-7.8837 c 2.199,0 4.035,0.7736 5.321,2.1215 1.287,1.3484 2.031,3.2791 2.031,5.6057 h 0.2 c 0,-2.3697 -0.759,-4.3526 -2.086,-5.7437 -1.328,-1.3916 -3.218,-2.1835 -5.466,-2.1835 z m 7.352,7.7272 v 1.221 h 0.2 v -1.221 z m 0.1,1.121 h -11.866 v 0.2 h 11.866 z m -11.966,0.1035 c 0.048,1.3853 0.558,2.5225 1.393,3.3135 0.835,0.7906 1.988,1.2288 3.309,1.2288 v -0.2 c -1.277,0 -2.378,-0.4227 -3.171,-1.1741 -0.793,-0.751 -1.285,-1.8366 -1.331,-3.1751 z m 4.702,4.5423 c 1.24,0 2.138,-0.3182 2.812,-0.8263 0.672,-0.507 1.111,-1.1967 1.443,-1.9247 l -0.182,-0.083 c -0.325,0.7121 -0.747,1.3688 -1.382,1.848 -0.633,0.4781 -1.488,0.786 -2.691,0.786 z m 4.119,-2.7035 2.692,1.3776 0.091,-0.1781 -2.692,-1.3775 z m 2.649,1.242 c -0.466,0.8852 -1.146,1.904 -2.221,2.7018 -1.074,0.7967 -2.548,1.3775 -4.609,1.3775 v 0.2 c 2.102,0 3.618,-0.5933 4.728,-1.4168 1.109,-0.8225 1.806,-1.87 2.279,-2.7694 z m -11.339,-5.4577 h 8.579 v -0.2 h -8.579 z m 8.678,-0.108 c -0.095,-1.1808 -0.559,-2.1377 -1.313,-2.7988 -0.753,-0.6607 -1.788,-1.0189 -3.013,-1.0189 v 0.2 c 1.186,0 2.171,0.3463 2.881,0.9693 0.71,0.6224 1.154,1.5285 1.246,2.6645 z m -4.326,-3.8177 c -1.24,0 -2.275,0.3582 -3.04,1.0184 -0.765,0.6602 -1.252,1.6154 -1.411,2.7939 l 0.198,0.0268 c 0.154,-1.1383 0.622,-2.046 1.344,-2.6693 0.722,-0.6235 1.708,-0.9698 2.909,-0.9698 z"
     fill="#222452"
     mask="url(#path-3-outside-1_681_78634)"
     id="path13"
     transform="translate(0.13637909,-7.6820588)" />
</svg>
