<?xml version="1.0" encoding="UTF-8" standalone="no"?>
<!-- Uploaded to: SVG Repo, www.svgrepo.com, Generator: SVG Repo Mixer Tools -->

<svg
   fill="#000000"
   height="377.6088"
   width="623.58179"
   version="1.1"
   id="Layer_1"
   viewBox="0 0 399.09234 241.66963"
   xml:space="preserve"
   sodipodi:docname="http-icon.svg"
   inkscape:version="1.1.2 (0a00cf5339, 2022-02-04)"
   xmlns:inkscape="http://www.inkscape.org/namespaces/inkscape"
   xmlns:sodipodi="http://sodipodi.sourceforge.net/DTD/sodipodi-0.dtd"
   xmlns="http://www.w3.org/2000/svg"
   xmlns:svg="http://www.w3.org/2000/svg"><defs
   id="defs41" /><sodipodi:namedview
   id="namedview39"
   pagecolor="#ffffff"
   bordercolor="#666666"
   borderopacity="1.0"
   inkscape:pageshadow="2"
   inkscape:pageopacity="0.0"
   inkscape:pagecheckerboard="0"
   showgrid="false"
   inkscape:zoom="1.09125"
   inkscape:cx="299.19817"
   inkscape:cy="110.88202"
   inkscape:window-width="1920"
   inkscape:window-height="1043"
   inkscape:window-x="1920"
   inkscape:window-y="0"
   inkscape:window-maximized="1"
   inkscape:current-layer="Layer_1" />
<g
   id="g6"
   transform="translate(-64.658937,-185.14652)">
	<g
   id="g4">
		<path
   d="m 202.042,199.238 c -6.938,-2.103 -14.268,1.82 -16.371,8.759 l -55.138,182.045 c -2.102,6.938 1.82,14.268 8.759,16.37 1.27,0.385 2.549,0.568 3.811,0.568 5.633,0 10.841,-3.656 12.56,-9.326 l 55.138,-182.045 c 2.1,-6.941 -1.82,-14.271 -8.759,-16.371 z"
   id="path2" />
	</g>
</g>
<g
   id="g12"
   transform="translate(-64.658937,-185.14652)">
	<g
   id="g10">
		<path
   d="m 268.994,199.238 c -6.93,-2.103 -14.268,1.82 -16.37,8.759 l -55.138,182.045 c -2.102,6.938 1.82,14.268 8.759,16.37 1.269,0.385 2.549,0.568 3.811,0.568 5.633,0 10.841,-3.656 12.56,-9.326 l 55.138,-182.045 c 2.103,-6.941 -1.819,-14.271 -8.76,-16.371 z"
   id="path8" />
	</g>
</g>
<g
   id="g24"
   transform="translate(-64.658937,-185.14652)">
	<g
   id="g22">
		<circle
   cx="93.866997"
   cy="245.064"
   r="13.128"
   id="circle20" />
	</g>
</g>
<g
   id="g30"
   transform="translate(-64.658937,-185.14652)">
	<g
   id="g28">
		<circle
   cx="93.866997"
   cy="360.59201"
   r="13.128"
   id="circle26" />
	</g>
</g>
<g
   id="g36"
   transform="translate(-64.658937,-185.14652)">
	<g
   id="g34">
		<path
   d="M 429.292,380.718 H 307.2 c -7.249,0 -13.128,5.879 -13.128,13.128 0,7.249 5.879,13.128 13.128,13.128 h 122.092 c 7.249,0 13.128,-5.879 13.128,-13.128 10e-4,-7.249 -5.878,-13.128 -13.128,-13.128 z"
   id="path32" />
	</g>
</g>
</svg>
