<?xml version="1.0" encoding="utf-8"?>
<!-- Generator: Adobe Illustrator 26.0.3, SVG Export Plug-In . SVG Version: 6.00 Build 0)  -->
<svg version="1.0" id="Layer_1" xmlns="http://www.w3.org/2000/svg" xmlns:xlink="http://www.w3.org/1999/xlink" x="0px" y="0px"
	 viewBox="0 0 586 430" style="enable-background:new 0 0 586 430;" xml:space="preserve">
<style type="text/css">
	.st0{fill:none;}
	.st1{fill:#221F1F;}
	.st2{fill:#67CFE3;}
	.st3{fill:#DFCAA3;}
	.st4{fill:#648C1A;}
</style>
<path class="st0" d="M307.3,157c-13,0-23.6,10.6-23.6,23.6c0,13,10.6,23.6,23.6,23.6s23.6-10.6,23.6-23.6
	C330.9,167.6,320.3,157,307.3,157L307.3,157z M304.1,195.9c-4.1,0-7.4-3.3-7.4-7.4s3.3-7.4,7.4-7.4l0,0c4.1,0,7.4,3.3,7.4,7.4
	S308.2,195.9,304.1,195.9z M303.1,213c-3.8-1.6-8.8-2.4-14.9-2.4l-2.7,0c-1.6-2.9-6.6-4.5-12.3-3.8c5.7-0.7,10.7,0.9,12.3,3.8
	c0.3,0.6,0.5,1.3,0.5,2c0,3.5-4.5,7-10.5,8.2c-0.1,0-0.3,0.1-0.4,0.1l-0.4,0.1c-6.5,1.1-12.3-0.8-13.5-4.3l-2.2,0.7
	c-1.4,0.5-13.3,4.7-14.4,13.1c-0.4,2.7,0.4,5.4,2.2,7.4c2.1,2.5,5.7,3.9,9.4,3.9c2,0,3.9-0.4,5.4-1.3c1-0.5,2-1.2,3.1-1.8
	c3.7-2.3,8.3-5.2,13.9-5.9c0.5-0.1,1.3-0.1,2.5-0.1c1.2,0,2.7,0,4.3,0.1c1.8,0,3.9,0.1,5.9,0.1c5.9,0,9.4-0.5,11.8-1.5
	c5.1-2.3,7.6-6.7,6.8-11.9C309.3,216.8,306.9,214.6,303.1,213z M301.5,228c-2.2,1-6.2,1.2-10.4,1.2c-3.7,0-7.4-0.2-10.2-0.2
	c-1.2,0-2.2,0-2.9,0.1c-8.1,1.1-14.1,6-18.2,8.2c-1.1,0.6-2.4,0.9-3.7,0.8c-4.1,0-8.6-2.5-8-7.2c0.9-6.4,12-10.1,12-10.1
	c1.4,1.8,3.9,3.8,10,3.8c1.6,0,3.5-0.1,5.7-0.5c11.6-1.7,12.3-10,12.3-10c12.6,0.1,17.6,3.7,18,5.8
	C306.5,221.9,306.5,225.7,301.5,228L301.5,228z"/>
<path class="st0" d="M274.4,236.6c-3,1.2-5.7,2.8-8,4.3l-0.1,0.1c0.5,2.5,2.3,8.2,7.3,6.7c2.6-0.8,2.6-3.9,2.1-6.8
	C275.4,239.4,275,238,274.4,236.6z M287.4,235.3c-0.5,0-0.9,0-1.4,0c-1.6,0-3-0.1-4.3-0.1c-1.3,0-2,0-2.3,0.1
	c-0.6,0.1-1.2,0.2-1.8,0.3c0.2,1.3,0.6,3.4,1.2,5.3c0.7,2.2,1.6,4.3,2.8,4.8c1.3,0.5,6.3,0.9,6.2-4.8l0-0.7
	C287.7,238.5,287.6,236.9,287.4,235.3L287.4,235.3z M232,213.4c-4.1,0-7.4-3.3-7.4-7.4c0-4.1,3.3-7.4,7.4-7.4s7.4,3.3,7.4,7.4
	C239.5,210.1,236.1,213.4,232,213.4z"/>
<path class="st1" d="M233.1,300.3c-4,0.9-15.9,7.4-26.2,9.4c-10.3,2-19.2,3-22.3,4.2c-3.1,1.2-5.5,3.5,0.6,5.8
	c6.1,2.3,35.8,3.1,38.4,0c2.7-3.1-1.8-4.5-8.3-4.4c-4.6,0.1-4-1.6-4-1.7c0,0,0.3-2,7.4-3c7.1-1,38.4-3.9,37.9-7.3
	C256,299.8,237.2,299.4,233.1,300.3z"/>
<ellipse transform="matrix(0.9771 -0.2127 0.2127 0.9771 -64.2492 52.6845)" class="st1" cx="212.8" cy="325" rx="6.1" ry="1.8"/>
<ellipse transform="matrix(0.9968 -7.934644e-02 7.934644e-02 0.9968 -25.099 16.7772)" class="st1" cx="198.6" cy="324.2" rx="6.5" ry="1.7"/>
<ellipse transform="matrix(0.9908 -0.135 0.135 0.9908 -41.8604 28.2226)" class="st1" cx="187.2" cy="322.8" rx="4.3" ry="1.4"/>
<ellipse transform="matrix(0.9896 -0.1437 0.1437 0.9896 -44.3334 29.0205)" class="st1" cx="178.8" cy="321.5" rx="4.2" ry="1.1"/>
<ellipse transform="matrix(0.9896 -0.1437 0.1437 0.9896 -44.0129 28.7217)" class="st1" cx="176.9" cy="319.1" rx="4.2" ry="1.1"/>
<ellipse transform="matrix(0.9896 -0.1437 0.1437 0.9896 -43.6388 28.6266)" class="st1" cx="176.4" cy="316.5" rx="3.6" ry="1"/>
<path class="st1" d="M294.8,303.5c-7,0.3-23-0.5-25.2,3.2c-2.2,3.7,6.5,5.1,20.1,3.9c13.6-1.2,32.9-2.7,33.7-6.8s-3.6-3.3-4-6
	c-0.5-2.6,4.9-2.6,5.9-6.6c1-3.9-7.2-3.5-14.4-3.5c-7.3,0-19.4,0.7-20.6,4.5c-1.2,3.8,5.5,3.8,10.3,4.7c4.7,0.9,3.4,2.6,3.4,2.6
	C303.7,302.2,301.8,303.2,294.8,303.5L294.8,303.5z"/>
<ellipse class="st1" cx="276" cy="313.7" rx="6.1" ry="2"/>
<ellipse class="st1" cx="291.7" cy="313.2" rx="4.1" ry="1.8"/>
<ellipse class="st1" cx="304.4" cy="311.9" rx="4.5" ry="1.5"/>
<ellipse class="st1" cx="314.1" cy="310.3" rx="3.2" ry="1.6"/>
<ellipse class="st1" cx="322.6" cy="308.5" rx="3.3" ry="1.5"/>
<path class="st1" d="M179,265.9c0,2,4.3,3.8,11.9,5.5c-0.5-4-0.2-7.9,0.3-11C183.4,262.1,179,264,179,265.9L179,265.9z M404.1,260.8
	c-0.9,2.5-2.4,4.8-4.4,6.7c-3.4,3.3-6.5,5.2-9.2,5.9c14.9-2.1,23.8-4.7,23.8-7.5C414.3,264.1,410.6,262.4,404.1,260.8z"/>
<path class="st2" d="M378.6,256.7c-0.9-6.9-3.9-10.1-6.5-12.8c-2.4-2.6-4.7-5-4-9.4c0.7-4.1,3.9-6.6,9.3-7.3
	c-3.2-21.9-8-49.6-14.1-73.1c-3-11.8-7.9-20-14.3-25.4c-8.6,4.4-17.4,8.4-26.2,12.3c-7.2,3.1-14.4,6.1-21.6,8.9
	c-5.7,6.1-11.9,12.1-15.7,13.8c-2.7,1.2-5.1,1.7-7.2,1.7c-4.5,0-7.6-2.3-9.1-4.3c-1.3,0.4-2.7,0.7-4,0.8c-1.1,0.1-2.8,0.3-4.8,0.4
	c0.8,2.1,0.5,4.5-1,6.3c-1.7,2-4.3,3-8.1,3c-5.5,0-13.3-2.1-23.7-6.3c-1.4-0.6-2.8-1.1-4.2-1.7l-2.4,0h0c-9.9,0-17.7-0.3-23.8-0.8
	c-6.7,13.8-3.8,29.1-1.3,41.8c2.3,12.1,10.5,33.7,18,52.3c2.8,6.9,5.5,13.3,7.8,18.7c20.4,1.8,46.5,2.9,75,2.9c33.9,0,64.5-1.5,86-4
	c-1.6-6.5-3.6-15.4-3.9-17.7L378.6,256.7L378.6,256.7z M210.5,197.6c0-13,10.6-23.6,23.6-23.6s23.6,10.6,23.6,23.6
	c0,13-10.6,23.6-23.6,23.6C221.1,221.3,210.5,210.7,210.5,197.6z M273.6,247.6c-5,1.5-6.8-4.2-7.3-6.7l0.1-0.1c2.3-1.5,5-3.1,8-4.3
	c0.4,1,0.9,2.6,1.2,4.3C276.2,243.7,276.2,246.9,273.6,247.6z M281.7,245.6c-1.2-0.5-2.2-2.5-2.8-4.8c-0.5-1.7-0.9-3.5-1.2-5.3
	c0.6-0.1,1.2-0.2,1.8-0.3c0.3,0,0.9-0.1,2.3-0.1c1.2,0,2.7,0,4.3,0.1l1.4,0c0.1,1.1,0.3,2.6,0.4,4.9l0,0.7
	C288,246.5,283,246.1,281.7,245.6L281.7,245.6z M302.9,231.3c-2.4,1.1-5.9,1.5-11.8,1.5c-2,0-4.1-0.1-5.9-0.1
	c-1.6,0-3.1-0.1-4.3-0.1c-1.1,0-2,0-2.5,0.1c-5.6,0.7-10.2,3.6-13.9,5.9c-1.1,0.7-2.1,1.3-3.1,1.8c-1.7,0.9-3.5,1.3-5.4,1.3
	c-3.7,0-7.3-1.5-9.4-3.9c-1.8-2-2.6-4.7-2.2-7.4c1.1-8.4,13.1-12.6,14.4-13.1l2.2-0.7c-0.1-0.2-0.1-0.4-0.2-0.7
	c-0.6-3.9,4.4-8,11.3-9.1c0.3,0,0.6-0.1,0.9-0.1c5.7-0.7,10.7,0.9,12.3,3.8l2.7,0c6.1,0,11.1,0.9,14.9,2.4c3.8,1.6,6.2,3.8,6.6,6.4
	C310.6,224.6,308,229,302.9,231.3z M307.3,204.2c-13,0-23.6-10.6-23.6-23.6s10.6-23.6,23.6-23.6l0,0c13,0,23.6,10.6,23.6,23.6
	S320.4,204.2,307.3,204.2z"/>
<path d="M337.5,101.1l-0.2-0.3l-0.2-0.3c-0.3-0.4-0.7-0.7-1.2-0.9l-0.1,0l0,0l-0.2-0.1l0,0l0,0l-0.2-0.1l-0.5-0.2
	c-0.3-0.1-0.7-0.2-1-0.2c-0.3-0.1-0.7-0.1-1.1-0.1c-0.4,0-0.7,0-1.1,0.1c-1.4,0.3-2.7,0.9-3.7,1.8c-1,0.8-1.7,1.8-2.3,2.7
	c-1.2,1.9-1.9,3.8-2.3,5.4c-0.4,1.6-0.6,3-0.7,4c0,0.5,0,0.9-0.1,1.1v0.4l0.7-1.3c0.5-0.8,1.1-2,1.9-3.4c0.8-1.4,1.8-2.9,3-4.4
	c0.6-0.7,1.2-1.4,1.9-1.9c0.7-0.5,1.4-0.8,2.1-1c0.2,0,0.4,0,0.5,0c0.2,0,0.4,0,0.5,0c0.2,0,0.4,0,0.6,0.1l0.5,0.1l0.1,0.1l0,0h0
	c0,0,0,0,0,0l0,0l0,0h0c0,0,0,0,0,0c0,0,0,0,0.1,0.1c0.1,0.2,0.2,0.5,0.2,0.9c0,0.8,0,1.7-0.2,2.6c-0.1,0.9-0.3,1.7-0.5,2.5
	c-0.4,1.6-0.7,2.9-1,3.8c-0.2,0.9-0.4,1.5-0.4,1.5s0.4-0.4,1-1.2c0.6-0.8,1.4-1.9,2.3-3.4c0.4-0.7,0.8-1.6,1.2-2.5
	c0.4-0.9,0.7-2,0.8-3.2c0.1-0.7,0-1.5-0.3-2.2C337.7,101.5,337.7,101.3,337.5,101.1L337.5,101.1z"/>
<path d="M334.6,102.8L334.6,102.8L334.6,102.8L334.6,102.8L334.6,102.8L334.6,102.8z"/>
<path class="st1" d="M191.1,146.2h0.3c-0.1-0.2-0.2-0.4-0.3-0.6V146.2L191.1,146.2z M194,137.1c0.7,1.4,1.4,2.4,2,3.2
	c0.3,0.4,0.5,0.6,0.7,0.8l0.3,0.3l-0.3-1.4c-0.2-0.9-0.4-2.1-0.7-3.5c-0.1-0.7-0.2-1.5-0.3-2.2c-0.1-0.7,0-1.4,0.1-2.2
	c0.1-0.2,0.2-0.5,0.3-0.6c0.1-0.1,0.2-0.2,0.3-0.2l0.1,0l0.2,0c0,0,0,0,0,0c0,0,0,0-0.1,0h0l0,0c0,0,0.1,0,0.1,0
	c0.2,0.1,0.4,0.2,0.7,0.4c0.6,0.4,1.2,1.1,1.8,1.7c0.6,0.7,1.1,1.4,1.7,2.1c1.1,1.4,2,2.8,2.9,4c1,1.4,2,2.7,3,4l0-0.4
	c0-0.2-0.1-0.6-0.2-1c-0.6-2.9-1.6-5.8-3-8.4c-0.5-0.9-1-1.8-1.6-2.6c-0.7-0.9-1.5-1.8-2.4-2.5c-0.6-0.4-1.2-0.8-1.9-1
	c-0.2,0-0.4-0.1-0.6-0.1l-0.2,0h-0.2c-0.3,0-0.5,0-0.8,0.1l-0.2,0l-0.2,0l-0.2,0.1l-0.1,0l-0.1,0.1c-0.8,0.3-1.4,0.9-1.8,1.6
	c-0.4,0.6-0.6,1.3-0.6,2c-0.1,1.1,0,2.1,0.4,3.2C193.3,135.6,193.7,136.4,194,137.1z"/>
<path class="st3" d="M204.9,282.1c5.5,0,9.4-3,12.2-6.9c-4.6-10.7-9-21.5-13.2-32.4c-1.3,1.1-2.8,2.8-4.5,5.4
	c-4.1,6.4-7.5,21.2-3.2,29C197.9,280.5,200.8,282.1,204.9,282.1L204.9,282.1z M400.3,245.3c-3.2-8.4-10.1-14.4-16.8-14.5l-0.2,0
	c0,0-1.3-0.2-3-0.2c-3.6,0-8.1,0.8-8.7,4.4c-0.4,2.6,0.7,3.9,3,6.3c2.7,2.8,6.4,6.7,7.5,14.8c1.3,9.3,3.5,14,6.7,14
	c1.5,0,4.2-0.9,8.7-5.2C403.2,259.8,402.7,251.4,400.3,245.3z"/>
<circle class="st1" cx="232" cy="205.9" r="7.4"/>
<circle class="st1" cx="304.1" cy="188.5" r="7.4"/>
<path class="st4" d="M211.8,122.8c5.8,1.6,12.4,2.4,19.5,2.4c11.5,0,35.9-2.2,70.1-17.2l0.8-0.3c-0.1-1.9,0.1-3.8,0.5-5.6
	c0.8-3.5,2.3-6.4,4.1-8.3c-0.2-0.9-0.5-1.9-0.9-2.8c-3.9-2.1-36.5-14.2-53.5-14.2c-1.7,0-3.2,0.1-4.4,0.4c-15.1,3.1-38,29.3-38.8,33
	c-0.2,1.6-0.2,6.6,0,12.1C209.2,122.1,211.8,122.8,211.8,122.8z M211.5,160c-0.5-0.1-1-0.2-1.5-0.2c-3.5,0.2-6.5-2.5-6.7-6
	c0-0.1,0-0.1,0-0.2c-1.7,1-3.4,2-5,3.1l-2.8,2l-2.1-2.8c-0.6-0.8-3.5-4.8-6.2-9.9c-5,2.4-9,5-9.9,7.4c-0.2,0.5-0.1,0.7,0.1,1
	C178.1,155.6,183,159.3,211.5,160z M270.7,151.9c2.5-1.6,5.7-1.3,7.8,0.8c0.6-0.1,1.1-0.3,1.7-0.5c3.1-1.5,14.4-13.5,22.9-23.8
	c0.3-0.4,0.6-0.7,1-1c-19.5,8.4-46.9,17.7-72.9,17.7c-4.2,0-8.1-0.2-11.8-0.7l0.6,1.7l-3.3,1.2c0,0-0.6,0.2-1.5,0.6
	c4.2,1,9.8,2.9,17,5.8c13,5.2,18,5.5,19.2,5.4c1.8-0.9,3.9-1,5.7-0.1c2.5-0.2,5.1-0.3,7.6-0.6c1.1-0.1,2.1-0.4,3.1-0.6
	C267.7,155.4,268.8,153.1,270.7,151.9z M346.5,113.3c-0.9,5.6-2.8,11.8-4,13.5l-1.1,1.6c4.6-2.2,9.1-4.6,13.6-7
	c13.5-7.6,15.2-10.9,15.4-11.7c0.1-0.5,0-0.7-0.1-0.8c-0.1-0.2-1.1-1.1-5.4-1.1c-4.7,0-11.2,1.1-18,2.5
	C346.8,111.3,346.6,112.3,346.5,113.3z M341.2,128.5l-1.9-0.2c0,0-3.6-0.3-8.5-0.3c-5,0-11.7,0.3-17.1,1.6c1,2.2,0.8,4.8-0.8,6.8
	c-1.3,1.6-3.6,4.3-6.3,7.4c4.9-2,9.8-4.1,14.7-6.2C328.5,134.4,335.2,131.4,341.2,128.5L341.2,128.5z"/>
<path class="st3" d="M302.9,111.3c-13.7,6-43.7,17.5-71.6,17.5c-7.1,0-14-0.7-20.5-2.5c0.7,1,1.3,2.1,2,3.3
	c2.4,4.2,4.2,8.4,5.1,10.9c4.4,0.7,8.8,1,13.2,0.9c16,0,41-3.7,75.4-19.1c0.5-1.7,1.3-3.8,2.1-6.2l-0.2,0c-0.4,0-0.7,0-1.1-0.1
	C305.3,115.5,303.8,113.8,302.9,111.3z"/>
<path class="st2" d="M191.4,146.2c2.5,4.4,4.8,7.5,4.8,7.5c8.3-5.7,19.1-9.9,19.1-9.9s-0.3-0.8-0.8-2.2c-0.8-2.1-1.7-4.2-2.7-6.2
	c-0.4-0.9-0.9-1.8-1.4-2.7c-0.8-1.6-1.8-3.1-2.8-4.7c-3.3-5-7.6-9.2-12.3-9.2c-1.5,0-3,0.4-4.6,1.4c-8.7,5.3-4.2,17.3,0.3,25.4
	L191.4,146.2L191.4,146.2z M192.7,131.5c0.1-0.7,0.3-1.4,0.6-2c0.4-0.7,1.1-1.3,1.8-1.6l0.1-0.1l0.1,0l0.2-0.1l0.2,0l0.2,0
	c0.3,0,0.5-0.1,0.8-0.1l0.2,0l0.2,0c0.2,0,0.4,0.1,0.6,0.1c0.8,0.2,1.4,0.6,1.9,1c1,0.8,1.7,1.6,2.4,2.5c0.6,0.8,1.2,1.7,1.6,2.6
	c1.4,2.6,2.4,5.5,3,8.4c0.1,0.4,0.1,0.8,0.2,1l0,0.4c0,0-0.3-0.4-0.9-1.1c-0.5-0.7-1.3-1.7-2.1-2.9c-0.9-1.2-1.8-2.6-2.9-4
	c-0.5-0.7-1.1-1.4-1.7-2.1c-0.5-0.6-1.1-1.2-1.8-1.7c-0.2-0.2-0.5-0.3-0.7-0.4c0,0-0.1,0-0.1,0l0,0l0,0c0,0,0,0,0.1,0c0,0,0.1,0,0,0
	l-0.2,0l-0.1,0c-0.1,0-0.2,0.1-0.3,0.2c-0.1,0.2-0.2,0.4-0.3,0.6c-0.2,0.7-0.2,1.4-0.1,2.2c0.1,0.8,0.2,1.5,0.3,2.2
	c0.2,1.4,0.5,2.6,0.7,3.5c0.2,0.9,0.3,1.4,0.3,1.4s-0.1-0.1-0.3-0.3c-0.2-0.2-0.4-0.4-0.7-0.8c-0.8-1-1.4-2-2-3.2
	c-0.4-0.8-0.7-1.6-1-2.4C192.7,133.6,192.6,132.6,192.7,131.5z M195.5,117v1.8V117z"/>
<path class="st3" d="M311.8,91.2c0.4,0,0.7,0,1.1,0.1c2.7,0.6,4.5,3.1,5.1,6.7c5.1-7.1,10.6-10.7,16.5-10.7c2.5,0,4.7,0.6,6.5,1.7
	c3.1-3.8,5.1-6.4,5.1-6.4c-2.3,0.4-7.2,1.1-7.2,1.1c18.5-6.8,17-25.3,17-25.3c0,3.2-9.6,10.8-9.6,10.8c0.4-2.8-1.1-6.4-1.1-6.4
	c0.4,3.6-11.1,13-11.1,13c0.8-1.7,0.2-4.7,0.2-4.7c-0.6,3.4-5.7,4.7-5.7,4.7c3.2-3.8,9.1-24,4.7-25.3s-10.6,13.2-10.6,13.2
	c-0.2-3.4-2.1-3.4-2.1-3.4c0.9,10.6-7.7,19.1-7.7,19.1c-0.6-2.1-4-3.2-4-3.2c1.1,2.4-0.2,13.1-0.5,16.2
	C309.4,91.6,310.6,91.2,311.8,91.2L311.8,91.2z"/>
<path d="M307.3,111.8L307.3,111.8c0.1,0.1,0.2,0.2,0.3,0.3l0.1,0.1l0.2,0.1c0.2,0.1,0.4,0.1,0.6,0.2c0.1,0,0.2,0,0.4,0
	c0.7-0.2,1.3-0.5,1.8-1c1.1-2.6,2.3-5.1,3.6-7.5c0.9-4.8-0.3-8.8-2.1-9.2c-0.1,0-0.2,0-0.3,0c-1.8,0-4.5,3.2-5.6,8
	c-0.8,3.5-0.4,6.6,0.5,8.3v0C306.9,111.3,307.1,111.6,307.3,111.8L307.3,111.8z"/>
<ellipse transform="matrix(0.367 -0.9302 0.9302 0.367 116.159 376.2692)" class="st2" cx="334.6" cy="102.8" rx="0" ry="0"/>
<path class="st2" d="M334.6,102.8L334.6,102.8L334.6,102.8L334.6,102.8L334.6,102.8L334.6,102.8L334.6,102.8z"/>
<path class="st2" d="M334.4,90.9c-10.5,0-18.3,15.9-22.3,26.6c-1.1,2.8-2,5.7-2.9,8.6c0.5,0.1,1,0.3,1.5,0.5
	c6.1-1.8,14.1-2.3,20.1-2.3c5.1,0,8.8,0.3,8.8,0.3C341.1,122.5,350.4,90.9,334.4,90.9z M338.1,103.9c-0.1,1.1-0.4,2.2-0.8,3.2
	c-0.3,0.9-0.7,1.7-1.2,2.5c-0.7,1.2-1.4,2.3-2.3,3.4c-0.6,0.8-1,1.2-1,1.2s0.1-0.5,0.4-1.5c0.2-0.9,0.6-2.3,1-3.8
	c0.2-0.8,0.4-1.6,0.5-2.5c0.1-0.9,0.2-1.8,0.2-2.6c0-0.3-0.1-0.6-0.2-0.9c0,0,0-0.1-0.1-0.1h0l0,0l-0.1-0.1l-0.5-0.1
	c-0.2-0.1-0.4-0.1-0.6-0.1c-0.2,0-0.4,0-0.5,0c-0.2,0-0.4,0-0.5,0.1c-0.8,0.2-1.5,0.5-2.1,1c-0.7,0.5-1.3,1.2-1.9,1.9
	c-1.2,1.4-2.2,3-3,4.4c-0.8,1.4-1.5,2.6-1.9,3.4l-0.7,1.3c0,0,0-0.1,0-0.4c0-0.3,0-0.7,0.1-1.1c0.1-1,0.3-2.4,0.7-4
	c0.4-1.6,1.1-3.5,2.3-5.4c0.6-0.9,1.3-1.9,2.3-2.7c1-0.8,2.3-1.5,3.7-1.8c0.4,0,0.7-0.1,1.1-0.1c0.4,0,0.7,0,1.1,0.1
	c0.3,0.1,0.7,0.1,1,0.2l0.5,0.2l0.2,0.1l0,0h0l0.2,0.1l0,0l0.1,0c0.1,0,0.9,0.5,1.2,0.9l0.2,0.3l0.2,0.3c0.1,0.2,0.2,0.4,0.3,0.6
	C338.1,102.5,338.1,103.2,338.1,103.9z"/>
<path d="M278.1,161.5c1.7,0,3.6-0.5,5.6-1.4c4.2-1.9,14.4-12.2,26.1-26.2c0.9-1,0.7-2.6-0.3-3.5c0,0,0,0,0,0
	c-1.1-0.9-2.6-0.7-3.5,0.3c-5.1,6.1-19.3,22.5-24.2,24.8l-0.1,0c-0.8,0.4-1.7,0.7-2.6,0.8l-1.9,0.3l-1.4-1.3
	c-0.8-0.8-2.1-0.9-3.1-0.3c-1.2,0.7-1.5,2.3-0.8,3.4c0,0,0,0,0,0C272.2,158.9,274,161.5,278.1,161.5L278.1,161.5z M254.4,162.1
	c-0.4,0-0.8,0.1-1.2,0.3l-0.7,0.4l-0.8,0c-0.2,0-0.4,0-0.6,0c-2.3,0-8.1-0.7-20.3-5.7c-13.5-5.4-18.8-6.3-20.8-6.3
	c-0.2,0-0.5,0-0.7,0c-1.4,0.2-2.3,1.5-2,2.9c0,0,0,0,0,0c0.2,1.2,1.3,2.1,2.6,2.1l0.3,0l0.3,0c1.5,0.1,6.3,0.9,18.5,5.9
	c9.9,4,17.4,6,22.2,6c2.6,0,4.3-0.5,5.2-1.6c0.9-1,0.7-2.6-0.3-3.5c0,0,0,0,0,0C255.5,162.3,254.9,162.1,254.4,162.1z"/>
<path class="st3" d="M288.2,214.2c0,0-0.7,8.3-12.3,10c-1.9,0.3-3.8,0.4-5.7,0.5c-6.2,0-8.6-2-10-3.8c0,0-11.1,3.8-12,10.1
	c-0.6,4.8,4,7.2,8,7.2c1.4,0,2.7-0.3,3.7-0.8c4-2.2,10.1-7.1,18.2-8.2c0.7-0.1,1.7-0.1,2.9-0.1c2.8,0,6.5,0.2,10.2,0.2
	c4.2,0,8.2-0.2,10.4-1.2c5-2.2,5-6.1,4.7-8C305.8,217.9,300.7,214.3,288.2,214.2z"/>
<path class="st1" d="M274.6,221l0.4-0.1l0.5-0.1c6-1.2,10.5-4.7,10.5-8.2c0-0.7-0.2-1.4-0.5-2c-1.6-2.9-6.6-4.5-12.3-3.8
	c-0.3,0-0.6,0.1-0.9,0.1c-6.9,1.1-12,5.2-11.3,9.1c0,0.2,0.1,0.4,0.2,0.7C262.3,220.1,268.1,222,274.6,221L274.6,221z M216.2,369.5
	c0,1.6-0.4,3.2-1.1,4.5c-1.6,3.1-4.4,4.7-8.4,4.7c-2.6,0-4.7-0.8-6.1-2.2c-2.3-2.4-2.2-6-2.2-6.1l-1.7-0.1c0,0.2-0.2,4.4,2.7,7.3
	c1.7,1.8,4.2,2.7,7.3,2.7c5.8,0,8.6-3.1,9.9-5.6c0.8-1.7,1.3-3.5,1.2-5.3v-32.7h-1.7C216.2,336.9,216.2,369.5,216.2,369.5z
	 M239,336.9c-0.4,0-0.8,0.3-1,0.7L224,380h1.8l4.1-12h18.3l4.1,12h1.8L240,337.6C239.9,337.2,239.5,336.9,239,336.9z M230.5,366.3
	l8.6-26.2l8.6,26.2H230.5z M262.2,379.9h20.5v-1.7h-18.8v-19.1h17.7v-1.7h-17.7v-19.1h18.8v-1.7h-20.5V379.9z M317.7,348.3
	c0-0.2,0.2-4.9-3.1-8.3c-2.2-2.3-5.4-3.4-9.4-3.4c-4.1,0-7.3,1.2-9.4,3.4c-3.3,3.4-3.1,8-3.1,8.2v20.9c0,2.5,0.7,4.9,2,6.8
	c1.6,2.3,4.7,5.1,10.5,5.1c1.9,0,3.7-0.2,5.2-0.6c4.4-1.1,7.4-5,7.4-9.5v-10.5h-10.8v1.7h9.1v8.8c0,3.7-2.5,7-6.1,7.9
	c-1.6,0.4-3.2,0.5-4.8,0.5c-4.1,0-7.1-1.5-9.1-4.4c-1.1-1.7-1.8-3.8-1.7-5.9v-21c0,0-0.1-4.1,2.6-7c1.9-1.9,4.6-2.9,8.2-2.9
	c3.6,0,6.3,1,8.2,2.9c2.8,2.9,2.7,7.1,2.7,7.1L317.7,348.3L317.7,348.3z M329,379.9h20.7v-1.7h-19v-19.1h17.4v-1.7h-17.4v-19.1h19
	v-1.7H329V379.9z M384.6,380l-9.2-18.7c1.8-0.5,3.4-1.3,4.6-2.6c1.9-1.8,2.8-4.5,2.8-7.9c0-8.4-4.3-12.3-6.9-13.5
	c-1.2-0.5-2.5-0.8-3.8-0.8h-12.3v43.4h1.7v-17.8c0.7,0,1.4,0,2.2,0c3.3,0.1,6.8,0.1,10-0.4l9,18.3L384.6,380L384.6,380z
	 M363.8,360.4c-0.7,0-1.5,0-2.2,0v-22.2h10.7c1.1,0,2.2,0.2,3.1,0.7c2.7,1.2,5.9,4.8,5.9,11.9c0,3-0.8,5.2-2.3,6.7
	C375.7,360.7,369.4,360.6,363.8,360.4z"/>
</svg>
