<?xml version="1.0" encoding="utf-8"?>
<!-- Uploaded to: SVG Repo, www.svgrepo.com, Generator: SVG Repo Mixer Tools -->
<svg fill="#000000" width="800px" height="800px" viewBox="0 0 32 32" version="1.1" xmlns="http://www.w3.org/2000/svg">
<title>java</title>
<path d="M13.168 30.901c5.401 0.346 13.695-0.191 13.891-2.747 0 0-0.377 0.968-4.464 1.738-2.257 0.407-4.855 0.639-7.508 0.639-2.173 0-4.309-0.156-6.398-0.457l0.239 0.028c0-0.001 0.691 0.571 4.24 0.799zM19 1.004s3.117 3.117-2.955 7.91c-4.869 3.845-1.11 6.038-0.001 8.543-2.842-2.566-4.927-4.821-3.529-6.922 2.054-3.085 7.744-4.58 6.486-9.531zM22.393 22.978c5.627-2.924 3.025-5.735 1.21-5.355-0.249 0.047-0.465 0.107-0.674 0.182l0.030-0.009c0.119-0.167 0.283-0.296 0.474-0.369l0.007-0.002c3.593-1.263 6.356 3.725-1.16 5.701 0.046-0.041 0.084-0.090 0.111-0.145l0.001-0.003zM12.616 17.512s-5.451 1.295-1.929 1.764c0.948 0.078 2.052 0.122 3.166 0.122 1.424 0 2.831-0.073 4.218-0.214l-0.174 0.014c2.257-0.19 4.521-0.596 4.521-0.596-0.531 0.232-0.982 0.477-1.409 0.756l0.037-0.022c-5.535 1.456-16.228 0.779-13.149-0.71 1.357-0.703 2.963-1.115 4.665-1.115 0.019 0 0.038 0 0.057 0h-0.003zM25.16 26.627s0.849 0.699-0.933 1.238c-3.389 1.027-14.106 1.336-17.081 0.041-1.070-0.466 0.937-1.112 1.567-1.247 0.291-0.074 0.626-0.117 0.97-0.117 0.023 0 0.045 0 0.068 0.001l-0.003-0c-1.191-0.839-7.693 1.646-3.303 2.358 11.972 1.941 21.821-0.875 18.716-2.274zM17.395 15.344c0.314 0.377 0.505 0.868 0.505 1.402 0 0.719-0.346 1.358-0.88 1.759l-0.006 0.004s3.673-1.897 1.986-4.271c-1.576-2.214-2.784-3.314 3.758-7.108 0-0.001-10.267 2.563-5.363 8.214zM11.346 20.915s-1.285 0.951 0.677 1.155c0.859 0.108 1.852 0.169 2.86 0.169 1.826 0 3.605-0.202 5.315-0.585l-0.162 0.030c0.344 0.322 0.755 0.578 1.209 0.744l0.025 0.008c-7.097 2.076-15.004 0.162-9.925-1.522zM12.065 24.198s-1.146 0.667 0.816 0.892c0.719 0.107 1.548 0.168 2.392 0.168 1.354 0 2.671-0.157 3.934-0.455l-0.116 0.023c0.467 0.285 1.010 0.557 1.577 0.782l0.074 0.026c-5.872 2.516-13.287-0.147-8.676-1.436z"></path>
</svg>