<?xml version="1.0" encoding="UTF-8" standalone="no"?>
<!-- Created with Inkscape (http://www.inkscape.org/) -->

<svg
   width="33.543682mm"
   height="25.364197mm"
   viewBox="0 0 33.543682 25.364196"
   version="1.1"
   id="svg1"
   xml:space="preserve"
   sodipodi:docname="logo-color (copy).svg"
   inkscape:version="1.1.2 (0a00cf5339, 2022-02-04)"
   xmlns:inkscape="http://www.inkscape.org/namespaces/inkscape"
   xmlns:sodipodi="http://sodipodi.sourceforge.net/DTD/sodipodi-0.dtd"
   xmlns="http://www.w3.org/2000/svg"
   xmlns:svg="http://www.w3.org/2000/svg"><sodipodi:namedview
     id="namedview16"
     pagecolor="#ffffff"
     bordercolor="#666666"
     borderopacity="1.0"
     inkscape:pageshadow="2"
     inkscape:pageopacity="0.0"
     inkscape:pagecheckerboard="0"
     inkscape:document-units="mm"
     showgrid="false"
     inkscape:zoom="6.7321702"
     inkscape:cx="86.079226"
     inkscape:cy="50.429503"
     inkscape:window-width="1640"
     inkscape:window-height="986"
     inkscape:window-x="40"
     inkscape:window-y="27"
     inkscape:window-maximized="1"
     inkscape:current-layer="svg1" /><defs
     id="defs1" /><g
     id="layer1"
     style="fill:#2a1e5c;fill-opacity:1"
     transform="translate(-36.805067,-38.343754)"><g
       id="g32"
       transform="translate(6.7818998,17.224897)"
       style="fill:#2a1e5c;fill-opacity:1"><path
         style="fill:#2a1e5c;fill-opacity:1;stroke-width:0.595986"
         d="m 70.9578,43.647568 c -0.24665,-0.0611 -0.45348,-0.23592 -0.5425,-0.45839 -0.0736,-0.18384 -0.0814,-0.87747 -0.0814,-7.17529 0,-6.94827 3.5e-4,-6.972514 0.1045,-7.187653 0.0613,-0.126719 0.18117,-0.263546 0.29015,-0.331309 0.18458,-0.114775 0.19617,-0.115437 2.02744,-0.115437 1.75689,0 1.84993,0.0048 2.01841,0.102075 0.29695,0.171632 0.40368,0.455411 0.40368,1.073407 0,0.287837 0.017,0.515665 0.0378,0.506284 0.0208,-0.0094 0.2751,-0.173575 0.56508,-0.364881 1.74691,-1.152458 3.21665,-1.594418 5.30221,-1.594418 0.52806,0 0.60664,0.0118 0.75612,0.113536 0.37735,0.256822 0.37623,0.252001 0.39305,1.692797 0.0176,1.506677 -0.007,1.635905 -0.35767,1.867386 l -0.20597,0.136028 -1.08816,-0.02521 c -2.46507,-0.05715 -2.58872,-0.04428 -3.40933,0.354755 -0.52039,0.25306 -0.89245,0.53593 -1.50119,1.14135 l -0.49198,0.48932 -10e-4,4.57052 c -0.001,4.34677 -0.006,4.58064 -0.095,4.77718 -0.0579,0.12736 -0.16874,0.25321 -0.28904,0.32799 l -0.19518,0.12134 -1.74088,0.009 c -0.95748,0.005 -1.81206,-0.009 -1.89908,-0.0303 z"
         id="path22" /><path
         style="fill:#2a1e5c;fill-opacity:1;stroke-width:0.595986"
         d="m 169.26102,43.890588 c -1.92257,-0.20215 -3.49682,-0.8721 -4.65971,-1.98302 -1.14538,-1.0942 -1.81157,-2.49298 -2.05376,-4.31222 -0.0955,-0.71739 -0.0944,-2.36437 0.002,-3.10006 0.48475,-3.697924 2.89732,-5.93981 6.83043,-6.34722 0.84078,-0.08709 2.49272,-0.03439 3.28272,0.104691 1.22192,0.215151 2.28761,0.624194 3.16006,1.212921 0.51094,0.344778 1.17145,0.977733 1.54929,1.484667 0.33837,0.453969 0.78003,1.324836 0.96843,1.909591 0.28351,0.87987 0.46165,2.33859 0.42489,3.47917 -0.0201,0.62277 -0.0876,0.81234 -0.36213,1.01702 -0.14225,0.10604 -0.15059,0.10623 -5.57585,0.13143 l -5.4334,0.0252 0.016,0.22707 c 0.0293,0.41635 0.21272,1.08035 0.41235,1.49308 0.34359,0.71036 0.92065,1.15467 1.8072,1.39146 0.59624,0.15925 1.89182,0.18632 2.53606,0.053 0.7064,-0.14618 1.00348,-0.30593 1.49446,-0.80358 0.31069,-0.31492 0.50311,-0.46306 0.75868,-0.58412 l 0.34243,-0.16219 1.4219,-0.0155 c 1.34515,-0.0147 1.43272,-0.01 1.62226,0.0867 0.31855,0.16251 0.41236,0.36412 0.41236,0.88615 0,0.82745 -0.26301,1.48888 -0.82949,2.08607 -0.93271,0.98327 -2.54231,1.53549 -5.02389,1.72358 -0.78995,0.0599 -2.517,0.0576 -3.1033,-0.004 z m 4.56627,-9.49372 c -0.001,-0.55594 -0.25913,-1.44229 -0.54961,-1.88935 -0.3456,-0.531913 -0.74248,-0.832201 -1.39273,-1.053795 -0.5324,-0.181436 -1.54845,-0.229657 -2.17077,-0.103028 -1.35613,0.275954 -2.1851,1.287463 -2.32558,2.837673 l -0.0337,0.37249 h 3.23641 3.23641 z"
         id="path21" /><path
         style="fill:#2a1e5c;fill-opacity:1;stroke-width:0.595986"
         d="m 155.61155,43.916488 c -2.79678,-0.33404 -4.31526,-1.6634 -4.84589,-4.24233 -0.18794,-0.91339 -0.20533,-1.70958 -0.18983,-8.696016 0.0166,-7.49883 -0.0124,-6.912093 0.35478,-7.173976 0.16443,-0.117284 0.16841,-0.117546 2.03437,-0.131856 l 1.86962,-0.01436 0.16938,0.115258 c 0.0932,0.06339 0.21688,0.179356 0.27494,0.257687 0.10329,0.139347 0.10586,0.196085 0.11954,2.634437 l 0.014,2.492027 2.08011,0.01472 c 1.97487,0.01395 2.08878,0.01985 2.25145,0.115634 0.0942,0.05549 0.21912,0.164969 0.27754,0.243245 0.0994,0.133305 0.10715,0.214955 0.12136,1.288093 0.0149,1.124841 0.0131,1.148883 -0.10092,1.316379 -0.0639,0.09384 -0.18017,0.218108 -0.2585,0.276168 -0.13841,0.1026 -0.20185,0.10596 -2.26071,0.11977 l -2.1183,0.0142 0.0174,2.93771 c 0.0193,3.25583 0.0118,3.17562 0.36543,3.90022 0.31974,0.6551 0.9905,1.13804 1.69915,1.22335 0.21468,0.0259 0.66313,0.009 1.30741,-0.0491 1.36198,-0.1228 1.63867,-0.11985 1.91314,0.0204 0.41278,0.21093 0.42778,0.25828 0.44552,1.40693 0.0154,0.99417 0.0138,1.01185 -0.10859,1.22066 -0.21615,0.36885 -0.48086,0.46278 -1.74879,0.62058 -0.55264,0.0688 -3.29959,0.136 -3.68359,0.0901 z"
         id="path20" /><path
         style="fill:#2a1e5c;fill-opacity:1;stroke-width:0.595986"
         d="m 136.18439,43.864208 c -2.72529,-0.36943 -4.58709,-1.7699 -4.99757,-3.75922 -0.10972,-0.53175 -0.12987,-1.38726 -0.045,-1.91104 0.33738,-2.08227 2.10223,-3.47697 4.95745,-3.91769 0.40392,-0.0623 1.12538,-0.0848 3.36785,-0.10479 l 2.85382,-0.0255 -0.018,-0.30982 c -0.067,-1.15375 -0.42429,-1.8763 -1.08727,-2.198859 -0.52209,-0.25401 -0.84144,-0.316356 -1.75137,-0.341924 -1.37505,-0.03862 -1.92056,0.137339 -2.66904,0.86098 -0.79897,0.772443 -0.89341,0.799483 -2.72234,0.779423 -1.28542,-0.0141 -1.37105,-0.0209 -1.50235,-0.11899 -0.26947,-0.20136 -0.34436,-0.35473 -0.36317,-0.743734 -0.0488,-1.007711 0.45836,-2.017688 1.32006,-2.629044 1.21314,-0.8607 2.94372,-1.268408 5.63533,-1.327643 2.26858,-0.04994 3.64212,0.189589 5.00158,0.872148 1.59381,0.800213 2.42054,1.852445 2.85173,3.629543 0.077,0.31755 0.0875,0.86559 0.10395,5.42662 l 0.0182,5.0734 -0.11574,0.17173 c -0.0636,0.0945 -0.19512,0.21838 -0.29217,0.27539 -0.16805,0.0987 -0.25317,0.10364 -1.79116,0.10364 -1.59468,0 -1.61703,-10e-4 -1.80037,-0.11543 -0.2481,-0.15427 -0.39465,-0.46398 -0.39465,-0.83401 0,-0.15776 -0.0107,-0.28683 -0.0237,-0.28683 -0.013,0 -0.17764,0.0993 -0.36584,0.22068 -0.99016,0.63858 -2.09823,1.04139 -3.34185,1.21484 -0.69625,0.0971 -2.09749,0.0952 -2.82847,-0.004 z m 3.48625,-3.2415 c 0.81947,-0.18842 1.86617,-0.61142 2.5069,-1.01309 l 0.16499,-0.10344 -0.0136,-1.07241 -0.0137,-1.07241 -2.42209,2.4e-4 c -2.40376,2.4e-4 -2.42454,10e-4 -2.7459,0.11691 -0.79062,0.28487 -1.21523,0.8341 -1.21523,1.57192 0,0.78889 0.51672,1.38849 1.41289,1.63951 0.39072,0.10944 1.72509,0.0709 2.32567,-0.0672 z"
         id="path19" /><path
         style="fill:#2a1e5c;fill-opacity:1;stroke-width:0.595986"
         d="m 123.90162,43.871208 c -2.5307,-0.3627 -3.97527,-1.72049 -4.5353,-4.26286 -0.10459,-0.4748 -0.10621,-0.57958 -0.12226,-7.924042 -0.0157,-7.196056 -0.0131,-7.448731 0.0783,-7.619481 0.052,-0.09714 0.18301,-0.227333 0.29113,-0.289321 0.19333,-0.110836 0.22659,-0.112719 2.00629,-0.113536 1.75058,-5.96e-4 1.8159,0.003 1.99984,0.106044 0.10458,0.05876 0.23824,0.192432 0.29702,0.297016 0.10477,0.186418 0.10686,0.238168 0.10686,2.641101 v 2.450957 l 2.08149,0.01472 c 1.99466,0.01412 2.08884,0.01901 2.25792,0.118369 0.097,0.05698 0.22761,0.179577 0.29014,0.272378 0.1096,0.162627 0.11371,0.209763 0.11371,1.303285 0,1.063895 -0.007,1.145211 -0.10579,1.305722 -0.21364,0.345688 -0.19234,0.342548 -2.51814,0.370578 l -2.0941,0.0252 -0.0145,2.54824 c -0.0154,2.70948 0.0155,3.30264 0.20163,3.86959 0.2228,0.67869 0.74276,1.25638 1.32788,1.47531 0.4792,0.17929 0.77365,0.19398 1.86752,0.0932 0.55411,-0.0511 1.19535,-0.0847 1.42495,-0.0748 0.46094,0.0198 0.60122,0.0875 0.8062,0.38866 0.10849,0.1594 0.11353,0.21213 0.11353,1.18632 0,0.97764 -0.005,1.02653 -0.11502,1.19021 -0.22535,0.33438 -0.51701,0.43214 -1.72677,0.57874 -0.93518,0.11333 -3.37511,0.14261 -4.03253,0.0484 z"
         id="path18" /><path
         style="fill:#2a1e5c;fill-opacity:1;stroke-width:0.595986"
         d="m 107.0941,43.893108 c -3.47096,-0.28208 -5.36498,-1.34362 -5.75758,-3.22693 -0.15288,-0.73339 -0.0625,-1.16287 0.30213,-1.43499 0.13346,-0.0996 0.20312,-0.10404 1.63795,-0.10404 h 1.49857 l 0.33576,0.16532 c 0.23439,0.11541 0.44734,0.27977 0.70532,0.5444 0.44539,0.45685 0.64797,0.58193 1.23357,0.7617 0.43201,0.13261 0.49019,0.13761 1.63378,0.14041 0.9354,0.002 1.26609,-0.015 1.56598,-0.082 0.95564,-0.21351 1.37157,-0.49162 1.51455,-1.01272 0.11567,-0.42154 -0.20465,-0.86601 -0.82698,-1.14747 -0.48216,-0.21807 -1.50431,-0.5292 -2.41199,-0.73417 -3.22825,-0.729 -4.44414,-1.13926 -5.41741,-1.82794 -1.31274,-0.92887 -1.84596,-1.89293 -1.84853,-3.34208 -0.001,-0.782779 0.0927,-1.23363 0.38448,-1.841805 0.67204,-1.400907 2.23347,-2.238154 4.76919,-2.557251 0.80188,-0.100913 3.76553,-0.08547 4.63021,0.02414 3.32816,0.421833 4.98867,1.59468 5.09527,3.598851 0.0247,0.464881 0.0169,0.528805 -0.0866,0.713105 -0.0638,0.1135 -0.19959,0.25067 -0.30907,0.3122 -0.18974,0.10664 -0.23578,0.10932 -1.62139,0.0943 l -1.42611,-0.0155 -0.3457,-0.16373 c -0.25764,-0.12202 -0.44412,-0.26483 -0.73209,-0.560638 -0.42666,-0.438282 -0.70071,-0.601469 -1.30346,-0.776153 -0.35651,-0.103314 -0.49986,-0.114155 -1.50419,-0.113702 -1.00116,4.47e-4 -1.14887,0.01168 -1.50488,0.114393 -0.21712,0.06264 -0.47825,0.156935 -0.58029,0.209537 -0.22865,0.117868 -0.48943,0.384989 -0.56089,0.574525 -0.0763,0.202438 -0.0662,0.570198 0.0203,0.737498 0.26299,0.50856 1.39402,0.95431 3.66018,1.44253 3.26978,0.70444 4.55102,1.23162 5.6663,2.33148 0.54983,0.54224 0.80957,0.9908 0.99893,1.72511 0.12443,0.48249 0.13187,1.46642 0.015,1.98776 -0.16524,0.73732 -0.6091,1.47345 -1.1698,1.94007 -0.93038,0.77427 -2.12342,1.20682 -4.0153,1.45577 -0.72255,0.0951 -3.38734,0.13784 -4.24525,0.0681 z"
         id="path17" /><path
         style="fill:#2a1e5c;fill-opacity:1;stroke-width:0.595986"
         d="m 90.03856,43.893778 c -1.95773,-0.22307 -3.5093,-0.88554 -4.66088,-1.99004 -1.18696,-1.13843 -1.85012,-2.58385 -2.07958,-4.53261 -0.0911,-0.77335 -0.0347,-2.64512 0.10136,-3.36569 0.28636,-1.51664 0.93486,-2.803529 1.8915,-3.753507 1.21102,-1.202581 2.80161,-1.890325 4.86657,-2.104225 0.84078,-0.08709 2.49272,-0.03439 3.28271,0.104691 2.46128,0.433377 4.26449,1.660138 5.23915,3.564314 0.59325,1.159017 0.8693,2.533827 0.87049,4.335207 3.8e-4,0.58256 -0.0126,0.68365 -0.11311,0.88265 -0.0625,0.1236 -0.19069,0.27601 -0.28499,0.33868 l -0.17146,0.11394 h -5.3888 c -2.96384,0 -5.39928,0.017 -5.41209,0.0379 -0.039,0.0633 0.10396,0.85326 0.21876,1.2086 0.17273,0.53468 0.345,0.82431 0.70133,1.17916 0.36894,0.36741 0.69464,0.54546 1.30758,0.71482 0.54291,0.15003 2.2298,0.16283 2.73476,0.0207 0.57914,-0.16293 0.85197,-0.32511 1.28495,-0.76384 0.29446,-0.29835 0.50183,-0.45827 0.75742,-0.58411 l 0.35195,-0.17328 1.42318,-0.0155 c 1.34643,-0.0147 1.43398,-0.01 1.62352,0.0867 0.1102,0.0562 0.25085,0.18392 0.31258,0.28379 0.10343,0.16736 0.1102,0.22578 0.0864,0.74586 -0.0297,0.65028 -0.14088,1.02822 -0.43631,1.4838 -0.72674,1.1207 -2.11432,1.77294 -4.44495,2.08939 -0.8369,0.11364 -3.37035,0.17134 -4.06205,0.0925 z m 4.55197,-9.68302 c -0.0678,-0.80836 -0.36143,-1.56789 -0.78471,-2.029638 -0.56489,-0.616243 -1.16009,-0.850675 -2.25345,-0.887578 -0.60105,-0.02026 -0.77333,-0.0079 -1.15478,0.08319 -0.88403,0.211062 -1.46692,0.659911 -1.84099,1.417656 -0.21306,0.43157 -0.40825,1.18298 -0.40963,1.57689 l -5.9e-4,0.18922 h 3.23677 3.23677 z"
         id="path16" /></g><g
       id="g22"
       transform="translate(8.1137076,15.393352)"
       style="fill:#2a1e5c;fill-opacity:1"><path
         style="fill:#2a1e5c;fill-opacity:1;stroke-width:0.595986"
         d="m 45.91115,46.475418 c -0.37765,-0.12135 -0.63705,-0.29469 -0.94458,-0.63118 -0.37906,-0.41475 -0.4911,-0.73262 -0.49117,-1.39354 -4e-5,-0.43975 0.019,-0.57145 0.1117,-0.77453 0.29718,-0.65067 0.0341,-0.45699 6.06658,-4.46555 3.06711,-2.03806 5.59454,-3.72148 5.61651,-3.74094 0.0038,-0.0033 -0.06561,-0.05398 -0.198487,-0.145546 -0.641404,-0.442027 -2.762107,-1.83766 -5.273363,-3.467872 -3.158463,-2.050354 -5.61178,-3.675709 -5.74599,-3.806778 -0.12998,-0.126934 -0.31101,-0.384692 -0.40676,-0.579174 -0.16368,-0.332423 -0.1725,-0.377748 -0.17134,-0.881398 0.001,-0.43498 0.0223,-0.583709 0.11781,-0.822842 0.13425,-0.336077 0.55762,-0.82264 0.87974,-1.011049 0.5181,-0.303041 1.183659,-0.367495 1.75131,-0.169606 0.112763,0.03931 1.029059,0.609191 2.350955,1.451032 4.043149,2.574853 11.88069,7.693905 12.126435,7.957503 0.1223,0.13121 0.29261,0.38616 0.37845,0.56655 0.14386,0.30235 0.15606,0.36962 0.15606,0.86044 0,0.51462 -0.006,0.54542 -0.19134,0.91961 -0.13676,0.27671 -0.26633,0.45218 -0.45415,0.61504 -0.14454,0.12534 -3.36231,2.28789 -7.15061,4.80568 -5.32539,3.53939 -6.96221,4.6037 -7.2158,4.69198 -0.40305,0.1403 -0.9173,0.14898 -1.31196,0.0222 z"
         id="path15" /><path
         style="fill:#2a1e5c;fill-opacity:1;stroke-width:0.595986"
         d="m 30.15932,48.242548 c -0.37039,-0.12266 -0.5686,-0.24885 -0.85892,-0.54682 -0.26052,-0.26739 -0.46223,-0.63088 -0.54187,-0.97646 -0.0346,-0.15013 -0.0522,-3.84187 -0.0531,-11.10112 -0.001,-11.870698 -0.0182,-11.172518 0.28127,-11.683457 0.1947,-0.332226 0.55579,-0.661336 0.92506,-0.843123 0.31041,-0.152811 0.36133,-0.162139 0.88547,-0.162139 0.46815,0 0.59455,0.01776 0.79907,0.112141 0.0441,0.02036 0.208781,0.115397 0.473224,0.272329 2.827878,1.67818 17.064318,10.433968 17.256616,10.624309 0.270828,0.268072 0.49922,0.72028 0.57699,1.14234 0.11861,0.64372 -0.11014,1.35282 -0.58596,1.81643 -0.31647,0.30835 -8.83159,6.30704 -9.20898,6.48749 -0.24769,0.11844 -0.3372,0.13271 -0.83259,0.13271 -0.5185,0 -0.57727,-0.0105 -0.89212,-0.15968 -0.46934,-0.22235 -0.76134,-0.50831 -0.98829,-0.96784 -0.18324,-0.371 -0.18846,-0.39703 -0.18846,-0.93899 0,-0.52151 0.0103,-0.5792 0.16018,-0.89554 0.0881,-0.18596 0.25885,-0.43574 0.37945,-0.55506 0.1206,-0.11932 1.57404,-1.16957 3.22988,-2.33389 2.55705,-1.79802 2.99782,-2.12569 2.92569,-2.175 -0.33137,-0.22652 -10.91764,-6.683137 -10.95768,-6.683137 -0.0338,0 -0.0552,3.00352 -0.0639,8.994527 l -0.0132,8.99452 -0.16113,0.34014 c -0.204,0.43065 -0.55101,0.78006 -0.98873,0.99554 -0.29416,0.14481 -0.40113,0.16947 -0.80571,0.1857 -0.35943,0.0144 -0.53212,-0.003 -0.75231,-0.0759 z"
         id="path4" /></g></g></svg>
