<?xml version="1.0" encoding="utf-8"?>
<!-- Generator: Adobe Illustrator 26.0.3, SVG Export Plug-In . SVG Version: 6.00 Build 0)  -->
<svg version="1.0" id="katman_1" xmlns="http://www.w3.org/2000/svg" xmlns:xlink="http://www.w3.org/1999/xlink" x="0px" y="0px"
	 viewBox="0 0 600 450" style="enable-background:new 0 0 600 450;" xml:space="preserve">
<style type="text/css">
	.st0{fill:#F5A905;}
	.st1{fill:#445BA6;}
</style>
<path class="st0" d="M148.2,233.3c-7.2,7.2-7.2,18.8,0,26c7.2,7.2,19,7.2,26.2,0c7.2-7.2,7.2-18.8,0-26
	C167.1,226.1,155.4,226.1,148.2,233.3z M167.8,252.7c-3.6,3.5-9.4,3.5-13,0c-3.6-3.5-3.6-9.3,0-12.9c3.6-3.5,9.4-3.5,13,0
	C171.3,243.4,171.3,249.2,167.8,252.7z M185.3,237h7.8v3.9c1.9-2.6,4.5-4.4,8.5-4.4c6.4,0,12.5,5,12.5,14.1v0.1
	c0,9.1-6,14.1-12.5,14.1c-4.2,0-6.7-1.9-8.5-4.1v11.7h-7.8V237z M206.3,250.7L206.3,250.7c0-4.6-3.1-7.6-6.7-7.6
	c-3.6,0-6.6,3-6.6,7.5v0.1c0,4.5,3,7.5,6.6,7.5C203.2,258.1,206.3,255.2,206.3,250.7z M219.5,250.7L219.5,250.7
	c0-7.8,5.5-14.2,13.5-14.2c9.1,0,13.3,7,13.3,14.7c0,0.6,0,1.3-0.1,2h-19c0.7,3.5,3.2,5.3,6.7,5.3c2.6,0,4.5-0.8,6.6-2.8l4.4,3.9
	c-2.5,3.1-6.2,5.1-11.1,5.1C225.6,264.7,219.5,259,219.5,250.7z M238.7,248.4c-0.4-3.4-2.5-5.8-5.7-5.8c-3.2,0-5.3,2.3-5.9,5.8
	H238.7z M251.8,237h7.9v3.9c1.8-2.3,4.2-4.4,8.2-4.4c6,0,9.5,3.9,9.5,10.3v17.9h-7.9v-15.4c0-3.7-1.8-5.6-4.8-5.6
	c-3,0-4.9,1.9-4.9,5.6v15.4h-7.9L251.8,237L251.8,237z M174.1,142.8L162.7,154c-2.2,2.2-2.2,5.8,0,8l44.3,44c2.2,2.2,5.8,2.2,8.1,0
	l11.3-11.3c2.2-2.2,2.2-5.8,0-8l-44.3-44C179.9,140.6,176.3,140.6,174.1,142.8z M94.7,286.8c2-2,2-5.3,0-7.3l-5.8-5.8
	c-2-2-5.3-2-7.3,0l-11.9,11.8l-3.3-3.2c-1.8-1.8-4.8-1.8-6.5,0c-1.8,1.8-1.8,4.7,0,6.5l19.6,19.5c1.8,1.8,4.8,1.8,6.5,0
	c1.8-1.8,1.8-4.7,0-6.5l-3.3-3.2L94.7,286.8z"/>
<path class="st1" d="M154.6,175.1l-25.2,25c-2.2,2.2-2.2,5.9,0,8.1l15.5,15.4c11-7.9,26.4-6.9,36.3,3l12.6-12.5
	c2.2-2.2,2.2-5.9,0-8.1l-31.1-30.9C160.5,172.9,156.9,172.9,154.6,175.1z M138.4,230.3l-9.2-9.2c-2.1-2.1-5.7-2.1-7.8,0L89,253.3
	c-2.1,2.1-2.1,5.7,0,7.8l18.4,18.3c2.1,2.1,5.7,2.1,7.8,0l20.8-20.7C131.7,249.5,132.5,238.6,138.4,230.3z M292,235.3h-11.3v-7.5
	h30.7v7.5h-11.3v29.4H292V235.3z M311.5,250.7L311.5,250.7c0-7.8,5.5-14.2,13.5-14.2c9.1,0,13.3,7,13.3,14.7c0,0.6-0.1,1.3-0.1,2
	h-19c0.7,3.5,3.2,5.3,6.7,5.3c2.6,0,4.5-0.8,6.6-2.8l4.4,3.9c-2.5,3.1-6.2,5.1-11.1,5.1C317.5,264.7,311.5,259,311.5,250.7z
	 M330.7,248.4c-0.4-3.4-2.5-5.8-5.7-5.8c-3.2,0-5.3,2.3-5.9,5.8H330.7z M343.7,227.8h7.7v36.8h-7.7V227.8z M356.9,250.7L356.9,250.7
	c0-7.8,5.5-14.2,13.5-14.2c9.1,0,13.3,7,13.3,14.7c0,0.6,0,1.3-0.1,2h-19c0.7,3.5,3.2,5.3,6.7,5.3c2.6,0,4.5-0.8,6.6-2.8l4.4,3.9
	c-2.5,3.1-6.2,5.1-11.1,5.1C363,264.7,356.9,259,356.9,250.7z M376.2,248.5c-0.4-3.4-2.5-5.8-5.7-5.8c-3.2,0-5.3,2.3-5.9,5.8H376.2z
	 M389.2,237h7.9v3.9c1.8-2.3,4.2-4.4,8.2-4.4c3.6,0,6.4,1.6,7.8,4.4c2.4-2.9,5.3-4.4,9.2-4.4c5.9,0,9.4,3.5,9.4,10.2v18h-7.9v-15.4
	c0-3.7-1.7-5.6-4.6-5.6c-3,0-4.8,1.9-4.8,5.6v15.4h-7.9v-15.4c0-3.7-1.7-5.6-4.6-5.6c-3,0-4.8,1.9-4.8,5.6v15.4h-7.9L389.2,237
	L389.2,237z M437.2,250.7L437.2,250.7c0-7.8,5.5-14.2,13.5-14.2c9.1,0,13.3,7,13.3,14.7c0,0.6,0,1.3-0.1,2h-18.9
	c0.7,3.5,3.2,5.3,6.7,5.3c2.6,0,4.5-0.8,6.6-2.8l4.4,3.9c-2.5,3.1-6.2,5.1-11.1,5.1C443.2,264.7,437.2,259,437.2,250.7z
	 M456.4,248.4c-0.4-3.4-2.5-5.8-5.7-5.8c-3.2,0-5.3,2.3-5.9,5.8H456.4z M470.3,256.3v-13.2h-3.4v-6.8h3.4v-7.1h8v7.1h6.6v6.8h-6.6
	V255c0,1.8,0.8,2.7,2.6,2.7c1.5,0,2.8-0.3,3.9-1v6.3c-1.7,1-3.6,1.6-6.3,1.6C473.6,264.7,470.3,262.8,470.3,256.3z M490.9,236.8h8
	v5.7c1.6-3.9,4.3-6.4,9-6.2v8.4h-0.4c-5.3,0-8.6,3.2-8.6,9.9v10.4h-8L490.9,236.8L490.9,236.8z M533.4,236.5h8.5l-11.1,29.4
	c-2.2,5.9-4.6,8-9.5,8c-3,0-5.1-0.7-7.3-2l2.7-5.9c1.1,0.6,2.4,1.1,3.5,1.1c1.4,0,2.2-0.4,2.9-1.9l-11.3-28.8h8.7L527,256
	L533.4,236.5z"/>
</svg>
