<svg width="576" height="162" viewBox="0 0 576 162" fill="none" xmlns="http://www.w3.org/2000/svg">
<g clip-path="url(#clip0_0_3)">
<mask id="mask0_0_3" style="mask-type:luminance" maskUnits="userSpaceOnUse" x="0" y="0" width="960" height="540">
<path d="M0 0H960V540H0V0Z" fill="white"/>
</mask>
<g mask="url(#mask0_0_3)">
<path d="M292.008 77.7244L374.37 25.4724" stroke="#A4A4A4" stroke-miterlimit="10" stroke-linejoin="round"/>
<path d="M164 81.4908L204.031 80.8924" stroke="#A4A4A4" stroke-miterlimit="10" stroke-linejoin="round"/>
<path d="M38.0905 56.4651C38.0176 55.8401 37.7155 55.3557 37.1843 55.012C36.6635 54.6682 36.0228 54.4963 35.2624 54.4963C34.6999 54.4963 34.2103 54.5901 33.7937 54.7776C33.377 54.9547 33.0541 55.1995 32.8249 55.512C32.5958 55.8245 32.4812 56.1838 32.4812 56.5901C32.4812 56.9234 32.5593 57.2099 32.7155 57.4495C32.8822 57.689 33.0905 57.8922 33.3405 58.0588C33.601 58.2151 33.8666 58.3453 34.1374 58.4495C34.4187 58.5432 34.6791 58.6213 34.9187 58.6838L36.1843 59.0276C36.5176 59.1109 36.8874 59.2307 37.2937 59.387C37.6999 59.5328 38.0853 59.7359 38.4499 59.9963C38.8249 60.2568 39.1322 60.5901 39.3718 60.9963C39.6114 61.4026 39.7312 61.9026 39.7312 62.4963C39.7312 63.1734 39.5541 63.788 39.1999 64.3401C38.8458 64.8922 38.3301 65.3297 37.653 65.6526C36.976 65.9755 36.153 66.137 35.1843 66.137C34.278 66.137 33.4968 65.9911 32.8405 65.6995C32.1843 65.4078 31.6687 65.0015 31.2937 64.4807C30.9187 63.9599 30.7051 63.3557 30.653 62.6682H32.2312C32.2728 63.1474 32.4343 63.5432 32.7155 63.8557C32.9968 64.1578 33.351 64.387 33.778 64.5432C34.2155 64.689 34.6843 64.762 35.1843 64.762C35.7676 64.762 36.2885 64.6682 36.7468 64.4807C37.2155 64.2828 37.5853 64.0172 37.8562 63.6838C38.127 63.3401 38.2624 62.9338 38.2624 62.4651C38.2624 62.0484 38.1426 61.7099 37.903 61.4495C37.6739 61.189 37.3666 60.9755 36.9812 60.8088C36.6062 60.6422 36.1947 60.5015 35.7468 60.387L34.1999 59.9338C33.2103 59.6526 32.4291 59.2515 31.8562 58.7307C31.2833 58.1995 30.9968 57.512 30.9968 56.6682C30.9968 55.9599 31.1895 55.3453 31.5749 54.8245C31.9603 54.2932 32.476 53.8818 33.1218 53.5901C33.778 53.288 34.5072 53.137 35.3093 53.137C36.1218 53.137 36.8405 53.2828 37.4655 53.5745C38.101 53.8661 38.601 54.262 38.9655 54.762C39.3405 55.262 39.5385 55.8297 39.5593 56.4651H38.0905ZM48.0013 62.0588V56.4651H49.4545V65.9182H48.0013V64.3245H47.9076C47.6888 64.8036 47.3451 65.2099 46.8763 65.5432C46.4076 65.8765 45.8138 66.0432 45.0951 66.0432C44.5117 66.0432 43.9857 65.913 43.517 65.6526C43.0586 65.3922 42.6992 65.0015 42.4388 64.4807C42.1784 63.9495 42.0482 63.2776 42.0482 62.4651V56.4651H43.5013V62.3713C43.5013 63.0588 43.694 63.6109 44.0795 64.0276C44.4649 64.4338 44.9597 64.637 45.5638 64.637C45.9284 64.637 46.2982 64.5484 46.6732 64.3713C47.0482 64.1838 47.3607 63.8974 47.6107 63.512C47.8711 63.1265 48.0013 62.6422 48.0013 62.0588ZM52.3182 65.9182V53.3088H53.7713V57.9651H53.8807C53.9953 57.7984 54.1463 57.5901 54.3338 57.3401C54.5213 57.0797 54.7922 56.8505 55.1463 56.6526C55.5109 56.4443 56.0005 56.3401 56.6151 56.3401C57.4172 56.3401 58.1203 56.5432 58.7245 56.9495C59.3286 57.3453 59.8026 57.9078 60.1463 58.637C60.4901 59.3661 60.662 60.2255 60.662 61.2151C60.662 62.2151 60.4901 63.0849 60.1463 63.8245C59.8026 64.5536 59.3286 65.1213 58.7245 65.5276C58.1307 65.9234 57.438 66.1213 56.6463 66.1213C56.0422 66.1213 55.5578 66.0224 55.1932 65.8245C54.8286 65.6161 54.5474 65.3818 54.3495 65.1213C54.1515 64.8609 53.9953 64.6422 53.8807 64.4651H53.7088V65.9182H52.3182ZM53.7401 61.1995C53.7401 61.9078 53.8442 62.5328 54.0526 63.0745C54.2609 63.6161 54.563 64.0432 54.9588 64.3557C55.3651 64.6578 55.8599 64.8088 56.4432 64.8088C57.0578 64.8088 57.5682 64.6474 57.9745 64.3245C58.3807 64.0015 58.688 63.5693 58.8963 63.0276C59.1047 62.4755 59.2088 61.8661 59.2088 61.1995C59.2088 60.5328 59.1047 59.9338 58.8963 59.4026C58.6984 58.8609 58.3911 58.4338 57.9745 58.1213C57.5682 57.8088 57.0578 57.6526 56.4432 57.6526C55.8599 57.6526 55.3651 57.8036 54.9588 58.1057C54.5526 58.3974 54.2453 58.8088 54.037 59.3401C53.839 59.8713 53.7401 60.4911 53.7401 61.1995ZM62.8711 65.9182V56.4651H64.2774V57.9495H64.4024C64.6003 57.439 64.918 57.0432 65.3555 56.762C65.793 56.4807 66.319 56.3401 66.9336 56.3401C67.5586 56.3401 68.0795 56.4807 68.4961 56.762C68.9128 57.0432 69.2357 57.439 69.4649 57.9495H69.5742C69.8138 57.4599 70.1732 57.0693 70.6524 56.7776C71.142 56.4859 71.7253 56.3401 72.4024 56.3401C73.2461 56.3401 73.9336 56.6057 74.4649 57.137C75.0065 57.6578 75.2774 58.4755 75.2774 59.5901V65.9182H73.8242V59.5901C73.8242 58.8922 73.6315 58.3974 73.2461 58.1057C72.8711 57.8036 72.4232 57.6526 71.9024 57.6526C71.2357 57.6526 70.7201 57.8557 70.3555 58.262C69.9909 58.6578 69.8086 59.1578 69.8086 59.762V65.9182H68.3399V59.4495C68.3399 58.9078 68.1628 58.4755 67.8086 58.1526C67.4649 57.8193 67.017 57.6526 66.4649 57.6526C66.0899 57.6526 65.7357 57.7515 65.4024 57.9495C65.0795 58.1474 64.819 58.4234 64.6211 58.7776C64.4232 59.1318 64.3242 59.5432 64.3242 60.012V65.9182H62.8711ZM77.9345 65.9182V56.4651H79.3876V65.9182H77.9345ZM78.6689 54.887C78.3876 54.887 78.1428 54.7932 77.9345 54.6057C77.7366 54.4078 77.6376 54.1734 77.6376 53.9026C77.6376 53.6318 77.7366 53.4026 77.9345 53.2151C78.1428 53.0172 78.3876 52.9182 78.6689 52.9182C78.9501 52.9182 79.1897 53.0172 79.3876 53.2151C79.596 53.4026 79.7001 53.6318 79.7001 53.9026C79.7001 54.1734 79.596 54.4078 79.3876 54.6057C79.1897 54.7932 78.9501 54.887 78.6689 54.887ZM86.1543 56.4651V57.6995H81.2637V56.4651H86.1543ZM82.6856 54.1995H84.1387V63.2151C84.1387 63.6213 84.196 63.9286 84.3106 64.137C84.4356 64.3349 84.5918 64.4703 84.7793 64.5432C84.9772 64.6057 85.1804 64.637 85.3887 64.637C85.5554 64.637 85.6856 64.6318 85.7793 64.6213C85.8835 64.6005 85.9668 64.5797 86.0293 64.5588L86.3262 65.8713C86.2324 65.9026 86.097 65.939 85.9199 65.9807C85.7429 66.0224 85.5189 66.0432 85.2481 66.0432C84.8314 66.0432 84.4251 65.9547 84.0293 65.7776C83.6439 65.6005 83.321 65.3349 83.0606 64.9807C82.8106 64.6161 82.6856 64.1578 82.6856 63.6057V54.1995ZM97.6725 52.7307L93.61 67.8088H92.2819L96.3444 52.7307H97.6725ZM107.052 66.137C106.458 66.137 105.917 66.0224 105.427 65.7932C104.937 65.564 104.547 65.2359 104.255 64.8088C103.974 64.3713 103.833 63.8453 103.833 63.2307C103.833 62.689 103.937 62.2515 104.146 61.9182C104.365 61.5745 104.651 61.3088 105.005 61.1213C105.359 60.9234 105.75 60.7776 106.177 60.6838C106.615 60.5901 107.052 60.512 107.49 60.4495C108.073 60.3765 108.542 60.3245 108.896 60.2932C109.25 60.2515 109.51 60.1838 109.677 60.0901C109.844 59.9963 109.927 59.8297 109.927 59.5901V59.5432C109.927 58.9391 109.76 58.4703 109.427 58.137C109.104 57.7932 108.609 57.6213 107.943 57.6213C107.245 57.6213 106.698 57.7724 106.302 58.0745C105.917 58.3766 105.641 58.7047 105.474 59.0588L104.099 58.5588C104.349 57.9859 104.677 57.538 105.083 57.2151C105.5 56.8922 105.953 56.6682 106.443 56.5432C106.932 56.4078 107.417 56.3401 107.896 56.3401C108.198 56.3401 108.547 56.3765 108.943 56.4495C109.339 56.5224 109.719 56.6734 110.083 56.9026C110.458 57.1213 110.766 57.4547 111.005 57.9026C111.255 58.3401 111.38 58.9338 111.38 59.6838V65.9182H109.927V64.637H109.865C109.76 64.8453 109.594 65.0693 109.365 65.3088C109.135 65.538 108.828 65.7359 108.443 65.9026C108.068 66.0588 107.604 66.137 107.052 66.137ZM107.271 64.8401C107.844 64.8401 108.328 64.7255 108.724 64.4963C109.12 64.2672 109.417 63.9755 109.615 63.6213C109.823 63.2672 109.927 62.8922 109.927 62.4963V61.1682C109.865 61.2411 109.729 61.3088 109.521 61.3713C109.323 61.4234 109.089 61.4755 108.818 61.5276C108.547 61.5693 108.286 61.6057 108.036 61.637C107.786 61.6682 107.583 61.6943 107.427 61.7151C107.042 61.7568 106.687 61.8349 106.365 61.9495C106.042 62.0536 105.781 62.2151 105.583 62.4338C105.385 62.6526 105.286 62.9443 105.286 63.3088C105.286 63.8088 105.474 64.1891 105.849 64.4495C106.224 64.7099 106.698 64.8401 107.271 64.8401ZM118.152 56.4651V57.6995H113.261V56.4651H118.152ZM114.683 54.1995H116.136V63.2151C116.136 63.6213 116.193 63.9286 116.308 64.137C116.433 64.3349 116.589 64.4703 116.777 64.5432C116.975 64.6057 117.178 64.637 117.386 64.637C117.553 64.637 117.683 64.6318 117.777 64.6213C117.881 64.6005 117.964 64.5797 118.027 64.5588L118.324 65.8713C118.23 65.9026 118.094 65.939 117.917 65.9807C117.74 66.0224 117.516 66.0432 117.245 66.0432C116.829 66.0432 116.423 65.9547 116.027 65.7776C115.641 65.6005 115.318 65.3349 115.058 64.9807C114.808 64.6161 114.683 64.1578 114.683 63.6057V54.1995ZM124.453 56.4651V57.6995H119.562V56.4651H124.453ZM120.984 54.1995H122.437V63.2151C122.437 63.6213 122.494 63.9286 122.609 64.137C122.734 64.3349 122.89 64.4703 123.078 64.5432C123.276 64.6057 123.479 64.637 123.687 64.637C123.854 64.637 123.984 64.6318 124.078 64.6213C124.182 64.6005 124.265 64.5797 124.328 64.5588L124.625 65.8713C124.531 65.9026 124.395 65.939 124.218 65.9807C124.041 66.0224 123.817 66.0432 123.546 66.0432C123.13 66.0432 122.724 65.9547 122.328 65.7776C121.942 65.6005 121.619 65.3349 121.359 64.9807C121.109 64.6161 120.984 64.1578 120.984 63.6057V54.1995ZM129.426 66.137C128.832 66.137 128.29 66.0224 127.801 65.7932C127.311 65.564 126.92 65.2359 126.629 64.8088C126.348 64.3713 126.207 63.8453 126.207 63.2307C126.207 62.689 126.311 62.2515 126.519 61.9182C126.738 61.5745 127.025 61.3088 127.379 61.1213C127.733 60.9234 128.124 60.7776 128.551 60.6838C128.988 60.5901 129.426 60.512 129.863 60.4495C130.446 60.3765 130.915 60.3245 131.269 60.2932C131.624 60.2515 131.884 60.1838 132.051 60.0901C132.217 59.9963 132.301 59.8297 132.301 59.5901V59.5432C132.301 58.9391 132.134 58.4703 131.801 58.137C131.478 57.7932 130.983 57.6213 130.316 57.6213C129.618 57.6213 129.071 57.7724 128.676 58.0745C128.29 58.3766 128.014 58.7047 127.848 59.0588L126.473 58.5588C126.723 57.9859 127.051 57.538 127.457 57.2151C127.874 56.8922 128.327 56.6682 128.816 56.5432C129.306 56.4078 129.79 56.3401 130.269 56.3401C130.571 56.3401 130.92 56.3765 131.316 56.4495C131.712 56.5224 132.092 56.6734 132.457 56.9026C132.832 57.1213 133.139 57.4547 133.379 57.9026C133.629 58.3401 133.754 58.9338 133.754 59.6838V65.9182H132.301V64.637H132.238C132.134 64.8453 131.967 65.0693 131.738 65.3088C131.509 65.538 131.202 65.7359 130.816 65.9026C130.441 66.0588 129.978 66.137 129.426 66.137ZM129.644 64.8401C130.217 64.8401 130.702 64.7255 131.098 64.4963C131.493 64.2672 131.79 63.9755 131.988 63.6213C132.196 63.2672 132.301 62.8922 132.301 62.4963V61.1682C132.238 61.2411 132.103 61.3088 131.894 61.3713C131.696 61.4234 131.462 61.4755 131.191 61.5276C130.92 61.5693 130.66 61.6057 130.41 61.637C130.16 61.6682 129.957 61.6943 129.801 61.7151C129.415 61.7568 129.061 61.8349 128.738 61.9495C128.415 62.0536 128.155 62.2151 127.957 62.4338C127.759 62.6526 127.66 62.9443 127.66 63.3088C127.66 63.8088 127.848 64.1891 128.223 64.4495C128.598 64.7099 129.071 64.8401 129.644 64.8401ZM140.26 66.1213C139.374 66.1213 138.609 65.913 137.963 65.4963C137.327 65.0693 136.838 64.4911 136.494 63.762C136.15 63.0224 135.978 62.1838 135.978 61.2463C135.978 60.288 136.155 59.439 136.51 58.6995C136.864 57.9599 137.359 57.3818 137.994 56.9651C138.629 56.5484 139.374 56.3401 140.228 56.3401C140.895 56.3401 141.494 56.4651 142.025 56.7151C142.557 56.9547 142.994 57.2984 143.338 57.7463C143.682 58.1943 143.895 58.7099 143.978 59.2932H142.525C142.411 58.8661 142.161 58.4859 141.775 58.1526C141.4 57.8193 140.895 57.6526 140.26 57.6526C139.687 57.6526 139.187 57.7984 138.76 58.0901C138.343 58.3818 138.015 58.7932 137.775 59.3245C137.546 59.8557 137.432 60.4807 137.432 61.1995C137.432 61.9286 137.546 62.564 137.775 63.1057C138.004 63.6474 138.333 64.0693 138.76 64.3713C139.187 64.663 139.687 64.8088 140.26 64.8088C140.635 64.8088 140.973 64.7463 141.275 64.6213C141.588 64.4859 141.848 64.2984 142.057 64.0588C142.275 63.8088 142.432 63.512 142.525 63.1682H143.978C143.895 63.7203 143.692 64.2203 143.369 64.6682C143.046 65.1161 142.619 65.4703 142.088 65.7307C141.567 65.9911 140.958 66.1213 140.26 66.1213ZM147.542 60.2307V65.9182H146.089V53.3088H147.542V57.9495H147.667C147.886 57.4599 148.219 57.0693 148.667 56.7776C149.115 56.4859 149.709 56.3401 150.448 56.3401C151.094 56.3401 151.657 56.4703 152.136 56.7307C152.625 56.9807 153 57.3713 153.261 57.9026C153.532 58.4338 153.667 59.1057 153.667 59.9182V65.9182H152.214V60.012C152.214 59.262 152.021 58.6838 151.636 58.2776C151.25 57.8609 150.714 57.6526 150.026 57.6526C149.547 57.6526 149.12 57.7515 148.745 57.9495C148.37 58.1474 148.073 58.439 147.855 58.8245C147.646 59.2099 147.542 59.6786 147.542 60.2307Z" fill="white"/>
<path d="M58.8395 74.1088L62.5739 84.7182H62.7301L66.4645 74.1088H68.0583L63.4333 86.7182H61.8708L57.2301 74.1088H58.8395ZM69.8367 86.7182V77.2651H71.2899V86.7182H69.8367ZM70.5711 75.687C70.2899 75.687 70.0451 75.5932 69.8367 75.4057C69.6388 75.2078 69.5399 74.9734 69.5399 74.7026C69.5399 74.4318 69.6388 74.2026 69.8367 74.0151C70.0451 73.8172 70.2899 73.7182 70.5711 73.7182C70.8524 73.7182 71.0919 73.8172 71.2899 74.0151C71.4982 74.2026 71.6024 74.4318 71.6024 74.7026C71.6024 74.9734 71.4982 75.2078 71.2899 75.4057C71.0919 75.5932 70.8524 75.687 70.5711 75.687ZM76.7284 86.937C76.1347 86.937 75.593 86.8224 75.1034 86.5932C74.6138 86.364 74.2232 86.0359 73.9315 85.6088C73.6503 85.1713 73.5097 84.6453 73.5097 84.0307C73.5097 83.489 73.6138 83.0515 73.8222 82.7182C74.0409 82.3745 74.3274 82.1088 74.6815 81.9213C75.0357 81.7234 75.4263 81.5776 75.8534 81.4838C76.2909 81.3901 76.7284 81.312 77.1659 81.2495C77.7492 81.1765 78.218 81.1245 78.5722 81.0932C78.9263 81.0515 79.1867 80.9838 79.3534 80.8901C79.5201 80.7963 79.6034 80.6297 79.6034 80.3901V80.3432C79.6034 79.7391 79.4367 79.2703 79.1034 78.937C78.7805 78.5932 78.2857 78.4213 77.619 78.4213C76.9211 78.4213 76.3742 78.5724 75.9784 78.8745C75.593 79.1766 75.3169 79.5047 75.1503 79.8588L73.7753 79.3588C74.0253 78.7859 74.3534 78.338 74.7597 78.0151C75.1763 77.6922 75.6294 77.4682 76.119 77.3432C76.6086 77.2078 77.093 77.1401 77.5722 77.1401C77.8742 77.1401 78.2232 77.1766 78.619 77.2495C79.0149 77.3224 79.3951 77.4734 79.7597 77.7026C80.1347 77.9213 80.4419 78.2547 80.6815 78.7026C80.9315 79.1401 81.0565 79.7338 81.0565 80.4838V86.7182H79.6034V85.437H79.5409C79.4367 85.6453 79.2701 85.8693 79.0409 86.1088C78.8117 86.338 78.5044 86.5359 78.119 86.7026C77.744 86.8588 77.2805 86.937 76.7284 86.937ZM76.9472 85.6401C77.5201 85.6401 78.0044 85.5255 78.4003 85.2963C78.7961 85.0672 79.093 84.7755 79.2909 84.4213C79.4992 84.0672 79.6034 83.6922 79.6034 83.2963V81.9682C79.5409 82.0411 79.4055 82.1088 79.1972 82.1713C78.9992 82.2234 78.7649 82.2755 78.494 82.3276C78.2232 82.3693 77.9628 82.4057 77.7128 82.437C77.4628 82.4682 77.2597 82.4943 77.1034 82.5151C76.718 82.5568 76.3638 82.6349 76.0409 82.7495C75.718 82.8536 75.4576 83.0151 75.2597 83.2338C75.0617 83.4526 74.9628 83.7443 74.9628 84.1088C74.9628 84.6088 75.1503 84.9891 75.5253 85.2495C75.9003 85.5099 76.3742 85.6401 76.9472 85.6401ZM88.7952 86.7182V74.1088H90.3109V79.7338H97.0296V74.1088H98.5609V86.7182H97.0296V81.0776H90.3109V86.7182H88.7952ZM100.931 75.4682V74.1088H110.369V75.4682H106.416V86.7182H104.884V75.4682H100.931ZM112.057 75.4682V74.1088H121.494V75.4682H117.541V86.7182H116.01V75.4682H112.057ZM123.869 86.7182V74.1088H128.119C129.109 74.1088 129.916 74.2911 130.541 74.6557C131.177 75.0099 131.645 75.489 131.947 76.0932C132.25 76.687 132.401 77.3588 132.401 78.1088C132.401 78.8484 132.25 79.5255 131.947 80.1401C131.645 80.7443 131.182 81.2234 130.557 81.5776C129.932 81.9318 129.13 82.1088 128.151 82.1088H125.088V80.7651H128.104C128.781 80.7651 129.322 80.6505 129.729 80.4213C130.135 80.1818 130.432 79.864 130.619 79.4682C130.807 79.062 130.901 78.6088 130.901 78.1088C130.901 77.5984 130.807 77.1453 130.619 76.7495C130.432 76.3536 130.13 76.0411 129.713 75.812C129.307 75.5828 128.76 75.4682 128.072 75.4682H125.385V86.7182H123.869ZM143.386 86.9213C142.531 86.9213 141.781 86.7182 141.136 86.312C140.5 85.9057 140 85.338 139.636 84.6088C139.281 83.8693 139.104 83.0151 139.104 82.0463C139.104 81.0568 139.281 80.1974 139.636 79.4682C140 78.7286 140.5 78.1557 141.136 77.7495C141.781 77.3432 142.531 77.1401 143.386 77.1401C144.24 77.1401 144.985 77.3432 145.62 77.7495C146.266 78.1557 146.766 78.7286 147.12 79.4682C147.485 80.1974 147.667 81.0568 147.667 82.0463C147.667 83.0151 147.485 83.8693 147.12 84.6088C146.766 85.338 146.266 85.9057 145.62 86.312C144.985 86.7182 144.24 86.9213 143.386 86.9213ZM143.386 85.6088C144.031 85.6088 144.563 85.4422 144.979 85.1088C145.396 84.7755 145.703 84.338 145.901 83.7963C146.11 83.2547 146.214 82.6713 146.214 82.0463C146.214 81.4109 146.11 80.8224 145.901 80.2807C145.703 79.7286 145.396 79.2859 144.979 78.9526C144.563 78.6193 144.031 78.4526 143.386 78.4526C142.74 78.4526 142.203 78.6193 141.776 78.9526C141.36 79.2859 141.052 79.7286 140.854 80.2807C140.656 80.8224 140.557 81.4109 140.557 82.0463C140.557 82.6713 140.656 83.2547 140.854 83.7963C141.052 84.338 141.36 84.7755 141.776 85.1088C142.203 85.4422 142.74 85.6088 143.386 85.6088ZM149.879 86.7182V77.2651H151.286V78.687H151.379C151.556 78.2286 151.869 77.8536 152.317 77.562C152.765 77.2703 153.275 77.1245 153.848 77.1245C153.952 77.1245 154.083 77.1245 154.239 77.1245C154.405 77.1245 154.53 77.1297 154.614 77.1401V78.6245C154.562 78.6141 154.447 78.5932 154.27 78.562C154.093 78.5307 153.911 78.5151 153.723 78.5151C153.265 78.5151 152.853 78.6141 152.489 78.812C152.135 78.9995 151.853 79.2599 151.645 79.5932C151.437 79.9266 151.333 80.3068 151.333 80.7338V86.7182L149.879 86.7182Z" fill="white"/>
<path d="M14.8751 111.065V98.0651H16.2814V99.5651H16.4532C16.5574 99.3984 16.7032 99.1901 16.8907 98.9401C17.0887 98.6797 17.3647 98.4505 17.7189 98.2526C18.0835 98.0443 18.573 97.9401 19.1876 97.9401C19.9793 97.9401 20.6772 98.1432 21.2814 98.5495C21.896 98.9453 22.3699 99.5078 22.7032 100.237C23.047 100.966 23.2189 101.825 23.2189 102.815C23.2189 103.815 23.047 104.685 22.7032 105.424C22.3699 106.154 21.9012 106.721 21.297 107.128C20.6928 107.523 19.9949 107.721 19.2032 107.721C18.5991 107.721 18.1147 107.622 17.7501 107.424C17.3855 107.216 17.1043 106.982 16.9064 106.721C16.7085 106.461 16.5574 106.242 16.4532 106.065H16.3282V111.065H14.8751ZM16.297 102.799C16.297 103.508 16.4012 104.133 16.6095 104.674C16.8282 105.216 17.1355 105.643 17.5314 105.956C17.9376 106.258 18.4324 106.409 19.0157 106.409C19.6199 106.409 20.1251 106.247 20.5314 105.924C20.9376 105.602 21.2449 105.169 21.4532 104.628C21.6616 104.075 21.7657 103.466 21.7657 102.799C21.7657 102.133 21.6616 101.534 21.4532 101.003C21.2553 100.461 20.9532 100.034 20.547 99.7213C20.1407 99.4088 19.6303 99.2526 19.0157 99.2526C18.422 99.2526 17.922 99.4036 17.5157 99.7057C17.1199 99.9974 16.8178 100.409 16.6095 100.94C16.4012 101.471 16.297 102.091 16.297 102.799ZM25.4343 107.518V98.0651H26.8405V99.487H26.9343C27.1113 99.0286 27.4238 98.6536 27.8718 98.362C28.3197 98.0703 28.8301 97.9245 29.403 97.9245C29.5072 97.9245 29.6374 97.9245 29.7936 97.9245C29.9603 97.9245 30.0853 97.9297 30.1686 97.9401V99.4245C30.1166 99.414 30.002 99.3932 29.8249 99.362C29.6478 99.3307 29.4655 99.3151 29.278 99.3151C28.8197 99.3151 28.4082 99.4141 28.0436 99.612C27.6895 99.7995 27.4082 100.06 27.1999 100.393C26.9916 100.727 26.8874 101.107 26.8874 101.534V107.518L25.4343 107.518ZM35.4313 107.721C34.5771 107.721 33.8271 107.518 33.1813 107.112C32.5458 106.706 32.0458 106.138 31.6813 105.409C31.3271 104.669 31.15 103.815 31.15 102.846C31.15 101.857 31.3271 100.997 31.6813 100.268C32.0458 99.5286 32.5458 98.9557 33.1813 98.5495C33.8271 98.1432 34.5771 97.9401 35.4313 97.9401C36.2854 97.9401 37.0302 98.1432 37.6656 98.5495C38.3115 98.9557 38.8115 99.5286 39.1656 100.268C39.5302 100.997 39.7125 101.857 39.7125 102.846C39.7125 103.815 39.5302 104.669 39.1656 105.409C38.8115 106.138 38.3115 106.706 37.6656 107.112C37.0302 107.518 36.2854 107.721 35.4313 107.721ZM35.4313 106.409C36.0771 106.409 36.6083 106.242 37.025 105.909C37.4417 105.576 37.749 105.138 37.9469 104.596C38.1552 104.055 38.2594 103.471 38.2594 102.846C38.2594 102.211 38.1552 101.622 37.9469 101.081C37.749 100.529 37.4417 100.086 37.025 99.7526C36.6083 99.4193 36.0771 99.2526 35.4313 99.2526C34.7854 99.2526 34.249 99.4193 33.8219 99.7526C33.4052 100.086 33.0979 100.529 32.9 101.081C32.7021 101.622 32.6031 102.211 32.6031 102.846C32.6031 103.471 32.7021 104.055 32.9 104.596C33.0979 105.138 33.4052 105.576 33.8219 105.909C34.249 106.242 34.7854 106.409 35.4313 106.409ZM45.7376 111.253C45.0397 111.253 44.4355 111.164 43.9251 110.987C43.4251 110.81 43.0085 110.576 42.6751 110.284C42.3418 110.003 42.0762 109.695 41.8783 109.362L43.0345 108.549C43.1699 108.727 43.3366 108.924 43.5345 109.143C43.7324 109.372 44.0033 109.57 44.347 109.737C44.7012 109.904 45.1647 109.987 45.7376 109.987C46.498 109.987 47.1283 109.799 47.6283 109.424C48.1283 109.06 48.3783 108.482 48.3783 107.69V105.768H48.2533C48.1491 105.945 47.998 106.159 47.8001 106.409C47.6022 106.659 47.321 106.883 46.9564 107.081C46.6022 107.279 46.1126 107.378 45.4876 107.378C44.7272 107.378 44.0449 107.195 43.4408 106.831C42.8366 106.466 42.3574 105.94 42.0033 105.253C41.6595 104.565 41.4876 103.727 41.4876 102.737C41.4876 101.768 41.6543 100.924 41.9876 100.206C42.3314 99.487 42.8053 98.9297 43.4095 98.5338C44.0241 98.138 44.7272 97.9401 45.5189 97.9401C46.1335 97.9401 46.623 98.0443 46.9876 98.2526C47.3522 98.4505 47.6283 98.6797 47.8158 98.9401C48.0137 99.1901 48.1647 99.3984 48.2689 99.5651H48.4251V98.0651H49.8314V107.784C49.8314 108.596 49.6439 109.258 49.2689 109.768C48.9043 110.279 48.4147 110.654 47.8001 110.893C47.1855 111.133 46.498 111.253 45.7376 111.253ZM45.6908 106.065C46.2741 106.065 46.7637 105.935 47.1595 105.674C47.5658 105.404 47.873 105.018 48.0814 104.518C48.2897 104.018 48.3939 103.419 48.3939 102.721C48.3939 102.034 48.2897 101.43 48.0814 100.909C47.8835 100.388 47.5814 99.9818 47.1751 99.6901C46.7793 99.3984 46.2845 99.2526 45.6908 99.2526C45.0762 99.2526 44.5658 99.4088 44.1595 99.7213C43.7533 100.034 43.446 100.451 43.2376 100.971C43.0397 101.492 42.9408 102.076 42.9408 102.721C42.9408 103.378 43.0397 103.956 43.2376 104.456C43.446 104.956 43.7533 105.352 44.1595 105.643C44.5762 105.924 45.0866 106.065 45.6908 106.065ZM52.4843 107.518V98.0651H53.8905V99.487H53.9843C54.1614 99.0286 54.4739 98.6536 54.9218 98.362C55.3697 98.0703 55.8801 97.9245 56.453 97.9245C56.5572 97.9245 56.6874 97.9245 56.8436 97.9245C57.0103 97.9245 57.1353 97.9297 57.2186 97.9401V99.4245C57.1666 99.414 57.052 99.3932 56.8749 99.362C56.6978 99.3307 56.5155 99.3151 56.328 99.3151C55.8697 99.3151 55.4582 99.4141 55.0936 99.612C54.7395 99.7995 54.4582 100.06 54.2499 100.393C54.0416 100.727 53.9374 101.107 53.9374 101.534V107.518L52.4843 107.518ZM61.7142 107.737C61.1205 107.737 60.5788 107.622 60.0892 107.393C59.5996 107.164 59.209 106.836 58.9173 106.409C58.6361 105.971 58.4955 105.445 58.4955 104.831C58.4955 104.289 58.5996 103.852 58.808 103.518C59.0267 103.174 59.3132 102.909 59.6673 102.721C60.0215 102.523 60.4121 102.378 60.8392 102.284C61.2767 102.19 61.7142 102.112 62.1517 102.049C62.7351 101.977 63.2038 101.924 63.558 101.893C63.9121 101.852 64.1726 101.784 64.3392 101.69C64.5059 101.596 64.5892 101.43 64.5892 101.19V101.143C64.5892 100.539 64.4226 100.07 64.0892 99.7369C63.7663 99.3932 63.2715 99.2213 62.6048 99.2213C61.9069 99.2213 61.3601 99.3724 60.9642 99.6744C60.5788 99.9765 60.3028 100.305 60.1361 100.659L58.7611 100.159C59.0111 99.5859 59.3392 99.138 59.7455 98.8151C60.1621 98.4922 60.6153 98.2682 61.1048 98.1432C61.5944 98.0078 62.0788 97.9401 62.558 97.9401C62.8601 97.9401 63.209 97.9765 63.6048 98.0494C64.0007 98.1224 64.3809 98.2734 64.7455 98.5026C65.1205 98.7213 65.4278 99.0547 65.6674 99.5026C65.9174 99.9401 66.0424 100.534 66.0424 101.284V107.518H64.5892V106.237H64.5267C64.4226 106.445 64.2559 106.669 64.0267 106.909C63.7976 107.138 63.4903 107.336 63.1048 107.503C62.7298 107.659 62.2663 107.737 61.7142 107.737ZM61.933 106.44C62.5059 106.44 62.9903 106.326 63.3861 106.096C63.7819 105.867 64.0788 105.576 64.2767 105.221C64.4851 104.867 64.5892 104.492 64.5892 104.096V102.768C64.5267 102.841 64.3913 102.909 64.183 102.971C63.9851 103.023 63.7507 103.075 63.4798 103.128C63.209 103.169 62.9486 103.206 62.6986 103.237C62.4486 103.268 62.2455 103.294 62.0892 103.315C61.7038 103.357 61.3496 103.435 61.0267 103.549C60.7038 103.654 60.4434 103.815 60.2455 104.034C60.0476 104.253 59.9486 104.544 59.9486 104.909C59.9486 105.409 60.1361 105.789 60.5111 106.049C60.8861 106.31 61.3601 106.44 61.933 106.44ZM68.7045 107.518V98.0651H70.1107V99.5495H70.2357C70.4337 99.039 70.7514 98.6432 71.1889 98.362C71.6264 98.0807 72.1524 97.9401 72.767 97.9401C73.392 97.9401 73.9128 98.0807 74.3295 98.362C74.7462 98.6432 75.0691 99.039 75.2982 99.5495H75.4076C75.6472 99.0599 76.0066 98.6693 76.4857 98.3776C76.9753 98.0859 77.5587 97.9401 78.2357 97.9401C79.0795 97.9401 79.767 98.2057 80.2982 98.737C80.8399 99.2578 81.1107 100.076 81.1107 101.19V107.518H79.6576V101.19C79.6576 100.492 79.4649 99.9974 79.0795 99.7057C78.7045 99.4036 78.2566 99.2526 77.7357 99.2526C77.0691 99.2526 76.5534 99.4557 76.1889 99.862C75.8243 100.258 75.642 100.758 75.642 101.362V107.518H74.1732V101.049C74.1732 100.508 73.9962 100.075 73.642 99.7526C73.2982 99.4193 72.8503 99.2526 72.2982 99.2526C71.9232 99.2526 71.5691 99.3515 71.2357 99.5495C70.9128 99.7474 70.6524 100.023 70.4545 100.378C70.2566 100.732 70.1576 101.143 70.1576 101.612V107.518H68.7045ZM83.7679 107.518V98.0651H85.1741V99.5495H85.2991C85.497 99.039 85.8148 98.6432 86.2523 98.362C86.6898 98.0807 87.2158 97.9401 87.8304 97.9401C88.4554 97.9401 88.9762 98.0807 89.3929 98.362C89.8095 98.6432 90.1325 99.039 90.3616 99.5495H90.471C90.7106 99.0599 91.07 98.6693 91.5491 98.3776C92.0387 98.0859 92.622 97.9401 93.2991 97.9401C94.1429 97.9401 94.8304 98.2057 95.3616 98.737C95.9033 99.2578 96.1741 100.076 96.1741 101.19V107.518H94.721V101.19C94.721 100.492 94.5283 99.9974 94.1429 99.7057C93.7679 99.4036 93.32 99.2526 92.7991 99.2526C92.1325 99.2526 91.6168 99.4557 91.2523 99.862C90.8877 100.258 90.7054 100.758 90.7054 101.362V107.518H89.2366V101.049C89.2366 100.508 89.0595 100.075 88.7054 99.7526C88.3616 99.4193 87.9137 99.2526 87.3616 99.2526C86.9866 99.2526 86.6325 99.3515 86.2991 99.5495C85.9762 99.7474 85.7158 100.023 85.5179 100.378C85.32 100.732 85.221 101.143 85.221 101.612V107.518H83.7679ZM101.613 107.737C101.019 107.737 100.477 107.622 99.9875 107.393C99.4979 107.164 99.1073 106.836 98.8156 106.409C98.5344 105.971 98.3938 105.445 98.3938 104.831C98.3938 104.289 98.4979 103.852 98.7063 103.518C98.925 103.174 99.2115 102.909 99.5656 102.721C99.9198 102.523 100.31 102.378 100.738 102.284C101.175 102.19 101.613 102.112 102.05 102.049C102.633 101.977 103.102 101.924 103.456 101.893C103.81 101.852 104.071 101.784 104.238 101.69C104.404 101.596 104.488 101.43 104.488 101.19V101.143C104.488 100.539 104.321 100.07 103.988 99.7369C103.665 99.3932 103.17 99.2213 102.503 99.2213C101.805 99.2213 101.258 99.3724 100.863 99.6744C100.477 99.9765 100.201 100.305 100.034 100.659L98.6594 100.159C98.9094 99.5859 99.2375 99.138 99.6438 98.8151C100.06 98.4922 100.514 98.2682 101.003 98.1432C101.493 98.0078 101.977 97.9401 102.456 97.9401C102.758 97.9401 103.107 97.9765 103.503 98.0494C103.899 98.1224 104.279 98.2734 104.644 98.5026C105.019 98.7213 105.326 99.0547 105.566 99.5026C105.816 99.9401 105.941 100.534 105.941 101.284V107.518H104.488V106.237H104.425C104.321 106.445 104.154 106.669 103.925 106.909C103.696 107.138 103.389 107.336 103.003 107.503C102.628 107.659 102.165 107.737 101.613 107.737ZM101.831 106.44C102.404 106.44 102.889 106.326 103.284 106.096C103.68 105.867 103.977 105.576 104.175 105.221C104.383 104.867 104.488 104.492 104.488 104.096V102.768C104.425 102.841 104.29 102.909 104.081 102.971C103.883 103.023 103.649 103.075 103.378 103.128C103.107 103.169 102.847 103.206 102.597 103.237C102.347 103.268 102.144 103.294 101.988 103.315C101.602 103.357 101.248 103.435 100.925 103.549C100.602 103.654 100.342 103.815 100.144 104.034C99.9458 104.253 99.8469 104.544 99.8469 104.909C99.8469 105.409 100.034 105.789 100.409 106.049C100.784 106.31 101.258 106.44 101.831 106.44ZM112.712 98.0651V99.2995H107.822V98.0651H112.712ZM109.243 95.7995H110.697V104.815C110.697 105.221 110.754 105.529 110.868 105.737C110.993 105.935 111.15 106.07 111.337 106.143C111.535 106.206 111.738 106.237 111.947 106.237C112.113 106.237 112.243 106.232 112.337 106.221C112.441 106.201 112.525 106.18 112.587 106.159L112.884 107.471C112.79 107.503 112.655 107.539 112.478 107.581C112.301 107.622 112.077 107.643 111.806 107.643C111.389 107.643 110.983 107.555 110.587 107.378C110.202 107.2 109.879 106.935 109.618 106.581C109.368 106.216 109.243 105.758 109.243 105.206V95.7995ZM114.904 107.518V98.0651H116.357V107.518H114.904ZM115.638 96.487C115.357 96.487 115.112 96.3932 114.904 96.2057C114.706 96.0078 114.607 95.7734 114.607 95.5026C114.607 95.2318 114.706 95.0026 114.904 94.8151C115.112 94.6172 115.357 94.5182 115.638 94.5182C115.919 94.5182 116.159 94.6172 116.357 94.8151C116.565 95.0026 116.669 95.2318 116.669 95.5026C116.669 95.7734 116.565 96.0078 116.357 96.2057C116.159 96.3932 115.919 96.487 115.638 96.487ZM122.858 107.721C121.973 107.721 121.207 107.513 120.561 107.096C119.926 106.669 119.436 106.091 119.092 105.362C118.749 104.622 118.577 103.784 118.577 102.846C118.577 101.888 118.754 101.039 119.108 100.299C119.462 99.5599 119.957 98.9818 120.592 98.5651C121.228 98.1484 121.973 97.9401 122.827 97.9401C123.493 97.9401 124.092 98.0651 124.624 98.3151C125.155 98.5547 125.592 98.8984 125.936 99.3463C126.28 99.7942 126.493 100.31 126.577 100.893H125.124C125.009 100.466 124.759 100.086 124.374 99.7526C123.999 99.4193 123.493 99.2526 122.858 99.2526C122.285 99.2526 121.785 99.3984 121.358 99.6901C120.941 99.9818 120.613 100.393 120.374 100.924C120.144 101.456 120.03 102.081 120.03 102.799C120.03 103.529 120.144 104.164 120.374 104.706C120.603 105.247 120.931 105.669 121.358 105.971C121.785 106.263 122.285 106.409 122.858 106.409C123.233 106.409 123.572 106.346 123.874 106.221C124.186 106.086 124.447 105.898 124.655 105.659C124.874 105.409 125.03 105.112 125.124 104.768H126.577C126.493 105.32 126.29 105.82 125.967 106.268C125.644 106.716 125.217 107.07 124.686 107.331C124.165 107.591 123.556 107.721 122.858 107.721ZM131.469 107.737C130.875 107.737 130.333 107.622 129.844 107.393C129.354 107.164 128.963 106.836 128.672 106.409C128.39 105.971 128.25 105.445 128.25 104.831C128.25 104.289 128.354 103.852 128.562 103.518C128.781 103.174 129.067 102.909 129.422 102.721C129.776 102.523 130.166 102.378 130.594 102.284C131.031 102.19 131.469 102.112 131.906 102.049C132.489 101.977 132.958 101.924 133.312 101.893C133.666 101.852 133.927 101.784 134.094 101.69C134.26 101.596 134.344 101.43 134.344 101.19V101.143C134.344 100.539 134.177 100.07 133.844 99.7369C133.521 99.3932 133.026 99.2213 132.359 99.2213C131.661 99.2213 131.114 99.3723 130.719 99.6744C130.333 99.9765 130.057 100.305 129.89 100.659L128.515 100.159C128.765 99.5859 129.094 99.138 129.5 98.815C129.916 98.4921 130.37 98.2682 130.859 98.1432C131.349 98.0078 131.833 97.94 132.312 97.94C132.614 97.94 132.963 97.9765 133.359 98.0494C133.755 98.1223 134.135 98.2734 134.5 98.5025C134.875 98.7213 135.182 99.0546 135.422 99.5025C135.672 99.94 135.797 100.534 135.797 101.284V107.518H134.344V106.237H134.281C134.177 106.445 134.01 106.669 133.781 106.909C133.552 107.138 133.245 107.336 132.859 107.503C132.484 107.659 132.021 107.737 131.469 107.737ZM131.687 106.44C132.26 106.44 132.745 106.325 133.14 106.096C133.536 105.867 133.833 105.575 134.031 105.221C134.239 104.867 134.344 104.492 134.344 104.096V102.768C134.281 102.841 134.146 102.909 133.937 102.971C133.739 103.023 133.505 103.075 133.234 103.128C132.963 103.169 132.703 103.206 132.453 103.237C132.203 103.268 132 103.294 131.844 103.315C131.458 103.357 131.104 103.435 130.781 103.549C130.458 103.654 130.198 103.815 130 104.034C129.802 104.253 129.703 104.544 129.703 104.909C129.703 105.409 129.89 105.789 130.265 106.049C130.64 106.31 131.114 106.44 131.687 106.44ZM139.912 94.9088V107.518H138.459V94.9088L139.912 94.9088ZM144.022 94.9088V107.518H142.569V94.9088L144.022 94.9088ZM147.617 111.065C147.367 111.065 147.143 111.044 146.945 111.003C146.758 110.961 146.628 110.924 146.555 110.893L146.93 109.612C147.284 109.706 147.596 109.737 147.867 109.706C148.138 109.685 148.378 109.565 148.586 109.346C148.794 109.128 148.987 108.779 149.164 108.299L149.43 107.565L145.945 98.065H147.523L150.133 105.596H150.226L152.836 98.065H154.414L150.398 108.893C150.221 109.383 149.997 109.789 149.726 110.112C149.456 110.435 149.143 110.674 148.789 110.831C148.445 110.987 148.055 111.065 147.617 111.065Z" fill="white"/>
<path d="M292 77.7244H374.362" stroke="#A4A4A4" stroke-miterlimit="10" stroke-linejoin="round"/>
<path d="M292 77.727L374.362 129.979" stroke="#A4A4A4" stroke-miterlimit="10" stroke-linejoin="round"/>
<path fill-rule="evenodd" clip-rule="evenodd" d="M250 42C219.53 42 213 48.5305 213 79C213 109.469 219.53 116 250 116C280.469 116 287 109.469 287 79C287 48.5305 280.469 42 250 42ZM232.063 66.012C231.696 66.5518 231.5 67.1895 231.5 67.8422V93.3627C231.5 94.2171 232.465 94.7152 233.161 94.2206L235.702 92.4167C236.405 91.9176 236.822 91.109 236.822 90.2469V71.0827C236.822 70.7445 237.204 70.5468 237.48 70.7416L249.368 79.1169C249.606 79.285 249.603 79.6398 249.361 79.8035L245.489 82.4265C244.262 83.2579 243.957 84.9352 244.813 86.1456C245.651 87.3314 247.289 87.6199 248.482 86.792L254.444 82.6564C255.32 82.0482 255.843 81.049 255.843 79.982V78.8347C255.843 77.7885 255.34 76.8061 254.492 76.1943L237.786 64.1521L237.282 63.8439C235.801 62.9388 233.87 63.3556 232.893 64.7912L232.063 66.012ZM249.189 64.7166C248.345 65.9099 248.621 67.5604 249.807 68.4145L264.416 78.9362C264.642 79.0993 264.648 79.4345 264.427 79.6051L252.187 89.0603C251.043 89.9438 250.812 91.5778 251.665 92.7441C252.548 93.9508 254.251 94.1954 255.438 93.2861L269.512 82.5037C270.295 81.9036 270.755 80.973 270.755 79.9861V78.5329C270.755 77.5117 270.263 76.553 269.434 75.9572L252.916 64.0914C251.716 63.2288 250.042 63.5095 249.189 64.7166Z" fill="white"/>
<path fill-rule="evenodd" clip-rule="evenodd" d="M374.362 112.386C374.362 110.47 375.916 108.916 377.832 108.916H567.522C568.443 108.916 569.325 109.282 569.976 109.932C570.627 110.583 570.992 111.466 570.992 112.386V150.863C570.992 152.78 569.439 154.333 567.522 154.333H377.832C375.916 154.333 374.362 152.78 374.362 150.863V112.386Z" fill="white" fill-opacity="0.2"/>
<path d="M390.483 131.074L389.429 131.372C389.363 131.196 389.265 131.026 389.136 130.86C389.01 130.691 388.837 130.552 388.619 130.442C388.4 130.333 388.12 130.278 387.778 130.278C387.311 130.278 386.922 130.386 386.61 130.602C386.302 130.814 386.148 131.084 386.148 131.412C386.148 131.704 386.254 131.934 386.466 132.103C386.678 132.272 387.009 132.413 387.46 132.526L388.594 132.804C389.277 132.97 389.785 133.223 390.12 133.565C390.455 133.903 390.622 134.339 390.622 134.872C390.622 135.31 390.496 135.701 390.244 136.045C389.996 136.39 389.648 136.662 389.2 136.861C388.753 137.06 388.232 137.159 387.639 137.159C386.86 137.159 386.216 136.99 385.705 136.652C385.195 136.314 384.872 135.82 384.736 135.17L385.849 134.892C385.955 135.303 386.156 135.611 386.451 135.817C386.749 136.022 387.139 136.125 387.619 136.125C388.166 136.125 388.6 136.009 388.922 135.777C389.247 135.542 389.409 135.26 389.409 134.932C389.409 134.667 389.316 134.445 389.131 134.266C388.945 134.083 388.66 133.947 388.276 133.858L387.003 133.56C386.304 133.394 385.79 133.137 385.462 132.789C385.137 132.438 384.974 131.999 384.974 131.472C384.974 131.041 385.095 130.66 385.337 130.328C385.583 129.997 385.916 129.737 386.337 129.548C386.761 129.359 387.241 129.264 387.778 129.264C388.534 129.264 389.127 129.43 389.558 129.761C389.992 130.093 390.301 130.53 390.483 131.074ZM395.59 137.159C394.854 137.159 394.22 136.997 393.686 136.672C393.156 136.344 392.746 135.886 392.458 135.3C392.173 134.71 392.03 134.024 392.03 133.241C392.03 132.459 392.173 131.77 392.458 131.173C392.746 130.573 393.147 130.106 393.661 129.771C394.178 129.433 394.781 129.264 395.471 129.264C395.868 129.264 396.261 129.33 396.649 129.463C397.037 129.596 397.39 129.811 397.708 130.109C398.026 130.404 398.28 130.795 398.469 131.283C398.657 131.77 398.752 132.37 398.752 133.082V133.58H392.866V132.565H397.559C397.559 132.134 397.473 131.75 397.3 131.412C397.131 131.074 396.889 130.807 396.574 130.612C396.263 130.416 395.895 130.318 395.471 130.318C395.003 130.318 394.599 130.434 394.258 130.666C393.92 130.895 393.659 131.193 393.477 131.561C393.295 131.929 393.204 132.323 393.204 132.744V133.42C393.204 133.997 393.303 134.486 393.502 134.887C393.704 135.285 393.984 135.588 394.342 135.797C394.7 136.002 395.116 136.105 395.59 136.105C395.898 136.105 396.177 136.062 396.425 135.976C396.677 135.886 396.894 135.754 397.077 135.578C397.259 135.399 397.4 135.177 397.499 134.912L398.633 135.23C398.513 135.615 398.313 135.953 398.031 136.244C397.749 136.533 397.401 136.758 396.987 136.92C396.573 137.08 396.107 137.159 395.59 137.159ZM400.537 137V129.364H401.67V130.517H401.75C401.889 130.139 402.141 129.833 402.506 129.597C402.87 129.362 403.281 129.244 403.738 129.244C403.825 129.244 403.932 129.246 404.062 129.249C404.191 129.253 404.289 129.258 404.355 129.264V130.457C404.315 130.447 404.224 130.433 404.081 130.413C403.942 130.389 403.795 130.378 403.639 130.378C403.268 130.378 402.936 130.456 402.645 130.612C402.356 130.764 402.128 130.976 401.959 131.248C401.793 131.516 401.71 131.823 401.71 132.168V137H400.537ZM412.222 129.364L409.399 137H408.205L405.382 129.364H406.654L408.762 135.449H408.842L410.95 129.364H412.222ZM413.771 137V129.364H414.944V137H413.771ZM414.368 128.091C414.139 128.091 413.942 128.013 413.776 127.857C413.614 127.701 413.532 127.514 413.532 127.295C413.532 127.077 413.614 126.889 413.776 126.734C413.942 126.578 414.139 126.5 414.368 126.5C414.596 126.5 414.792 126.578 414.954 126.734C415.12 126.889 415.203 127.077 415.203 127.295C415.203 127.514 415.12 127.701 414.954 127.857C414.792 128.013 414.596 128.091 414.368 128.091ZM420.196 137.159C419.48 137.159 418.863 136.99 418.346 136.652C417.829 136.314 417.431 135.848 417.153 135.255C416.875 134.662 416.735 133.984 416.735 133.222C416.735 132.446 416.878 131.762 417.163 131.168C417.451 130.572 417.852 130.106 418.366 129.771C418.883 129.433 419.486 129.264 420.176 129.264C420.713 129.264 421.197 129.364 421.627 129.562C422.058 129.761 422.411 130.04 422.686 130.398C422.962 130.756 423.132 131.173 423.199 131.651H422.025C421.936 131.303 421.737 130.994 421.429 130.726C421.124 130.454 420.713 130.318 420.196 130.318C419.738 130.318 419.337 130.437 418.993 130.676C418.651 130.911 418.384 131.245 418.192 131.675C418.003 132.103 417.909 132.605 417.909 133.182C417.909 133.772 418.002 134.286 418.187 134.723C418.376 135.161 418.641 135.5 418.983 135.742C419.327 135.984 419.732 136.105 420.196 136.105C420.501 136.105 420.777 136.052 421.026 135.946C421.275 135.84 421.485 135.688 421.657 135.489C421.83 135.29 421.952 135.051 422.025 134.773H423.199C423.132 135.223 422.968 135.629 422.706 135.991C422.448 136.349 422.105 136.634 421.677 136.846C421.253 137.055 420.759 137.159 420.196 137.159ZM428.115 137.159C427.38 137.159 426.745 136.997 426.211 136.672C425.681 136.344 425.272 135.886 424.983 135.3C424.698 134.71 424.556 134.024 424.556 133.241C424.556 132.459 424.698 131.77 424.983 131.173C425.272 130.573 425.673 130.106 426.186 129.771C426.703 129.433 427.307 129.264 427.996 129.264C428.394 129.264 428.787 129.33 429.174 129.463C429.562 129.596 429.915 129.811 430.233 130.109C430.551 130.404 430.805 130.795 430.994 131.283C431.183 131.77 431.277 132.37 431.277 133.082V133.58H425.391V132.565H430.084C430.084 132.134 429.998 131.75 429.826 131.412C429.657 131.074 429.415 130.807 429.1 130.612C428.788 130.416 428.42 130.318 427.996 130.318C427.529 130.318 427.124 130.434 426.783 130.666C426.445 130.895 426.185 131.193 426.002 131.561C425.82 131.929 425.729 132.323 425.729 132.744V133.42C425.729 133.997 425.828 134.486 426.027 134.887C426.23 135.285 426.51 135.588 426.868 135.797C427.225 136.002 427.641 136.105 428.115 136.105C428.424 136.105 428.702 136.062 428.951 135.976C429.203 135.886 429.42 135.754 429.602 135.578C429.784 135.399 429.925 135.177 430.025 134.912L431.158 135.23C431.039 135.615 430.838 135.953 430.556 136.244C430.275 136.533 429.927 136.758 429.512 136.92C429.098 137.08 428.632 137.159 428.115 137.159ZM436.98 137V136.105L440.341 132.426C440.735 131.995 441.06 131.621 441.315 131.303C441.57 130.981 441.759 130.679 441.882 130.398C442.008 130.113 442.071 129.814 442.071 129.503C442.071 129.145 441.984 128.835 441.812 128.573C441.643 128.311 441.411 128.109 441.116 127.967C440.821 127.824 440.49 127.753 440.122 127.753C439.731 127.753 439.389 127.834 439.098 127.996C438.809 128.156 438.586 128.379 438.426 128.668C438.271 128.956 438.193 129.294 438.193 129.682H437.02C437.02 129.085 437.157 128.562 437.432 128.111C437.707 127.66 438.082 127.309 438.556 127.057C439.033 126.805 439.568 126.679 440.162 126.679C440.758 126.679 441.287 126.805 441.748 127.057C442.208 127.309 442.569 127.648 442.831 128.076C443.093 128.504 443.224 128.979 443.224 129.503C443.224 129.877 443.156 130.244 443.02 130.602C442.888 130.956 442.656 131.352 442.324 131.79C441.996 132.224 441.54 132.754 440.957 133.381L438.67 135.827V135.906H443.403V137H436.98Z" fill="white"/>
<path fill-rule="evenodd" clip-rule="evenodd" d="M374.362 58.9974C374.362 57.0811 375.916 55.5276 377.832 55.5276H567.522C568.443 55.5276 569.325 55.8931 569.976 56.5439C570.627 57.1946 570.992 58.0772 570.992 58.9974V97.475C570.992 99.3914 569.439 100.945 567.522 100.945H377.832C375.916 100.945 374.362 99.3914 374.362 97.475V58.9974Z" fill="white" fill-opacity="0.2"/>
<path d="M390.483 78.0739L389.429 78.3722C389.363 78.1965 389.265 78.0258 389.136 77.8601C389.01 77.6911 388.837 77.5518 388.619 77.4425C388.4 77.3331 388.12 77.2784 387.778 77.2784C387.311 77.2784 386.922 77.3861 386.61 77.6016C386.302 77.8137 386.148 78.0838 386.148 78.4119C386.148 78.7036 386.254 78.9339 386.466 79.103C386.678 79.272 387.009 79.4129 387.46 79.5256L388.594 79.804C389.277 79.9697 389.785 80.2232 390.12 80.5646C390.455 80.9027 390.622 81.3385 390.622 81.8722C390.622 82.3097 390.496 82.7008 390.244 83.0455C389.996 83.3902 389.648 83.6619 389.2 83.8608C388.753 84.0597 388.232 84.1591 387.639 84.1591C386.86 84.1591 386.216 83.9901 385.705 83.652C385.195 83.3139 384.872 82.8201 384.736 82.1705L385.849 81.892C385.955 82.303 386.156 82.6113 386.451 82.8168C386.749 83.0223 387.139 83.125 387.619 83.125C388.166 83.125 388.6 83.009 388.922 82.777C389.247 82.5417 389.409 82.2599 389.409 81.9318C389.409 81.6667 389.316 81.4446 389.131 81.2656C388.945 81.0833 388.66 80.9474 388.276 80.858L387.003 80.5597C386.304 80.3939 385.79 80.1371 385.462 79.7891C385.137 79.4377 384.974 78.9986 384.974 78.4716C384.974 78.0407 385.095 77.6596 385.337 77.3281C385.583 76.9967 385.916 76.7365 386.337 76.5476C386.761 76.3587 387.241 76.2642 387.778 76.2642C388.534 76.2642 389.127 76.4299 389.558 76.7614C389.992 77.0928 390.301 77.5303 390.483 78.0739ZM395.59 84.1591C394.854 84.1591 394.22 83.9967 393.686 83.6719C393.156 83.3438 392.746 82.8864 392.458 82.2997C392.173 81.7098 392.03 81.0237 392.03 80.2415C392.03 79.4593 392.173 78.7699 392.458 78.1733C392.746 77.5734 393.147 77.1061 393.661 76.7713C394.178 76.4332 394.781 76.2642 395.471 76.2642C395.868 76.2642 396.261 76.3305 396.649 76.4631C397.037 76.5956 397.39 76.8111 397.708 77.1094C398.026 77.4044 398.28 77.7955 398.469 78.2827C398.657 78.7699 398.752 79.3698 398.752 80.0824V80.5795H392.866V79.5653H397.559C397.559 79.1345 397.473 78.75 397.3 78.4119C397.131 78.0739 396.889 77.8071 396.574 77.6115C396.263 77.416 395.895 77.3182 395.471 77.3182C395.003 77.3182 394.599 77.4342 394.258 77.6662C393.92 77.8949 393.659 78.1932 393.477 78.5611C393.295 78.929 393.204 79.3234 393.204 79.7443V80.4205C393.204 80.9972 393.303 81.486 393.502 81.8871C393.704 82.2848 393.984 82.5881 394.342 82.7969C394.7 83.0024 395.116 83.1051 395.59 83.1051C395.898 83.1051 396.177 83.062 396.425 82.9759C396.677 82.8864 396.894 82.7538 397.077 82.5781C397.259 82.3991 397.4 82.1771 397.499 81.9119L398.633 82.2301C398.513 82.6146 398.313 82.9527 398.031 83.2443C397.749 83.5327 397.401 83.758 396.987 83.9205C396.573 84.0795 396.107 84.1591 395.59 84.1591ZM400.537 84V76.3636H401.67V77.517H401.75C401.889 77.1392 402.141 76.8326 402.506 76.5973C402.87 76.362 403.281 76.2443 403.738 76.2443C403.825 76.2443 403.932 76.246 404.062 76.2493C404.191 76.2526 404.289 76.2576 404.355 76.2642V77.4574C404.315 77.4474 404.224 77.4325 404.081 77.4126C403.942 77.3894 403.795 77.3778 403.639 77.3778C403.268 77.3778 402.936 77.4557 402.645 77.6115C402.356 77.764 402.128 77.9761 401.959 78.2479C401.793 78.5163 401.71 78.8229 401.71 79.1676V84H400.537ZM412.222 76.3636L409.399 84H408.205L405.382 76.3636H406.654L408.762 82.4489H408.842L410.95 76.3636H412.222ZM413.771 84V76.3636H414.944V84H413.771ZM414.368 75.0909C414.139 75.0909 413.942 75.013 413.776 74.8572C413.614 74.7015 413.532 74.5142 413.532 74.2955C413.532 74.0767 413.614 73.8894 413.776 73.7337C413.942 73.5779 414.139 73.5 414.368 73.5C414.596 73.5 414.792 73.5779 414.954 73.7337C415.12 73.8894 415.203 74.0767 415.203 74.2955C415.203 74.5142 415.12 74.7015 414.954 74.8572C414.792 75.013 414.596 75.0909 414.368 75.0909ZM420.196 84.1591C419.48 84.1591 418.863 83.9901 418.346 83.652C417.829 83.3139 417.431 82.8482 417.153 82.255C416.875 81.6617 416.735 80.9839 416.735 80.2216C416.735 79.446 416.878 78.7616 417.163 78.1683C417.451 77.5717 417.852 77.1061 418.366 76.7713C418.883 76.4332 419.486 76.2642 420.176 76.2642C420.713 76.2642 421.197 76.3636 421.627 76.5625C422.058 76.7614 422.411 77.0398 422.686 77.3977C422.962 77.7557 423.132 78.1733 423.199 78.6506H422.025C421.936 78.3026 421.737 77.9943 421.429 77.7259C421.124 77.4541 420.713 77.3182 420.196 77.3182C419.738 77.3182 419.337 77.4375 418.993 77.6761C418.651 77.9115 418.384 78.2446 418.192 78.6754C418.003 79.103 417.909 79.6051 417.909 80.1818C417.909 80.7718 418.002 81.2855 418.187 81.723C418.376 82.1605 418.641 82.5002 418.983 82.7422C419.327 82.9841 419.732 83.1051 420.196 83.1051C420.501 83.1051 420.777 83.0521 421.026 82.946C421.275 82.84 421.485 82.6875 421.657 82.4886C421.83 82.2898 421.952 82.0511 422.025 81.7727H423.199C423.132 82.2235 422.968 82.6295 422.706 82.9908C422.448 83.3487 422.105 83.6338 421.677 83.8459C421.253 84.0547 420.759 84.1591 420.196 84.1591ZM428.115 84.1591C427.38 84.1591 426.745 83.9967 426.211 83.6719C425.681 83.3438 425.272 82.8864 424.983 82.2997C424.698 81.7098 424.556 81.0237 424.556 80.2415C424.556 79.4593 424.698 78.7699 424.983 78.1733C425.272 77.5734 425.673 77.1061 426.186 76.7713C426.703 76.4332 427.307 76.2642 427.996 76.2642C428.394 76.2642 428.787 76.3305 429.174 76.4631C429.562 76.5956 429.915 76.8111 430.233 77.1094C430.551 77.4044 430.805 77.7955 430.994 78.2827C431.183 78.7699 431.277 79.3698 431.277 80.0824V80.5795H425.391V79.5653H430.084C430.084 79.1345 429.998 78.75 429.826 78.4119C429.657 78.0739 429.415 77.8071 429.1 77.6115C428.788 77.416 428.42 77.3182 427.996 77.3182C427.529 77.3182 427.124 77.4342 426.783 77.6662C426.445 77.8949 426.185 78.1932 426.002 78.5611C425.82 78.929 425.729 79.3234 425.729 79.7443V80.4205C425.729 80.9972 425.828 81.486 426.027 81.8871C426.23 82.2848 426.51 82.5881 426.868 82.7969C427.225 83.0024 427.641 83.1051 428.115 83.1051C428.424 83.1051 428.702 83.062 428.951 82.9759C429.203 82.8864 429.42 82.7538 429.602 82.5781C429.784 82.3991 429.925 82.1771 430.025 81.9119L431.158 82.2301C431.039 82.6146 430.838 82.9527 430.556 83.2443C430.275 83.5327 429.927 83.758 429.512 83.9205C429.098 84.0795 428.632 84.1591 428.115 84.1591ZM440.559 73.8182V84H439.326V75.1108H439.267L436.781 76.7614V75.5085L439.326 73.8182H440.559Z" fill="white"/>
<path fill-rule="evenodd" clip-rule="evenodd" d="M374.362 6.23104C374.362 4.31467 375.916 2.76115 377.832 2.76115H567.522C568.443 2.76115 569.325 3.12673 569.976 3.77746C570.627 4.42819 570.992 5.31077 570.992 6.23104V44.7086C570.992 46.625 569.439 48.1785 567.522 48.1785H377.832C375.916 48.1785 374.362 46.625 374.362 44.7086V6.23104Z" fill="white" fill-opacity="0.2"/>
<path d="M386.804 30L384.477 22.3636H385.71L387.361 28.2102H387.44L389.071 22.3636H390.324L391.935 28.1903H392.014L393.665 22.3636H394.898L392.571 30H391.418L389.747 24.1335H389.628L387.957 30H386.804ZM399.291 30.1591C398.602 30.1591 397.997 29.995 397.477 29.6669C396.96 29.3388 396.555 28.8797 396.264 28.2898C395.975 27.6998 395.831 27.0104 395.831 26.2216C395.831 25.4261 395.975 24.7318 396.264 24.1385C396.555 23.5452 396.96 23.0845 397.477 22.7564C397.997 22.4283 398.602 22.2642 399.291 22.2642C399.981 22.2642 400.584 22.4283 401.101 22.7564C401.621 23.0845 402.026 23.5452 402.314 24.1385C402.606 24.7318 402.752 25.4261 402.752 26.2216C402.752 27.0104 402.606 27.6998 402.314 28.2898C402.026 28.8797 401.621 29.3388 401.101 29.6669C400.584 29.995 399.981 30.1591 399.291 30.1591ZM399.291 29.1051C399.815 29.1051 400.246 28.9709 400.584 28.7024C400.922 28.4339 401.172 28.081 401.335 27.6435C401.497 27.206 401.578 26.732 401.578 26.2216C401.578 25.7112 401.497 25.2356 401.335 24.7947C401.172 24.3539 400.922 23.9976 400.584 23.7259C400.246 23.4541 399.815 23.3182 399.291 23.3182C398.768 23.3182 398.337 23.4541 397.999 23.7259C397.661 23.9976 397.41 24.3539 397.248 24.7947C397.086 25.2356 397.004 25.7112 397.004 26.2216C397.004 26.732 397.086 27.206 397.248 27.6435C397.41 28.081 397.661 28.4339 397.999 28.7024C398.337 28.9709 398.768 29.1051 399.291 29.1051ZM404.543 30V22.3636H405.676V23.517H405.756C405.895 23.1392 406.147 22.8326 406.511 22.5973C406.876 22.362 407.287 22.2443 407.744 22.2443C407.83 22.2443 407.938 22.246 408.067 22.2493C408.197 22.2526 408.295 22.2576 408.361 22.2642V23.4574C408.321 23.4474 408.23 23.4325 408.087 23.4126C407.948 23.3894 407.801 23.3778 407.645 23.3778C407.274 23.3778 406.942 23.4557 406.651 23.6115C406.362 23.764 406.134 23.9761 405.964 24.2479C405.799 24.5163 405.716 24.8229 405.716 25.1676V30H404.543ZM410.845 27.2159L410.825 25.7642H411.064L414.405 22.3636H415.857L412.297 25.9631H412.198L410.845 27.2159ZM409.752 30V19.8182H410.925V30H409.752ZM414.604 30L411.621 26.2216L412.456 25.4062L416.095 30H414.604ZM420.767 22.3636V23.358H416.651V22.3636H420.767ZM417.884 30V21.3097C417.884 20.8722 417.987 20.5076 418.192 20.2159C418.398 19.9242 418.664 19.7055 418.993 19.5597C419.321 19.4138 419.667 19.3409 420.032 19.3409C420.32 19.3409 420.555 19.3641 420.738 19.4105C420.92 19.4569 421.056 19.5 421.145 19.5398L420.807 20.554C420.748 20.5341 420.665 20.5092 420.559 20.4794C420.456 20.4496 420.32 20.4347 420.151 20.4347C419.763 20.4347 419.483 20.5324 419.311 20.728C419.142 20.9235 419.057 21.2102 419.057 21.5881V30H417.884ZM423.585 19.8182V30H422.412V19.8182H423.585ZM428.836 30.1591C428.147 30.1591 427.542 29.995 427.022 29.6669C426.505 29.3388 426.1 28.8797 425.809 28.2898C425.52 27.6998 425.376 27.0104 425.376 26.2216C425.376 25.4261 425.52 24.7318 425.809 24.1385C426.1 23.5452 426.505 23.0845 427.022 22.7564C427.542 22.4283 428.147 22.2642 428.836 22.2642C429.526 22.2642 430.129 22.4283 430.646 22.7564C431.166 23.0845 431.571 23.5452 431.859 24.1385C432.151 24.7318 432.297 25.4261 432.297 26.2216C432.297 27.0104 432.151 27.6998 431.859 28.2898C431.571 28.8797 431.166 29.3388 430.646 29.6669C430.129 29.995 429.526 30.1591 428.836 30.1591ZM428.836 29.1051C429.36 29.1051 429.791 28.9709 430.129 28.7024C430.467 28.4339 430.717 28.081 430.88 27.6435C431.042 27.206 431.123 26.732 431.123 26.2216C431.123 25.7112 431.042 25.2356 430.88 24.7947C430.717 24.3539 430.467 23.9976 430.129 23.7259C429.791 23.4541 429.36 23.3182 428.836 23.3182C428.313 23.3182 427.882 23.4541 427.544 23.7259C427.206 23.9976 426.955 24.3539 426.793 24.7947C426.631 25.2356 426.549 25.7112 426.549 26.2216C426.549 26.732 426.631 27.206 426.793 27.6435C426.955 28.081 427.206 28.4339 427.544 28.7024C427.882 28.9709 428.313 29.1051 428.836 29.1051ZM435.558 30L433.231 22.3636H434.464L436.115 28.2102H436.194L437.825 22.3636H439.078L440.689 28.1903H440.768L442.419 22.3636H443.652L441.325 30H440.172L438.501 24.1335H438.382L436.711 30H435.558ZM449.14 30V22.3636H450.274V23.517H450.353C450.493 23.1392 450.744 22.8326 451.109 22.5973C451.474 22.362 451.885 22.2443 452.342 22.2443C452.428 22.2443 452.536 22.246 452.665 22.2493C452.794 22.2526 452.892 22.2576 452.958 22.2642V23.4574C452.919 23.4474 452.828 23.4325 452.685 23.4126C452.546 23.3894 452.398 23.3778 452.243 23.3778C451.871 23.3778 451.54 23.4557 451.248 23.6115C450.96 23.764 450.731 23.9761 450.562 24.2479C450.396 24.5163 450.314 24.8229 450.314 25.1676V30H449.14ZM459.162 26.8778V22.3636H460.335V30H459.162V28.7074H459.082C458.903 29.0952 458.625 29.425 458.247 29.6967C457.869 29.9652 457.392 30.0994 456.815 30.0994C456.338 30.0994 455.914 29.995 455.542 29.7862C455.171 29.5741 454.88 29.2559 454.667 28.8317C454.455 28.4041 454.349 27.8655 454.349 27.2159V22.3636H455.523V27.1364C455.523 27.6932 455.678 28.1373 455.99 28.4688C456.305 28.8002 456.706 28.9659 457.193 28.9659C457.485 28.9659 457.781 28.8913 458.083 28.7422C458.388 28.593 458.643 28.3643 458.849 28.0561C459.057 27.7479 459.162 27.3551 459.162 26.8778ZM463.657 25.4062V30H462.484V22.3636H463.618V23.5568H463.717C463.896 23.169 464.168 22.8575 464.532 22.6222C464.897 22.3835 465.368 22.2642 465.944 22.2642C466.461 22.2642 466.914 22.3703 467.301 22.5824C467.689 22.7912 467.991 23.1094 468.206 23.5369C468.422 23.9612 468.529 24.4981 468.529 25.1477V30H467.356V25.2273C467.356 24.6274 467.2 24.16 466.889 23.8253C466.577 23.4872 466.15 23.3182 465.606 23.3182C465.232 23.3182 464.897 23.3994 464.602 23.5618C464.31 23.7242 464.08 23.9612 463.911 24.2727C463.742 24.5843 463.657 24.9621 463.657 25.4062ZM471.091 25.7045C471.091 24.4517 471.253 23.3 471.578 22.2493C471.906 21.1953 472.374 20.2259 472.98 19.3409H474.014C473.776 19.669 473.552 20.0734 473.343 20.554C473.138 21.0312 472.957 21.5566 472.801 22.13C472.646 22.7 472.523 23.29 472.433 23.8999C472.347 24.5097 472.304 25.1113 472.304 25.7045C472.304 26.4934 472.38 27.2938 472.533 28.1058C472.685 28.9179 472.891 29.6719 473.149 30.3679C473.408 31.0639 473.696 31.6307 474.014 32.0682H472.98C472.374 31.1832 471.906 30.2154 471.578 29.1648C471.253 28.1108 471.091 26.9574 471.091 25.7045ZM478.251 25.7045C478.251 26.9574 478.087 28.1108 477.759 29.1648C477.434 30.2154 476.969 31.1832 476.362 32.0682H475.328C475.567 31.7401 475.789 31.3357 475.994 30.8551C476.203 30.3778 476.385 29.8542 476.541 29.2841C476.697 28.7107 476.818 28.1191 476.904 27.5092C476.994 26.8961 477.038 26.2945 477.038 25.7045C477.038 24.9157 476.962 24.1153 476.81 23.3033C476.657 22.4912 476.452 21.7372 476.193 21.0412C475.935 20.3452 475.646 19.7784 475.328 19.3409H476.362C476.969 20.2259 477.434 21.1953 477.759 22.2493C478.087 23.3 478.251 24.4517 478.251 25.7045Z" fill="white"/>
<path d="M561 65.001H535V91.001H561V65.001Z" fill="white" fill-opacity="0.2"/>
<path d="M542.833 69.7109V73.4924H545.498L551.713 86.297H555.982V82.538H554.327L548.104 69.7109H542.833Z" fill="white"/>
<path d="M544.743 76.4222L546.966 81.0033L544.552 86.2651H540.094L544.743 76.4222Z" fill="white"/>
<g clip-path="url(#clip1_0_3)">
<path d="M549.689 26.976C549.65 26.9685 549.61 26.9655 549.571 26.9672C549.503 26.9707 549.436 26.9877 549.374 27.0169C549.255 27.073 549.162 27.1716 549.116 27.2924C549.07 27.4131 549.073 27.5466 549.125 27.665L549.122 27.67L550.299 30.4373C551.425 29.738 552.28 28.6934 552.728 27.4686L549.694 26.9698L549.689 26.976ZM544.969 27.3682C544.943 27.2591 544.881 27.1615 544.791 27.091C544.702 27.0205 544.591 26.9812 544.476 26.9794C544.442 26.979 544.408 26.982 544.375 26.9882L544.37 26.9821L541.362 27.4788C541.814 28.694 542.665 29.7301 543.784 30.4266L544.949 27.6865L544.94 27.6758C544.983 27.5788 544.993 27.471 544.969 27.3682ZM547.487 28.4427C547.443 28.363 547.378 28.2965 547.298 28.2501C547.218 28.2037 547.127 28.1793 547.034 28.1794C546.941 28.1795 546.85 28.2042 546.771 28.2507C546.691 28.2973 546.626 28.364 546.582 28.4438H546.58L545.101 31.0458C546.16 31.3966 547.298 31.4536 548.388 31.2103C548.59 31.1656 548.788 31.1118 548.981 31.0492L547.498 28.4426L547.487 28.4427ZM552.169 22.3984L549.893 24.38L549.895 24.3863C549.825 24.4458 549.773 24.5225 549.744 24.6085C549.715 24.6944 549.711 24.7863 549.732 24.8743C549.753 24.9624 549.797 25.0434 549.861 25.1087C549.926 25.174 550.007 25.2212 550.096 25.2453L550.099 25.2572L553.046 26.0833C553.174 24.7949 552.866 23.5012 552.169 22.3987V22.3984ZM547.942 22.6204C547.946 22.7107 547.975 22.7981 548.026 22.8735C548.078 22.9488 548.149 23.0092 548.233 23.0484C548.316 23.0875 548.409 23.1038 548.502 23.0956C548.594 23.0874 548.683 23.055 548.758 23.0019L548.767 23.0055L551.257 21.2878C550.309 20.3846 549.082 19.8094 547.766 19.6505L547.939 22.6196L547.942 22.6204ZM545.305 23.0128C545.38 23.0659 545.468 23.0982 545.561 23.1063C545.653 23.1143 545.746 23.0979 545.83 23.0586C545.914 23.0193 545.985 22.9587 546.036 22.8832C546.087 22.8077 546.116 22.7202 546.12 22.63L546.133 22.6242L546.306 19.6504C546.097 19.6748 545.889 19.7096 545.684 19.7546C544.593 19.9933 543.592 20.5241 542.794 21.287L545.3 23.0156L545.305 23.0128ZM543.969 25.2598C544.058 25.236 544.14 25.1889 544.204 25.1236C544.269 25.0583 544.314 24.9773 544.334 24.8891C544.355 24.8009 544.351 24.7089 544.322 24.6228C544.293 24.5368 544.241 24.46 544.171 24.4007L544.173 24.3889L541.885 22.3977C541.187 23.5031 540.887 24.8033 541.034 26.0928L543.966 25.2694L543.969 25.2598ZM546.191 26.1345L547.035 26.5293L547.877 26.1353L548.086 25.2513L547.503 24.5426H546.566L545.982 25.2502L546.191 26.1345Z" fill="white" fill-opacity="0.2"/>
<path d="M560.988 27.876L558.583 17.7115C558.518 17.4485 558.395 17.2028 558.22 16.9921C558.046 16.7813 557.826 16.6108 557.576 16.4928L547.841 11.9703C547.589 11.8532 547.313 11.7924 547.033 11.7924C546.754 11.7924 546.477 11.8532 546.225 11.9703L536.492 16.4952C536.242 16.6131 536.022 16.7836 535.848 16.9943C535.673 17.2051 535.549 17.4508 535.485 17.7138L533.084 27.878C533.024 28.135 533.024 28.4014 533.083 28.6584C533.1 28.7367 533.123 28.8138 533.151 28.8892C533.198 29.0178 533.26 29.1407 533.336 29.2553C533.369 29.3044 533.404 29.352 533.442 29.3983L540.179 37.5484C540.209 37.5839 540.241 37.6163 540.273 37.6492C540.379 37.7587 540.498 37.8549 540.628 37.9357C540.793 38.0365 540.973 38.1125 541.161 38.1609C541.315 38.2021 541.474 38.2234 541.634 38.2244H541.739L552.438 38.222C552.503 38.2217 552.568 38.218 552.633 38.2109C552.726 38.2007 552.818 38.1837 552.908 38.1601C552.972 38.1436 553.036 38.1237 553.098 38.1007C553.147 38.0826 553.196 38.0645 553.243 38.0426C553.313 38.0098 553.381 37.973 553.447 37.9322C553.616 37.8285 553.767 37.6985 553.894 37.5473L554.099 37.2989L560.628 29.3956C560.754 29.2429 560.852 29.0711 560.919 28.8872C560.948 28.8115 560.971 28.7342 560.989 28.6556C561.048 28.3986 561.047 28.1321 560.988 27.8752L560.988 27.876ZM550.89 31.8293C550.918 31.9075 550.95 31.9839 550.987 32.058C550.928 32.1594 550.912 32.2795 550.942 32.3925C551.084 32.7081 551.257 33.0095 551.459 33.2924C551.572 33.437 551.676 33.5879 551.771 33.7443C551.795 33.7866 551.825 33.8521 551.848 33.8968C551.89 33.965 551.916 34.041 551.926 34.1199C551.936 34.1988 551.929 34.2788 551.905 34.3548C551.882 34.4309 551.842 34.5012 551.788 34.5614C551.735 34.6216 551.669 34.6702 551.595 34.7041C551.522 34.7381 551.441 34.7567 551.36 34.7586C551.278 34.7606 551.197 34.7459 551.121 34.7154C551.046 34.685 550.978 34.6396 550.921 34.5821C550.865 34.5245 550.822 34.4561 550.794 34.3813C550.772 34.337 550.741 34.2779 550.722 34.236C550.656 34.0661 550.599 33.8926 550.553 33.7165C550.452 33.3868 550.318 33.0675 550.153 32.7632C550.082 32.6691 549.975 32.6061 549.856 32.5876C549.837 32.5563 549.768 32.4332 549.731 32.3696C547.998 33.0082 546.084 33.0034 544.355 32.3562L544.223 32.5886C544.129 32.6028 544.041 32.6443 543.972 32.7077C543.773 33.025 543.621 33.3678 543.521 33.7261C543.475 33.9023 543.419 34.0758 543.352 34.2457C543.334 34.2873 543.303 34.3456 543.28 34.3898V34.391L543.279 34.3921C543.252 34.467 543.209 34.5355 543.152 34.5931C543.096 34.6507 543.028 34.6962 542.952 34.7266C542.877 34.757 542.795 34.7717 542.714 34.7697C542.632 34.7677 542.551 34.749 542.478 34.7149C542.404 34.6808 542.338 34.632 542.285 34.5717C542.231 34.5113 542.192 34.4408 542.168 34.3646C542.145 34.2884 542.138 34.2083 542.148 34.1294C542.158 34.0504 542.185 33.9745 542.228 33.9064C542.25 33.8614 542.279 33.7962 542.302 33.7539C542.397 33.5972 542.501 33.4459 542.614 33.3009C542.82 33.0105 542.997 32.7017 543.142 32.3786C543.157 32.2691 543.139 32.1576 543.09 32.058L543.196 31.8109C541.601 30.8952 540.406 29.4434 539.836 27.7293L539.582 27.7714C539.484 27.7034 539.368 27.6636 539.247 27.6565C538.9 27.7212 538.56 27.8186 538.232 27.9473C538.061 28.0219 537.887 28.0869 537.709 28.1421C537.667 28.1534 537.606 28.1647 537.558 28.1749C537.554 28.1762 537.551 28.1778 537.547 28.1788C537.544 28.1792 537.541 28.1795 537.538 28.1796C537.461 28.2043 537.379 28.2131 537.298 28.2053C537.217 28.1975 537.138 28.1734 537.067 28.1344C536.997 28.0954 536.935 28.0425 536.886 27.979C536.838 27.9154 536.803 27.8427 536.785 27.7655C536.767 27.6883 536.766 27.6082 536.781 27.5305C536.797 27.4527 536.829 27.379 536.875 27.314C536.922 27.249 536.982 27.1941 537.051 27.153C537.121 27.1118 537.198 27.0852 537.279 27.075L537.288 27.0729L537.293 27.0716C537.341 27.0604 537.404 27.0447 537.448 27.0364C537.634 27.0114 537.82 26.9967 538.007 26.9926C538.36 26.9702 538.71 26.9143 539.052 26.8258C539.153 26.763 539.238 26.6791 539.302 26.58L539.546 26.5107C539.281 24.7217 539.705 22.9007 540.735 21.3968L540.548 21.2348C540.541 21.1172 540.501 21.0039 540.431 20.9076C540.163 20.6832 539.872 20.4848 539.565 20.3152C539.398 20.2327 539.237 20.141 539.081 20.0404C539.046 20.0148 538.999 19.9762 538.961 19.9459L538.952 19.94C538.82 19.8473 538.73 19.7075 538.703 19.5509C538.676 19.3943 538.714 19.2337 538.809 19.1042C538.865 19.0378 538.936 18.985 539.016 18.9503C539.097 18.9156 539.185 18.8998 539.273 18.9044C539.421 18.9106 539.564 18.9628 539.679 19.0535C539.719 19.0837 539.773 19.1241 539.808 19.1535C539.944 19.2783 540.072 19.4106 540.192 19.5498C540.43 19.8043 540.693 20.0356 540.978 20.2404C541.084 20.2949 541.208 20.3067 541.324 20.2731C541.393 20.3223 541.463 20.3708 541.534 20.4184C542.558 19.3595 543.883 18.6226 545.341 18.3022C545.688 18.2258 546.04 18.1731 546.394 18.1447L546.408 17.905C546.498 17.8268 546.564 17.725 546.597 17.6117C546.61 17.2678 546.588 16.9234 546.532 16.5836C546.495 16.4055 546.468 16.2255 546.453 16.0445C546.451 16.0032 546.453 15.9463 546.454 15.8993C546.454 15.8939 546.453 15.8885 546.453 15.8834C546.444 15.8042 546.453 15.7241 546.479 15.6484C546.504 15.5727 546.546 15.5031 546.601 15.4439C546.655 15.3848 546.722 15.3376 546.797 15.3052C546.872 15.2728 546.953 15.2561 547.035 15.2561C547.117 15.256 547.198 15.2727 547.273 15.305C547.347 15.3373 547.414 15.3845 547.469 15.4435C547.524 15.5026 547.566 15.5722 547.591 15.6479C547.617 15.7236 547.626 15.8036 547.618 15.8829C547.618 15.9326 547.621 15.9984 547.619 16.0441C547.603 16.2251 547.576 16.4051 547.539 16.5831C547.483 16.923 547.461 17.2674 547.473 17.6114C547.496 17.7264 547.564 17.8281 547.663 17.8948C547.666 17.9358 547.672 18.0725 547.678 18.1479C549.519 18.3109 551.238 19.1188 552.514 20.4215L552.735 20.2674C552.854 20.2873 552.977 20.2744 553.089 20.2301C553.373 20.0249 553.636 19.7933 553.874 19.5386C553.995 19.3994 554.123 19.2671 554.259 19.1424C554.295 19.1126 554.349 19.0725 554.388 19.0422C554.447 18.9861 554.517 18.9426 554.593 18.9145C554.67 18.8864 554.752 18.8744 554.834 18.8791C554.916 18.8839 554.996 18.9054 555.069 18.9422C555.142 18.979 555.206 19.0303 555.257 19.0928C555.308 19.1553 555.346 19.2275 555.366 19.3049C555.387 19.3822 555.39 19.4629 555.377 19.5417C555.363 19.6205 555.333 19.6956 555.288 19.7622C555.242 19.8289 555.183 19.8855 555.114 19.9284C555.075 19.9592 555.023 20.002 554.986 20.0291C554.83 20.1298 554.668 20.2215 554.502 20.304C554.194 20.4736 553.904 20.672 553.635 20.8963C553.557 20.9853 553.518 21.1005 553.526 21.2173C553.493 21.2463 553.379 21.3445 553.319 21.3977C554.352 22.8962 554.784 24.7117 554.533 26.4995L554.768 26.5662C554.827 26.6691 554.914 26.7542 555.019 26.812C555.361 26.9006 555.711 26.9567 556.064 26.9793C556.251 26.9835 556.437 26.998 556.623 27.0228C556.672 27.0316 556.742 27.0506 556.792 27.0618C556.873 27.0721 556.951 27.0987 557.02 27.1399C557.09 27.1811 557.15 27.236 557.196 27.301C557.243 27.366 557.275 27.4398 557.29 27.5175C557.306 27.5953 557.304 27.6754 557.286 27.7526C557.268 27.8298 557.234 27.9025 557.185 27.966C557.136 28.0295 557.075 28.0824 557.004 28.1214C556.933 28.1603 556.854 28.1844 556.773 28.1922C556.692 28.1999 556.61 28.1911 556.533 28.1663L556.525 28.1652C556.521 28.1643 556.517 28.1623 556.513 28.1612C556.465 28.1511 556.405 28.1409 556.363 28.1302C556.185 28.0745 556.01 28.009 555.84 27.9338C555.512 27.805 555.172 27.7076 554.824 27.643C554.704 27.6393 554.586 27.6816 554.498 27.7608C554.415 27.7455 554.332 27.7313 554.249 27.7183C553.685 29.443 552.49 30.9062 550.89 31.8293Z" fill="white" fill-opacity="0.2"/>
<path d="M562.258 28.1366L559.634 17.0473C559.564 16.7603 559.428 16.4922 559.238 16.2622C559.048 16.0323 558.808 15.8462 558.536 15.7175L547.915 10.784C547.64 10.6562 547.338 10.5898 547.033 10.5898C546.728 10.5898 546.427 10.6562 546.152 10.784L535.532 15.7205C535.259 15.8491 535.019 16.035 534.829 16.2648C534.639 16.4947 534.504 16.7627 534.433 17.0496L531.814 28.1396C531.755 28.3952 531.749 28.6598 531.796 28.9177C531.843 29.1757 531.943 29.4219 532.089 29.6419C532.125 29.6956 532.164 29.7478 532.205 29.798L539.555 38.6905C539.748 38.9194 539.99 39.104 540.265 39.2314C540.539 39.3588 540.839 39.4258 541.143 39.4275L552.93 39.4248C553.234 39.4232 553.534 39.3563 553.808 39.2291C554.083 39.1019 554.325 38.9174 554.518 38.6888L561.866 29.7954C562.054 29.5649 562.187 29.2963 562.255 29.0094C562.322 28.7225 562.324 28.4244 562.258 28.137V28.1366ZM560.988 28.6559C560.971 28.7344 560.948 28.8117 560.92 28.8873C560.852 29.0713 560.754 29.2431 560.628 29.3958L554.099 37.2989L553.894 37.5476C553.767 37.6988 553.616 37.8288 553.446 37.9324C553.381 37.9732 553.313 38.0101 553.243 38.0428C553.196 38.0641 553.148 38.0833 553.099 38.1006C553.036 38.1238 552.972 38.1437 552.908 38.1604C552.818 38.184 552.726 38.201 552.633 38.2113C552.569 38.2184 552.504 38.2221 552.439 38.2223L541.739 38.2247H541.634C541.474 38.2237 541.315 38.2024 541.161 38.1613C540.973 38.1128 540.793 38.0367 540.629 37.9358C540.499 37.8551 540.379 37.7589 540.273 37.6494C540.241 37.6164 540.209 37.584 540.179 37.5487L533.442 29.3984C533.404 29.3524 533.369 29.3046 533.336 29.2552C533.26 29.1406 533.198 29.0177 533.151 28.8891C533.123 28.8136 533.101 28.7365 533.083 28.6582C533.024 28.4012 533.025 28.1348 533.084 27.8779L535.485 17.7134C535.55 17.4504 535.674 17.2048 535.848 16.9941C536.022 16.7834 536.242 16.613 536.492 16.4951L546.225 11.9706C546.478 11.8534 546.754 11.7926 547.033 11.7926C547.313 11.7926 547.589 11.8534 547.841 11.9706L557.576 16.4931C557.826 16.6111 558.046 16.7816 558.22 16.9923C558.395 17.2031 558.518 17.4488 558.583 17.7118L560.988 27.8762C561.047 28.133 561.047 28.3993 560.988 28.6561V28.6559Z" fill="white"/>
<path d="M556.792 27.0619C556.743 27.0508 556.672 27.0317 556.623 27.023C556.438 26.9981 556.251 26.9834 556.064 26.9792C555.711 26.9567 555.361 26.9009 555.019 26.8124C554.914 26.7545 554.827 26.6693 554.768 26.5663L554.533 26.4997C554.784 24.7118 554.353 22.8964 553.319 21.3978C553.38 21.3447 553.494 21.2465 553.526 21.2176C553.518 21.1008 553.557 20.9856 553.635 20.8966C553.904 20.6722 554.194 20.4739 554.502 20.3042C554.668 20.2218 554.83 20.13 554.986 20.0294C555.023 20.0023 555.075 19.9593 555.114 19.9287C555.183 19.8858 555.242 19.8291 555.288 19.7625C555.333 19.6959 555.363 19.6208 555.377 19.542C555.39 19.4632 555.387 19.3826 555.366 19.3053C555.346 19.2279 555.309 19.1557 555.257 19.0932C555.206 19.0307 555.142 18.9794 555.069 18.9426C554.997 18.9058 554.917 18.8842 554.835 18.8794C554.753 18.8746 554.671 18.8866 554.594 18.9147C554.517 18.9427 554.447 18.9861 554.388 19.0422C554.349 19.0727 554.295 19.1127 554.259 19.1425C554.123 19.2672 553.995 19.3995 553.874 19.5387C553.636 19.7935 553.373 20.0251 553.089 20.2302C552.977 20.2745 552.854 20.2874 552.735 20.2676L552.514 20.4216C551.238 19.1189 549.519 18.311 547.678 18.148C547.672 18.0727 547.666 17.9362 547.663 17.895C547.565 17.8282 547.496 17.7265 547.473 17.6116C547.461 17.2675 547.483 16.9231 547.539 16.5832C547.576 16.4052 547.603 16.2253 547.619 16.0443C547.621 15.9987 547.618 15.9323 547.618 15.883C547.626 15.8038 547.617 15.7237 547.591 15.648C547.566 15.5724 547.524 15.5027 547.469 15.4437C547.414 15.3846 547.347 15.3374 547.273 15.3051C547.198 15.2728 547.117 15.2562 547.035 15.2562C546.953 15.2562 546.872 15.273 546.797 15.3053C546.722 15.3377 546.655 15.385 546.601 15.4441C546.546 15.5032 546.504 15.5729 546.479 15.6485C546.453 15.7242 546.444 15.8043 546.453 15.8835C546.453 15.8889 546.454 15.894 546.454 15.8994C546.453 15.9464 546.451 16.0034 546.453 16.0445C546.468 16.2255 546.495 16.4056 546.532 16.5837C546.588 16.9236 546.61 17.2679 546.597 17.6118C546.564 17.725 546.498 17.8267 546.408 17.9049L546.394 18.1448C546.04 18.1733 545.688 18.2259 545.341 18.3023C543.883 18.6228 542.558 19.3597 541.534 20.4184C541.463 20.3709 541.393 20.3224 541.324 20.2731C541.208 20.3066 541.084 20.2949 540.978 20.2404C540.693 20.0357 540.43 19.8044 540.192 19.5499C540.072 19.4108 539.944 19.2785 539.809 19.1537C539.773 19.1241 539.719 19.0838 539.679 19.0529C539.564 18.9623 539.421 18.91 539.273 18.9038C539.185 18.8993 539.097 18.9151 539.016 18.9499C538.936 18.9847 538.865 19.0374 538.809 19.104C538.714 19.2334 538.676 19.394 538.703 19.5506C538.73 19.7072 538.82 19.8471 538.952 19.9397L538.961 19.9459C538.999 19.9762 539.046 20.015 539.081 20.0402C539.237 20.1408 539.398 20.2326 539.565 20.3152C539.872 20.4849 540.163 20.6833 540.431 20.9079C540.501 21.004 540.541 21.1173 540.548 21.2348L540.735 21.397C539.704 22.901 539.281 24.722 539.546 26.5109L539.302 26.58C539.238 26.6789 539.153 26.7627 539.052 26.8254C538.71 26.9141 538.36 26.9702 538.007 26.9929C537.82 26.997 537.634 27.0116 537.448 27.0367C537.404 27.0447 537.341 27.06 537.293 27.0719L537.288 27.0729L537.279 27.0754C537.199 27.0857 537.121 27.1123 537.051 27.1534C536.982 27.1946 536.922 27.2495 536.876 27.3145C536.829 27.3795 536.797 27.4532 536.781 27.531C536.766 27.6087 536.767 27.6887 536.785 27.7659C536.803 27.8432 536.838 27.9158 536.887 27.9794C536.935 28.0429 536.997 28.0958 537.068 28.1348C537.139 28.1738 537.217 28.1979 537.298 28.2057C537.379 28.2135 537.461 28.2047 537.538 28.18L537.547 28.1786C537.551 28.1778 537.554 28.176 537.558 28.1753C537.606 28.1645 537.666 28.1534 537.709 28.1422C537.886 28.087 538.061 28.0219 538.231 27.9473C538.559 27.8186 538.9 27.7212 539.247 27.6565C539.368 27.6637 539.484 27.7036 539.582 27.7717L539.836 27.7293C540.406 29.4434 541.601 30.8952 543.196 31.8109L543.09 32.058C543.139 32.1576 543.157 32.2691 543.142 32.3786C542.997 32.7016 542.82 33.0103 542.615 33.3006C542.502 33.4456 542.397 33.5968 542.302 33.7535C542.279 33.7962 542.25 33.8617 542.227 33.9064C542.185 33.9745 542.158 34.0504 542.148 34.1292C542.138 34.2081 542.145 34.2881 542.169 34.3642C542.192 34.4402 542.232 34.5106 542.285 34.5708C542.339 34.6311 542.404 34.6798 542.478 34.7138C542.552 34.7479 542.632 34.7665 542.714 34.7686C542.795 34.7706 542.876 34.756 542.952 34.7257C543.027 34.6954 543.096 34.6501 543.152 34.5926C543.208 34.5352 543.252 34.4668 543.279 34.3921L543.28 34.391V34.3897C543.302 34.3453 543.334 34.2872 543.352 34.2457C543.419 34.0758 543.475 33.9023 543.521 33.7261C543.621 33.3678 543.773 33.0249 543.972 32.7077C544.041 32.6443 544.129 32.6027 544.223 32.5884L544.355 32.3561C546.084 33.0032 547.998 33.0079 549.731 32.3694C549.768 32.4336 549.837 32.5563 549.856 32.5874C549.975 32.6059 550.081 32.6691 550.153 32.7633C550.318 33.0676 550.452 33.3868 550.553 33.7165C550.599 33.8926 550.656 34.0661 550.722 34.236C550.741 34.2779 550.772 34.3367 550.794 34.3813C550.822 34.4561 550.865 34.5245 550.921 34.5821C550.978 34.6396 551.046 34.685 551.121 34.7154C551.197 34.7459 551.278 34.7606 551.36 34.7586C551.441 34.7567 551.522 34.7381 551.595 34.7041C551.669 34.6702 551.735 34.6216 551.788 34.5614C551.842 34.5012 551.882 34.4309 551.905 34.3548C551.929 34.2788 551.936 34.1988 551.926 34.1199C551.916 34.041 551.889 33.965 551.848 33.8968C551.825 33.8521 551.795 33.7867 551.772 33.7443C551.677 33.5879 551.572 33.437 551.459 33.2924C551.257 33.0095 551.084 32.7081 550.943 32.3925C550.912 32.2796 550.928 32.1595 550.987 32.058C550.95 31.9839 550.918 31.9074 550.89 31.8293C552.49 30.9062 553.685 29.4432 554.249 27.7185C554.324 27.7302 554.455 27.7524 554.498 27.7609C554.587 27.6818 554.704 27.6395 554.824 27.6431C555.171 27.7077 555.512 27.8051 555.84 27.9339C556.01 28.0091 556.185 28.0747 556.363 28.1303C556.405 28.141 556.465 28.1512 556.513 28.1616C556.517 28.1627 556.521 28.1643 556.525 28.1653L556.533 28.1666C556.61 28.1912 556.692 28.2 556.773 28.1921C556.854 28.1843 556.932 28.1602 557.003 28.1212C557.074 28.0823 557.136 28.0294 557.184 27.9659C557.233 27.9024 557.267 27.8298 557.285 27.7526C557.304 27.6754 557.305 27.5955 557.289 27.5177C557.274 27.44 557.242 27.3663 557.196 27.3013C557.149 27.2363 557.089 27.1814 557.02 27.1402C556.95 27.099 556.873 27.0723 556.792 27.0619ZM551.257 21.288L548.767 23.0055L548.758 23.0015C548.683 23.0547 548.594 23.0872 548.502 23.0954C548.409 23.1037 548.316 23.0874 548.233 23.0483C548.149 23.0092 548.078 22.9487 548.026 22.8734C547.975 22.798 547.946 22.7106 547.942 22.6203L547.939 22.6189L547.766 19.6501C549.082 19.8092 550.309 20.3846 551.256 21.288H551.257ZM546.566 24.5422H547.503L548.086 25.2509L547.877 26.1347L547.035 26.5288L546.191 26.1339L545.982 25.2497L546.566 24.5422ZM545.684 19.7541C545.89 19.7091 546.097 19.6744 546.306 19.6501L546.133 22.6235L546.12 22.6294C546.116 22.7197 546.087 22.8073 546.036 22.8828C545.985 22.9583 545.914 23.0189 545.83 23.0582C545.747 23.0976 545.654 23.1141 545.561 23.106C545.469 23.0979 545.38 23.0656 545.305 23.0125L545.3 23.0152L542.794 21.2862C543.592 20.5234 544.593 19.9927 545.684 19.7541ZM541.885 22.3974L544.173 24.3886L544.171 24.4007C544.241 24.46 544.293 24.5368 544.322 24.6228C544.351 24.7088 544.355 24.8008 544.334 24.889C544.314 24.9771 544.269 25.0582 544.204 25.1235C544.14 25.1888 544.059 25.2358 543.969 25.2596L543.967 25.2693L541.034 26.0927C540.888 24.8031 541.187 23.5028 541.885 22.3974ZM544.949 27.6869L543.784 30.4266C542.665 29.73 541.814 28.6937 541.363 27.4786L544.37 26.9816L544.375 26.9882C544.408 26.982 544.442 26.9791 544.476 26.9794C544.56 26.9807 544.643 27.0021 544.717 27.0418C544.79 27.0815 544.853 27.1383 544.899 27.2071C544.945 27.2759 544.973 27.3547 544.98 27.4365C544.987 27.5182 544.973 27.6005 544.94 27.6759L544.949 27.6869ZM548.388 31.2101C547.298 31.4534 546.16 31.3965 545.101 31.0458L546.58 28.4438H546.582C546.626 28.3643 546.691 28.2978 546.771 28.2515C546.851 28.2052 546.942 28.1807 547.034 28.1806C547.127 28.1805 547.218 28.2048 547.298 28.251C547.378 28.2972 547.443 28.3636 547.487 28.443H547.498L548.981 31.0493C548.789 31.1118 548.591 31.1655 548.388 31.2103V31.2101ZM550.299 30.4376L549.122 27.67L549.125 27.665C549.073 27.5466 549.07 27.4132 549.116 27.2925C549.163 27.1718 549.255 27.0732 549.374 27.0172C549.436 26.9879 549.503 26.971 549.571 26.9675C549.611 26.9657 549.65 26.9686 549.689 26.976L549.694 26.9698L552.728 27.4686C552.28 28.6936 551.425 29.7382 550.299 30.4376ZM553.047 26.083L550.099 25.2569L550.096 25.2449C550.007 25.2208 549.926 25.1736 549.861 25.1083C549.797 25.043 549.753 24.962 549.732 24.8739C549.711 24.7859 549.715 24.694 549.744 24.6081C549.773 24.5221 549.825 24.4454 549.895 24.3859L549.894 24.3801L552.169 22.3988C552.866 23.5013 553.174 24.7948 553.046 26.0831L553.047 26.083Z" fill="white"/>
</g>
<g clip-path="url(#clip2_0_3)">
<path d="M551.689 133.976C551.65 133.968 551.61 133.966 551.571 133.967C551.503 133.971 551.436 133.988 551.374 134.017C551.255 134.073 551.162 134.172 551.116 134.292C551.07 134.413 551.073 134.547 551.125 134.665L551.122 134.67L552.299 137.437C553.425 136.738 554.28 135.693 554.728 134.469L551.694 133.97L551.689 133.976ZM546.969 134.368C546.943 134.259 546.881 134.161 546.791 134.091C546.702 134.021 546.591 133.981 546.476 133.979C546.442 133.979 546.408 133.982 546.375 133.988L546.37 133.982L543.362 134.479C543.814 135.694 544.665 136.73 545.784 137.427L546.949 134.686L546.94 134.676C546.983 134.579 546.993 134.471 546.969 134.368ZM549.487 135.443C549.443 135.363 549.378 135.296 549.298 135.25C549.218 135.204 549.127 135.179 549.034 135.179C548.941 135.179 548.85 135.204 548.771 135.251C548.691 135.297 548.626 135.364 548.582 135.444H548.58L547.101 138.046C548.16 138.397 549.298 138.454 550.388 138.21C550.59 138.166 550.788 138.112 550.981 138.049L549.498 135.443L549.487 135.443ZM554.169 129.398L551.893 131.38L551.895 131.386C551.825 131.446 551.773 131.523 551.744 131.608C551.715 131.694 551.711 131.786 551.732 131.874C551.753 131.962 551.797 132.043 551.861 132.109C551.926 132.174 552.007 132.221 552.096 132.245L552.099 132.257L555.046 133.083C555.174 131.795 554.866 130.501 554.169 129.399V129.398ZM549.942 129.62C549.946 129.711 549.975 129.798 550.026 129.873C550.078 129.949 550.149 130.009 550.233 130.048C550.316 130.087 550.409 130.104 550.502 130.096C550.594 130.087 550.683 130.055 550.758 130.002L550.767 130.006L553.257 128.288C552.309 127.385 551.082 126.809 549.766 126.651L549.939 129.62L549.942 129.62ZM547.305 130.013C547.38 130.066 547.468 130.098 547.561 130.106C547.653 130.114 547.746 130.098 547.83 130.059C547.914 130.019 547.985 129.959 548.036 129.883C548.087 129.808 548.116 129.72 548.12 129.63L548.133 129.624L548.306 126.65C548.097 126.675 547.889 126.71 547.684 126.755C546.593 126.993 545.592 127.524 544.794 128.287L547.3 130.016L547.305 130.013ZM545.969 132.26C546.058 132.236 546.14 132.189 546.204 132.124C546.269 132.058 546.314 131.977 546.334 131.889C546.355 131.801 546.351 131.709 546.322 131.623C546.293 131.537 546.241 131.46 546.171 131.401L546.173 131.389L543.885 129.398C543.187 130.503 542.887 131.803 543.034 133.093L545.966 132.269L545.969 132.26ZM548.191 133.134L549.035 133.529L549.877 133.135L550.086 132.251L549.503 131.543H548.566L547.982 132.25L548.191 133.134Z" fill="white" fill-opacity="0.2"/>
<path d="M562.988 134.876L560.583 124.711C560.518 124.449 560.395 124.203 560.22 123.992C560.046 123.781 559.826 123.611 559.576 123.493L549.841 118.97C549.589 118.853 549.313 118.792 549.033 118.792C548.754 118.792 548.477 118.853 548.225 118.97L538.492 123.495C538.242 123.613 538.022 123.784 537.848 123.994C537.673 124.205 537.549 124.451 537.485 124.714L535.084 134.878C535.024 135.135 535.024 135.401 535.083 135.658C535.1 135.737 535.123 135.814 535.151 135.889C535.198 136.018 535.26 136.141 535.336 136.255C535.369 136.304 535.404 136.352 535.442 136.398L542.179 144.548C542.209 144.584 542.241 144.616 542.273 144.649C542.379 144.759 542.498 144.855 542.628 144.936C542.793 145.037 542.973 145.112 543.161 145.161C543.315 145.202 543.474 145.223 543.634 145.224H543.739L554.438 145.222C554.503 145.222 554.568 145.218 554.633 145.211C554.726 145.201 554.818 145.184 554.908 145.16C554.972 145.144 555.036 145.124 555.098 145.101C555.147 145.083 555.196 145.064 555.243 145.043C555.313 145.01 555.381 144.973 555.447 144.932C555.616 144.828 555.767 144.698 555.894 144.547L556.099 144.299L562.628 136.396C562.754 136.243 562.852 136.071 562.919 135.887C562.948 135.812 562.971 135.734 562.989 135.656C563.048 135.399 563.047 135.132 562.988 134.875L562.988 134.876ZM552.89 138.829C552.918 138.907 552.95 138.984 552.987 139.058C552.928 139.159 552.912 139.28 552.942 139.392C553.084 139.708 553.257 140.01 553.459 140.292C553.572 140.437 553.676 140.588 553.771 140.744C553.795 140.787 553.825 140.852 553.848 140.897C553.89 140.965 553.916 141.041 553.926 141.12C553.936 141.199 553.929 141.279 553.905 141.355C553.882 141.431 553.842 141.501 553.788 141.561C553.735 141.622 553.669 141.67 553.595 141.704C553.522 141.738 553.441 141.757 553.36 141.759C553.278 141.761 553.197 141.746 553.121 141.715C553.046 141.685 552.978 141.64 552.921 141.582C552.865 141.525 552.822 141.456 552.794 141.381C552.772 141.337 552.741 141.278 552.722 141.236C552.656 141.066 552.599 140.893 552.553 140.716C552.452 140.387 552.318 140.068 552.153 139.763C552.082 139.669 551.975 139.606 551.856 139.588C551.837 139.556 551.768 139.433 551.731 139.37C549.998 140.008 548.084 140.003 546.355 139.356L546.223 139.589C546.129 139.603 546.041 139.644 545.972 139.708C545.773 140.025 545.621 140.368 545.521 140.726C545.475 140.902 545.419 141.076 545.352 141.246C545.334 141.287 545.303 141.346 545.28 141.39V141.391L545.279 141.392C545.252 141.467 545.209 141.535 545.152 141.593C545.096 141.651 545.028 141.696 544.952 141.727C544.877 141.757 544.795 141.772 544.714 141.77C544.632 141.768 544.551 141.749 544.478 141.715C544.404 141.681 544.338 141.632 544.285 141.572C544.231 141.511 544.192 141.441 544.168 141.365C544.145 141.288 544.138 141.208 544.148 141.129C544.158 141.05 544.185 140.974 544.228 140.906C544.25 140.861 544.279 140.796 544.302 140.754C544.397 140.597 544.501 140.446 544.614 140.301C544.82 140.011 544.997 139.702 545.142 139.379C545.157 139.269 545.139 139.158 545.09 139.058L545.196 138.811C543.601 137.895 542.406 136.443 541.836 134.729L541.582 134.771C541.484 134.703 541.368 134.664 541.247 134.657C540.9 134.721 540.56 134.819 540.232 134.947C540.061 135.022 539.887 135.087 539.709 135.142C539.667 135.153 539.606 135.165 539.558 135.175C539.554 135.176 539.551 135.178 539.547 135.179C539.544 135.179 539.541 135.179 539.538 135.18C539.461 135.204 539.379 135.213 539.298 135.205C539.217 135.198 539.138 135.173 539.067 135.134C538.997 135.095 538.935 135.042 538.886 134.979C538.838 134.915 538.803 134.843 538.785 134.766C538.767 134.688 538.766 134.608 538.781 134.53C538.797 134.453 538.829 134.379 538.875 134.314C538.922 134.249 538.982 134.194 539.051 134.153C539.121 134.112 539.198 134.085 539.279 134.075L539.288 134.073L539.293 134.072C539.341 134.06 539.404 134.045 539.448 134.036C539.634 134.011 539.82 133.997 540.007 133.993C540.36 133.97 540.71 133.914 541.052 133.826C541.153 133.763 541.238 133.679 541.302 133.58L541.546 133.511C541.281 131.722 541.705 129.901 542.735 128.397L542.548 128.235C542.541 128.117 542.501 128.004 542.431 127.908C542.163 127.683 541.872 127.485 541.565 127.315C541.398 127.233 541.237 127.141 541.081 127.04C541.046 127.015 540.999 126.976 540.961 126.946L540.952 126.94C540.82 126.847 540.73 126.707 540.703 126.551C540.676 126.394 540.714 126.234 540.809 126.104C540.865 126.038 540.936 125.985 541.016 125.95C541.097 125.916 541.185 125.9 541.273 125.904C541.421 125.911 541.564 125.963 541.679 126.053C541.719 126.084 541.773 126.124 541.808 126.154C541.944 126.278 542.072 126.411 542.192 126.55C542.43 126.804 542.693 127.036 542.978 127.24C543.084 127.295 543.208 127.307 543.324 127.273C543.393 127.322 543.463 127.371 543.534 127.418C544.558 126.36 545.883 125.623 547.341 125.302C547.688 125.226 548.04 125.173 548.394 125.145L548.408 124.905C548.498 124.827 548.564 124.725 548.597 124.612C548.61 124.268 548.588 123.923 548.532 123.584C548.495 123.406 548.468 123.226 548.453 123.044C548.451 123.003 548.453 122.946 548.454 122.899C548.454 122.894 548.453 122.889 548.453 122.883C548.444 122.804 548.453 122.724 548.479 122.648C548.504 122.573 548.546 122.503 548.601 122.444C548.655 122.385 548.722 122.338 548.797 122.305C548.872 122.273 548.953 122.256 549.035 122.256C549.117 122.256 549.198 122.273 549.273 122.305C549.347 122.337 549.414 122.384 549.469 122.444C549.524 122.503 549.566 122.572 549.591 122.648C549.617 122.724 549.626 122.804 549.618 122.883C549.618 122.933 549.621 122.998 549.619 123.044C549.603 123.225 549.576 123.405 549.539 123.583C549.483 123.923 549.461 124.267 549.473 124.611C549.496 124.726 549.564 124.828 549.663 124.895C549.666 124.936 549.672 125.073 549.678 125.148C551.519 125.311 553.238 126.119 554.514 127.421L554.735 127.267C554.854 127.287 554.977 127.274 555.089 127.23C555.373 127.025 555.636 126.793 555.874 126.539C555.995 126.399 556.123 126.267 556.259 126.142C556.295 126.113 556.349 126.073 556.388 126.042C556.447 125.986 556.517 125.943 556.593 125.915C556.67 125.886 556.752 125.874 556.834 125.879C556.916 125.884 556.996 125.905 557.069 125.942C557.142 125.979 557.206 126.03 557.257 126.093C557.308 126.155 557.346 126.228 557.366 126.305C557.387 126.382 557.39 126.463 557.377 126.542C557.363 126.62 557.333 126.696 557.288 126.762C557.242 126.829 557.183 126.885 557.114 126.928C557.075 126.959 557.023 127.002 556.986 127.029C556.83 127.13 556.668 127.222 556.502 127.304C556.194 127.474 555.904 127.672 555.635 127.896C555.557 127.985 555.518 128.101 555.526 128.217C555.493 128.246 555.379 128.345 555.319 128.398C556.352 129.896 556.784 131.712 556.533 133.5L556.768 133.566C556.827 133.669 556.914 133.754 557.019 133.812C557.361 133.901 557.711 133.957 558.064 133.979C558.251 133.983 558.437 133.998 558.623 134.023C558.672 134.032 558.742 134.051 558.792 134.062C558.873 134.072 558.951 134.099 559.02 134.14C559.09 134.181 559.15 134.236 559.196 134.301C559.243 134.366 559.275 134.44 559.29 134.518C559.306 134.595 559.304 134.675 559.286 134.753C559.268 134.83 559.234 134.903 559.185 134.966C559.136 135.03 559.075 135.082 559.004 135.121C558.933 135.16 558.854 135.184 558.773 135.192C558.692 135.2 558.61 135.191 558.533 135.166L558.525 135.165C558.521 135.164 558.517 135.162 558.513 135.161C558.465 135.151 558.405 135.141 558.363 135.13C558.185 135.075 558.01 135.009 557.84 134.934C557.512 134.805 557.172 134.708 556.824 134.643C556.704 134.639 556.586 134.682 556.498 134.761C556.415 134.745 556.332 134.731 556.249 134.718C555.685 136.443 554.49 137.906 552.89 138.829Z" fill="white" fill-opacity="0.2"/>
<path d="M564.258 135.137L561.634 124.047C561.564 123.76 561.428 123.492 561.238 123.262C561.048 123.032 560.808 122.846 560.536 122.718L549.915 117.784C549.64 117.656 549.338 117.59 549.033 117.59C548.728 117.59 548.427 117.656 548.152 117.784L537.532 122.72C537.259 122.849 537.019 123.035 536.829 123.265C536.639 123.495 536.504 123.763 536.433 124.05L533.814 135.14C533.755 135.395 533.749 135.66 533.796 135.918C533.843 136.176 533.943 136.422 534.089 136.642C534.125 136.696 534.164 136.748 534.205 136.798L541.555 145.691C541.748 145.919 541.99 146.104 542.265 146.231C542.539 146.359 542.839 146.426 543.143 146.428L554.93 146.425C555.234 146.423 555.534 146.356 555.808 146.229C556.083 146.102 556.325 145.917 556.518 145.689L563.866 136.795C564.054 136.565 564.187 136.296 564.255 136.009C564.322 135.722 564.324 135.424 564.258 135.137V135.137ZM562.988 135.656C562.971 135.734 562.948 135.812 562.92 135.887C562.852 136.071 562.754 136.243 562.628 136.396L556.099 144.299L555.894 144.548C555.767 144.699 555.616 144.829 555.446 144.932C555.381 144.973 555.313 145.01 555.243 145.043C555.196 145.064 555.148 145.083 555.099 145.101C555.036 145.124 554.972 145.144 554.908 145.16C554.818 145.184 554.726 145.201 554.633 145.211C554.569 145.218 554.504 145.222 554.439 145.222L543.739 145.225H543.634C543.474 145.224 543.315 145.202 543.161 145.161C542.973 145.113 542.793 145.037 542.629 144.936C542.499 144.855 542.379 144.759 542.273 144.649C542.241 144.616 542.209 144.584 542.179 144.549L535.442 136.398C535.404 136.352 535.369 136.305 535.336 136.255C535.26 136.141 535.198 136.018 535.151 135.889C535.123 135.814 535.101 135.736 535.083 135.658C535.024 135.401 535.025 135.135 535.084 134.878L537.485 124.713C537.55 124.45 537.674 124.205 537.848 123.994C538.022 123.783 538.242 123.613 538.492 123.495L548.225 118.971C548.478 118.853 548.754 118.793 549.033 118.793C549.313 118.793 549.589 118.853 549.841 118.971L559.576 123.493C559.826 123.611 560.046 123.782 560.22 123.992C560.395 124.203 560.518 124.449 560.583 124.712L562.988 134.876C563.047 135.133 563.047 135.399 562.988 135.656V135.656Z" fill="white"/>
<path d="M558.792 134.062C558.743 134.051 558.672 134.032 558.623 134.023C558.438 133.998 558.251 133.983 558.064 133.979C557.711 133.957 557.361 133.901 557.019 133.812C556.914 133.755 556.827 133.669 556.768 133.566L556.533 133.5C556.784 131.712 556.353 129.896 555.319 128.398C555.38 128.345 555.494 128.246 555.526 128.218C555.518 128.101 555.557 127.986 555.635 127.897C555.904 127.672 556.194 127.474 556.502 127.304C556.668 127.222 556.83 127.13 556.986 127.029C557.023 127.002 557.075 126.959 557.114 126.929C557.183 126.886 557.242 126.829 557.288 126.763C557.333 126.696 557.363 126.621 557.377 126.542C557.39 126.463 557.387 126.383 557.366 126.305C557.346 126.228 557.309 126.156 557.257 126.093C557.206 126.031 557.142 125.979 557.069 125.943C556.997 125.906 556.917 125.884 556.835 125.879C556.753 125.875 556.671 125.887 556.594 125.915C556.517 125.943 556.447 125.986 556.388 126.042C556.349 126.073 556.295 126.113 556.259 126.143C556.123 126.267 555.995 126.4 555.874 126.539C555.636 126.793 555.373 127.025 555.089 127.23C554.977 127.275 554.854 127.287 554.735 127.268L554.514 127.422C553.238 126.119 551.519 125.311 549.678 125.148C549.672 125.073 549.666 124.936 549.663 124.895C549.565 124.828 549.496 124.727 549.473 124.612C549.461 124.267 549.483 123.923 549.539 123.583C549.576 123.405 549.603 123.225 549.619 123.044C549.621 122.999 549.618 122.932 549.618 122.883C549.626 122.804 549.617 122.724 549.591 122.648C549.566 122.572 549.524 122.503 549.469 122.444C549.414 122.385 549.347 122.337 549.273 122.305C549.198 122.273 549.117 122.256 549.035 122.256C548.953 122.256 548.872 122.273 548.797 122.305C548.722 122.338 548.655 122.385 548.601 122.444C548.546 122.503 548.504 122.573 548.479 122.649C548.453 122.724 548.444 122.804 548.453 122.884C548.453 122.889 548.454 122.894 548.454 122.899C548.453 122.946 548.451 123.003 548.453 123.044C548.468 123.226 548.495 123.406 548.532 123.584C548.588 123.924 548.61 124.268 548.597 124.612C548.564 124.725 548.498 124.827 548.408 124.905L548.394 125.145C548.04 125.173 547.688 125.226 547.341 125.302C545.883 125.623 544.558 126.36 543.534 127.418C543.463 127.371 543.393 127.322 543.324 127.273C543.208 127.307 543.084 127.295 542.978 127.24C542.693 127.036 542.43 126.804 542.192 126.55C542.072 126.411 541.944 126.278 541.809 126.154C541.773 126.124 541.719 126.084 541.679 126.053C541.564 125.962 541.421 125.91 541.273 125.904C541.185 125.899 541.097 125.915 541.016 125.95C540.936 125.985 540.865 126.037 540.809 126.104C540.714 126.233 540.676 126.394 540.703 126.551C540.73 126.707 540.82 126.847 540.952 126.94L540.961 126.946C540.999 126.976 541.046 127.015 541.081 127.04C541.237 127.141 541.398 127.233 541.565 127.315C541.872 127.485 542.163 127.683 542.431 127.908C542.501 128.004 542.541 128.117 542.548 128.235L542.735 128.397C541.704 129.901 541.281 131.722 541.546 133.511L541.302 133.58C541.238 133.679 541.153 133.763 541.052 133.825C540.71 133.914 540.36 133.97 540.007 133.993C539.82 133.997 539.634 134.012 539.448 134.037C539.404 134.045 539.341 134.06 539.293 134.072L539.288 134.073L539.279 134.075C539.199 134.086 539.121 134.112 539.051 134.153C538.982 134.195 538.922 134.249 538.876 134.314C538.829 134.379 538.797 134.453 538.781 134.531C538.766 134.609 538.767 134.689 538.785 134.766C538.803 134.843 538.838 134.916 538.887 134.979C538.935 135.043 538.997 135.096 539.068 135.135C539.139 135.174 539.217 135.198 539.298 135.206C539.379 135.213 539.461 135.205 539.538 135.18L539.547 135.179C539.551 135.178 539.554 135.176 539.558 135.175C539.606 135.165 539.666 135.153 539.709 135.142C539.886 135.087 540.061 135.022 540.231 134.947C540.559 134.819 540.9 134.721 541.247 134.657C541.368 134.664 541.484 134.704 541.582 134.772L541.836 134.729C542.406 136.443 543.601 137.895 545.196 138.811L545.09 139.058C545.139 139.158 545.157 139.269 545.142 139.379C544.997 139.702 544.82 140.01 544.615 140.301C544.502 140.446 544.397 140.597 544.302 140.754C544.279 140.796 544.25 140.862 544.227 140.906C544.185 140.974 544.158 141.05 544.148 141.129C544.138 141.208 544.145 141.288 544.169 141.364C544.192 141.44 544.232 141.511 544.285 141.571C544.339 141.631 544.404 141.68 544.478 141.714C544.552 141.748 544.632 141.767 544.714 141.769C544.795 141.771 544.876 141.756 544.952 141.726C545.027 141.695 545.096 141.65 545.152 141.593C545.208 141.535 545.252 141.467 545.279 141.392L545.28 141.391V141.39C545.302 141.345 545.334 141.287 545.352 141.246C545.419 141.076 545.475 140.902 545.521 140.726C545.621 140.368 545.773 140.025 545.972 139.708C546.041 139.644 546.129 139.603 546.223 139.588L546.355 139.356C548.084 140.003 549.998 140.008 551.731 139.369C551.768 139.434 551.837 139.556 551.856 139.587C551.975 139.606 552.081 139.669 552.153 139.763C552.318 140.068 552.452 140.387 552.553 140.716C552.599 140.893 552.656 141.066 552.722 141.236C552.741 141.278 552.772 141.337 552.794 141.381C552.822 141.456 552.865 141.525 552.921 141.582C552.978 141.64 553.046 141.685 553.121 141.715C553.197 141.746 553.278 141.761 553.36 141.759C553.441 141.757 553.522 141.738 553.595 141.704C553.669 141.67 553.735 141.622 553.788 141.561C553.842 141.501 553.882 141.431 553.905 141.355C553.929 141.279 553.936 141.199 553.926 141.12C553.916 141.041 553.889 140.965 553.848 140.897C553.825 140.852 553.795 140.787 553.772 140.744C553.677 140.588 553.572 140.437 553.459 140.292C553.257 140.01 553.084 139.708 552.943 139.392C552.912 139.28 552.928 139.159 552.987 139.058C552.95 138.984 552.918 138.907 552.89 138.829C554.49 137.906 555.685 136.443 556.249 134.718C556.324 134.73 556.455 134.752 556.498 134.761C556.587 134.682 556.704 134.639 556.824 134.643C557.171 134.708 557.512 134.805 557.84 134.934C558.01 135.009 558.185 135.075 558.363 135.13C558.405 135.141 558.465 135.151 558.513 135.162C558.517 135.163 558.521 135.164 558.525 135.165L558.533 135.167C558.61 135.191 558.692 135.2 558.773 135.192C558.854 135.184 558.932 135.16 559.003 135.121C559.074 135.082 559.136 135.029 559.184 134.966C559.233 134.902 559.267 134.83 559.285 134.753C559.304 134.675 559.305 134.595 559.289 134.518C559.274 134.44 559.242 134.366 559.196 134.301C559.149 134.236 559.089 134.181 559.02 134.14C558.95 134.099 558.873 134.072 558.792 134.062ZM553.257 128.288L550.767 130.006L550.758 130.001C550.683 130.055 550.594 130.087 550.502 130.095C550.409 130.104 550.316 130.087 550.233 130.048C550.149 130.009 550.078 129.949 550.026 129.873C549.975 129.798 549.946 129.711 549.942 129.62L549.939 129.619L549.766 126.65C551.082 126.809 552.309 127.385 553.256 128.288H553.257ZM548.566 131.542H549.503L550.086 132.251L549.877 133.135L549.035 133.529L548.191 133.134L547.982 132.25L548.566 131.542ZM547.684 126.754C547.89 126.709 548.097 126.674 548.306 126.65L548.133 129.624L548.12 129.629C548.116 129.72 548.087 129.807 548.036 129.883C547.985 129.958 547.914 130.019 547.83 130.058C547.747 130.098 547.654 130.114 547.561 130.106C547.469 130.098 547.38 130.066 547.305 130.012L547.3 130.015L544.794 128.286C545.592 127.523 546.593 126.993 547.684 126.754ZM543.885 129.397L546.173 131.389L546.171 131.401C546.241 131.46 546.293 131.537 546.322 131.623C546.351 131.709 546.355 131.801 546.334 131.889C546.314 131.977 546.269 132.058 546.204 132.123C546.14 132.189 546.059 132.236 545.969 132.26L545.967 132.269L543.034 133.093C542.888 131.803 543.187 130.503 543.885 129.397ZM546.949 134.687L545.784 137.427C544.665 136.73 543.814 135.694 543.363 134.479L546.37 133.982L546.375 133.988C546.408 133.982 546.442 133.979 546.476 133.979C546.56 133.981 546.643 134.002 546.717 134.042C546.79 134.081 546.853 134.138 546.899 134.207C546.945 134.276 546.973 134.355 546.98 134.436C546.987 134.518 546.973 134.6 546.94 134.676L546.949 134.687ZM550.388 138.21C549.298 138.453 548.16 138.396 547.101 138.046L548.58 135.444H548.582C548.626 135.364 548.691 135.298 548.771 135.251C548.851 135.205 548.942 135.181 549.034 135.181C549.127 135.18 549.218 135.205 549.298 135.251C549.378 135.297 549.443 135.364 549.487 135.443H549.498L550.981 138.049C550.789 138.112 550.591 138.165 550.388 138.21V138.21ZM552.299 137.438L551.122 134.67L551.125 134.665C551.073 134.547 551.07 134.413 551.116 134.293C551.163 134.172 551.255 134.073 551.374 134.017C551.436 133.988 551.503 133.971 551.571 133.967C551.611 133.966 551.65 133.969 551.689 133.976L551.694 133.97L554.728 134.469C554.28 135.694 553.425 136.738 552.299 137.438ZM555.047 133.083L552.099 132.257L552.096 132.245C552.007 132.221 551.926 132.174 551.861 132.108C551.797 132.043 551.753 131.962 551.732 131.874C551.711 131.786 551.715 131.694 551.744 131.608C551.773 131.522 551.825 131.445 551.895 131.386L551.894 131.38L554.169 129.399C554.866 130.501 555.174 131.795 555.046 133.083L555.047 133.083Z" fill="white"/>
</g>
<path d="M522 12.001H496V38.001H522V12.001Z" fill="white" fill-opacity="0.2"/>
<path d="M503.833 16.7109V20.4924H506.498L512.713 33.297H516.982V29.538H515.327L509.104 16.7109H503.833Z" fill="white"/>
<path d="M505.743 23.4222L507.966 28.0033L505.552 33.2651H501.094L505.743 23.4222Z" fill="white"/>
</g>
</g>
<defs>
<clipPath id="clip0_0_3">
<rect width="575.723" height="161.092" fill="white"/>
</clipPath>
<clipPath id="clip1_0_3">
<rect width="31.7647" height="30" fill="white" transform="translate(531.118 10)"/>
</clipPath>
<clipPath id="clip2_0_3">
<rect width="31.7647" height="30" fill="white" transform="translate(533.118 117)"/>
</clipPath>
</defs>
</svg>
